/* XPM */
static char *result[] = {
/* columns rows colors chars-per-pixel */
"100 100 76 1 ",
"  c #1E100F",
". c #0C0E1A",
"X c #170E13",
"o c #100E17",
"O c #150E15",
"+ c #171013",
"@ c #191011",
"# c #1B1111",
"$ c #191012",
"% c #20100C",
"& c #20100D",
"* c #21110D",
"= c #22100D",
"- c #22130F",
"; c #24130E",
": c #271610",
"> c #2A1712",
", c #291813",
"< c #2A1812",
"1 c #2C1912",
"2 c #2C1A13",
"3 c #2D1A14",
"4 c #311E15",
"5 c #321E15",
"6 c #321F16",
"7 c #331F16",
"8 c #342017",
"9 c #352117",
"0 c #362016",
"q c #362118",
"w c #362218",
"e c #382319",
"r c #3A251A",
"t c #3D271C",
"y c #3D281C",
"u c #3E281C",
"i c #3E281D",
"p c #402A1D",
"a c #442C1F",
"s c #483021",
"d c #4B3222",
"f c #4D3424",
"g c #503625",
"h c #513625",
"j c #523826",
"k c #553A27",
"l c #553A28",
"z c #593D29",
"x c #593D2A",
"c c #5C3F2B",
"v c #5D412C",
"b c #5E402C",
"n c #5E412C",
"m c #5F4332",
"M c #60422D",
"N c #60432D",
"B c #62442E",
"V c #62442F",
"C c #664730",
"Z c #674930",
"A c #674831",
"S c #6A4A32",
"D c #6B4C33",
"F c #6C4B34",
"G c #6E4D35",
"H c #704F36",
"J c #705036",
"K c #755338",
"L c #7A573C",
"P c #7F5C40",
"I c #846044",
"U c #936D50",
"Y c #956F52",
"T c #987154",
"R c #9D7658",
"E c None",
/* pixels */
"EEEEEEEEEEEEEEEEEEEEEEEEEEEEEEEE===========================================EEEEEEEEEEEEEEEEEEEEEEEEE",
"EEEEEEEEEEEEEEEEEEEEEEEEEEEEEEEE*******************************************EEEEEEEEEEEEEEEEEEEEEEEEE",
"EEEEEEEEEEEEEEEEEEEEEEEEEEEEEEEE*******************************************EEEEEEEEEEEEEEEEEEEEEEEEE",
"EEEEEEEEEEEEEEEEEEEEEEEEEEEEEEEE*******************************************EEEEEEEEEEEEEEEEEEEEEEEEE",
"EEEEEEEEEEEEEEEEEEEEEEEEEEEEEEEE*******************************************EEEEEEEEEEEEEEEEEEEEEEEEE",
"EEEEEEEEEEEEEEEEEEEEEEEEEEEEEEEE*******************************************EEEEEEEEEEEEEEEEEEEEEEEEE",
"EEEEEEEEEEEEEEEEEEEEEEEEEE%%%%%4dddddfmmmmmmmmmmmmmmmmmmmmmmmmmmmmmmmdddddd>%%%%%EEEEEEEEEEEEEEEEEEE",
"EEEEEEEEEEEEEEEEEEEEEEEEE%*****qKKKKKLRRRRRRRRRRRRRRRRRRRRRRRRRRRRRRRKKKKKK1*****EEEEEEEEEEEEEEEEEEE",
"EEEEEEEEEEEEEEEEEEEEEEEEE%*****qKKKKKLRRRRRRRRRRRRRRRRRRRRRRRRRRRRRRRKKKKKK1*****EEEEEEEEEEEEEEEEEEE",
"EEEEEEEEEEEEEEEEEEEEEEEEE%*****qKKKKKLRRRRRRRRRRRRRRRRRRRRRRRRRRRRRRRKKKKKK1*****EEEEEEEEEEEEEEEEEEE",
"EEEEEEEEEEEEEEEEEEEEEEEEE%*****qKKKKKLRRRRRRRRRRRRRRRRRRRRRRRRRRRRRRRKKKKKK1*****EEEEEEEEEEEEEEEEEEE",
"EEEEEEEEEEEEEEEEEEEEEEEEE%*****qKKKKKLRRRRRRRRRRRRRRRRRRRRRRRRRRRRRRRKKKKKK1*****EEEEEEEEEEEEEEEEEEE",
"EEEEEEEEEEEEEEEEEEEEEEEEE5wwwwwsPPPPPIRRRRRRYUUUUUUUUUUUUUUUUUYRRRRRRPPPPPPiwwwww0EEEEEEEEEEEEEEEEEE",
"EEEEEEEEEEEEEEEEEEE&*****dKKKKKPRRRRRRRRRRRRLKKKKKKKKKKKKKKKKKPRRRRRRRRRRRRLKKKKKp*****=EEEEEEEEEEEE",
"EEEEEEEEEEEEEEEEEEE&*****dKKKKKPRRRRRRRRRRRRLKKKKKKKKKKKKKKKKKPRRRRRRRRRRRRLKKKKKp*****=EEEEEEEEEEEE",
"EEEEEEEEEEEEEEEEEEE&*****dKKKKKPRRRRRRRRRRRRLKKKKKKKKKKKKKKKKKPRRRRRRRRRRRRLKKKKKp*****=EEEEEEEEEEEE",
"EEEEEEEEEEEEEEEEEEE&*****dKKKKKPRRRRRRRRRRRRLKKKKKKKKKKKKKKKKKPRRRRRRRRRRRRLKKKKKp*****=EEEEEEEEEEEE",
"EEEEEEEEEEEEEEEEEEE&*****dKKKKKPRRRRRRRRRRRRLKKKKKKKKKKKKKKKKKPRRRRRRRRRRRRLKKKKKp*****=EEEEEEEEEEEE",
"EEEEEEEEEEEEEEEEEEE&*****dKKKKKPRRRRRRRRRRRRLKKKKKKKKKKKKKKKKKPRRRRRRRRRRRRLKKKKKp*****=EEEEEEEEEEEE",
"EEEEEEEEEEEEEEEEEEE&*****dKKKKKPRRRRRRRRRRRRLKKKKKKKKKKKKKKKKKPRRRRRRRRRRRRLKKKKKp*****=EEEEEEEEEEEE",
"EEEEEEEEEEEEEEEEEEE&*****dKKKKKPRRRRRRRRRRRRLKKKKKKKKKKKKKKKKKPRRRRRRRRRRRRLKKKKKp*****=EEEEEEEEEEEE",
"EEEEEEEEEEEEEEEEEEE&*****dKKKKKPRRRRRRRRRRRRLKKKKKKKKKKKKKKKKKPRRRRRRRRRRRRLKKKKKp*****=EEEEEEEEEEEE",
"EEEEEEEEEEEEEEEEEEE&*****dKKKKKPRRRRRRRRRRRRLKKKKKKKKKKKKKKKKKPRRRRRRRRRRRRLKKKKKp*****=EEEEEEEEEEEE",
"EEEEEEEEEEEEEEEEEEE&*****dKKKKKPRRRRRRRRRRRRLKKKKKKKKKKKKKKKKKPRRRRRRRRRRRRLKKKKKp*****=EEEEEEEEEEEE",
"EEEEEEEEEEEEEEEEEEE&*****dKKKKKPRRRRRRRRRRRRLKKKKKKKKKKKKKKKKKPRRRRRRRRRRRRLKKKKKp*****=EEEEEEEEEEEE",
"EEEEEEEEEEEEEEEEEEE&*****rkkkkkbLLLLLPRRRRRRTTTTTTTTTTTTTTTTTTTRRRRRRLLLLLLzkkkkk9*****=EEEEEEEEEEEE",
"EEEEEEEEEEEEEEEEEEE&*****egggggxKKKKKLRRRRRRRRRRRRRRRRRRRRRRRRRRRRRRRKKKKKKkggggg6*****=EEEEEEEEEEEE",
"EEEEEEEEEEEEEEEEEEE&*****egggggxKKKKKLRRRRRRRRRRRRRRRRRRRRRRRRRRRRRRRKKKKKKkggggg6*****=EEEEEEEEEEEE",
"EEEEEEEEEEEEEEEEEEE&*****egggggxKKKKKLRRRRRRRRRRRRRRRRRRRRRRRRRRRRRRRKKKKKKkggggg6*****=EEEEEEEEEEEE",
"EEEEEEEEEEEEEEEEEEE&*****egggggxKKKKKLRRRRRRRRRRRRRRRRRRRRRRRRRRRRRRRKKKKKKkggggg6*****=EEEEEEEEEEEE",
"EEEEEEEEEEEEEEEEEEE&*****egggggxKKKKKLRRRRRRRRRRRRRRRRRRRRRRRRRRRRRRRKKKKKKkggggg6*****=EEEEEEEEEEEE",
"EEEEEEEEEEEEEEEEEEEEEEEEE377777tbbbbbVIIIIIIIIIIIIIIIIIIIIIIIIIIIIIIIbbbbbbe77777<EEEEEEEEEEEEEEEEEE",
"EEEEEEEEEEEEEEEEEEEEEEEEE%*****2gggggkKKKKKKKKKKKKKKKKKKKKKKKKKKKKKKKgggggg:*****EEEEEEEEEEEEEEEEEEE",
"EEEEEEEEEEEEEEEEEEEEEEEEE%*****2gggggkKKKKKKKKKKKKKKKKKKKKKKKKKKKKKKKgggggg:*****EEEEEEEEEEEEEEEEEEE",
"EEEEEEEEEEEEEEEEEEEEEEEEE%*****2gggggkKKKKKKKKKKKKKKKKKKKKKKKKKKKKKKKgggggg:*****EEEEEEEEEEEEEEEEEEE",
"EEEEEEEEEEEEEEEEEEEEEEEEE%*****2gggggkKKKKKKKKKKKKKKKKKKKKKKKKKKKKKKKgggggg:*****EEEEEEEEEEEEEEEEEEE",
"EEEEEEEEEEEEEEEEEEEEEEEEE%*****2gggggkKKKKKKKKKKKKKKKKKKKKKKKKKKKKKKKgggggg:*****EEEEEEEEEEEEEEEEEEE",
"EEEEEEEEEEEEEEEEEEEEEEEEE%*****:eeeeerdddddddddddddddddddddddddddddddeeeeee;*****EEEEEEEEEEEEEEEEEEE",
"EEEEEEEEEEEEEEEEEEEEEEEEE%*******************************************************EEEEEEEEEEEEEEEEEEE",
"EEEEEEEEEEEEEEEEEEEEEEEEE%*******************************************************EEEEEEEEEEEEEEEEEEE",
"EEEEEEEEEEEEEEEEEEEEEEEEE%*******************************************************EEEEEEEEEEEEEEEEEEE",
"EEEEEEEEEEEEEEEEEEEEEEEEE%*******************************************************EEEEEEEEEEEEEEEEEEE",
"EEEEEEEEEEEEEEEEEEEEEEEEE%*******************************************************EEEEEEEEEEEEEEEEEEE",
"EEEEEEEEEEEEEEEEEEEEEEEEE%*****;2222222222228wwwww5222225wwwwwwwwwwww222222;*****EEEEEEEEEEEEEEEEEEE",
"EEEEEEEEEEEEEEEEEEEEEEEEE%*****2ggggggggggggHKKKKKvgggggBKKKKKKKKKKKKgggggg:*****EEEEEEEEEEEEEEEEEEE",
"EEEEEEEEEEEEEEEEEEEEEEEEE%*****2ggggggggggggHKKKKKvgggggBKKKKKKKKKKKKgggggg:*****EEEEEEEEEEEEEEEEEEE",
"EEEEEEEEEEEEEEEEEEEEEEEEE%*****2ggggggggggggHKKKKKvgggggBKKKKKKKKKKKKgggggg:*****EEEEEEEEEEEEEEEEEEE",
"EEEEEEEEEEEEEEEEEEEEEEEEE%*****2ggggggggggggHKKKKKvgggggBKKKKKKKKKKKKgggggg:*****EEEEEEEEEEEEEEEEEEE",
"EEEEEEEEEEEEEEEEEEEEEEEEE%*****2ggggggggggggHKKKKKvgggggBKKKKKKKKKKKKgggggg:*****EEEEEEEEEEEEEEEEEEE",
"EEEEEEEEEEEEEEEEEEEEEEEEE%*****2ggggggggggggHKKKKKvgggggBKKKKKKKKKKKKgggggg:*****EEEEEEEEEEEEEEEEEEE",
"EEEEEEEEEEEEEEEEEEEEEEEEE%*****2gggggkKKKKKKKKKKKKKKKKKKBgggggxKKKKKKgggggg:*****EEEEEEEEEEEEEEEEEEE",
"EEEEEEEEEEEEEEEEEEEEEEEEE%*****2gggggkKKKKKKKKKKKKKKKKKKBgggggxKKKKKKgggggg:*****EEEEEEEEEEEEEEEEEEE",
"EEEEEEEEEEEEEEEEEEEEEEEEE%*****2gggggkKKKKKKKKKKKKKKKKKKBgggggxKKKKKKgggggg:*****EEEEEEEEEEEEEEEEEEE",
"EEEEEEEEEEEEEEEEEEEEEEEEE%*****2gggggkKKKKKKKKKKKKKKKKKKBgggggxKKKKKKgggggg:*****EEEEEEEEEEEEEEEEEEE",
"EEEEEEEEEEEEEEEEEEEEEEEEE%*****2gggggkKKKKKKKKKKKKKKKKKKBgggggxKKKKKKgggggg:*****EEEEEEEEEEEEEEEEEEE",
"EEEEEEEEEEEEEEEEEEEEEEEEE%*****2gggggkKKKKKKKKKKKKKKKKKKBgggggxKKKKKKgggggg:*****EEEEEEEEEEEEEEEEEEE",
"EEEEEEEEEEEEEEEEEEEEEEEEE%*****2gggggkKKKKKKKKKKKKKKKKKKBgggggxKKKKKKgggggg:*****EEEEEEEEEEEEEEEEEEE",
"EEEEEEEEEEEEEEEEEEEEEEEEE%*****2gggggkKKKKKKKKKKKKKKKKKKBgggggxKKKKKKgggggg:*****EEEEEEEEEEEEEEEEEEE",
"EEEEEEEEEEEEEEEEEEEEEEEEE%*****2gggggkKKKKKKKKKKKKKKKKKKBgggggxKKKKKKgggggg:*****EEEEEEEEEEEEEEEEEEE",
"EEEEEEEEEEEEEEEEEEEEEEEEE%*****2gggggkKKKKKKKKKKKKKKKKKKBgggggxKKKKKKgggggg:*****EEEEEEEEEEEEEEEEEEE",
"EEEEEEEEEEEEEEEEEEEEEEEEE%*****2gggggkKKKKKKKKKKKKKKKKKKBgggggxKKKKKKgggggg:*****EEEEEEEEEEEEEEEEEEE",
"EEEEEEEEEEEEEEEEEEEEEEEEE%*****2gggggkKKKKKKKKKKKKKKKKKKBgggggxKKKKKKgggggg:*****EEEEEEEEEEEEEEEEEEE",
"EEEEEEEEEEEEEEEEEEEEEEEEE#*****2gggggkKKKKKKNbbbbbFKKKKKGZZZZZSKKKKKKgggggg:*****$EEEEEEEEEEEEEEEEEE",
"EEEEEEEEEEEEEEEEEEEE.....@*****2gggggkKKKKKKkgggggAKKKKKKKKKKKKKKKKKKgggggg:*****+.....EEEEEEEEEEEEE",
"EEEEEEEEEEEEEEEEEEEE.....@*****2gggggkKKKKKKkgggggAKKKKKKKKKKKKKKKKKKgggggg:*****+.....EEEEEEEEEEEEE",
"EEEEEEEEEEEEEEEEEEEE.....@*****2gggggkKKKKKKkgggggAKKKKKKKKKKKKKKKKKKgggggg:*****+.....EEEEEEEEEEEEE",
"EEEEEEEEEEEEEEEEEEEE.....@*****2gggggkKKKKKKkgggggAKKKKKKKKKKKKKKKKKKgggggg:*****+.....EEEEEEEEEEEEE",
"EEEEEEEEEEEEEEEEEEEE.....@*****2gggggkKKKKKKkgggggAKKKKKKKKKKKKKKKKKKgggggg:*****+.....EEEEEEEEEEEEE",
"EEEEEEEEEEEEEEEEEEEE.....@*****2gggggjBBBBBByeeeeenKKKKKKKKKKKJBBBBBBgggggg:*****+.....EEEEEEEEEEEEE",
"EEEEEEEEEEEEEEEEEEEE.....@*****2gggggggggggg:*****lKKKKKKKKKKKDgggggggggggg:*****+.....EEEEEEEEEEEEE",
"EEEEEEEEEEEEEEEEEEEE.....@*****2gggggggggggg:*****lKKKKKKKKKKKDgggggggggggg:*****+.....EEEEEEEEEEEEE",
"EEEEEEEEEEEEEEEEEEEE.....@*****2gggggggggggg:*****lKKKKKKKKKKKDgggggggggggg:*****+.....EEEEEEEEEEEEE",
"EEEEEEEEEEEEEEEEEEEE.....@*****2gggggggggggg:*****lKKKKKKKKKKKDgggggggggggg:*****+.....EEEEEEEEEEEEE",
"EEEEEEEEEEEEEEEEEEEE.....@*****2gggggggggggg:*****lKKKKKKKKKKKDgggggggggggg:*****+.....EEEEEEEEEEEEE",
"EEEEEEEEEEEEEEEEEEEE.....X     ,aaaaaagggggg:*****hDDDDDCMMMMMcggggggaaaaaa-     O.....EEEEEEEEEEEEE",
"EEEEEEEEEEEEEE.................O*****:gggggg:*****uggggge*****2gggggg******o.................EEEEEEE",
"EEEEEEEEEEEEEE.................O*****:gggggg:*****uggggge*****2gggggg******o.................EEEEEEE",
"EEEEEEEEEEEEEE.................O*****:gggggg:*****uggggge*****2gggggg******o.................EEEEEEE",
"EEEEEEEEEEEEEE.................O*****:gggggg:*****uggggge*****2gggggg******o.................EEEEEEE",
"EEEEEEEEEEEEEE.................O*****:gggggg:*****uggggge*****2gggggg******o.................EEEEEEE",
"EEEEEEEEEEEEEE.................O*****:gggggg:*****uggggge*****2gggggg******o................EEEEEEEE",
"EEEEEEEEEEEEEEEEEEEEEEEEEE.......................................................EEEEEEEEEEEEEEEEEEE",
"EEEEEEEEEEEEEEEEEEEEEEEEEE.......................................................EEEEEEEEEEEEEEEEEEE",
"EEEEEEEEEEEEEEEEEEEEEEEEEE.......................................................EEEEEEEEEEEEEEEEEEE",
"EEEEEEEEEEEEEEEEEEEEEEEEEE.......................................................EEEEEEEEEEEEEEEEEEE",
"EEEEEEEEEEEEEEEEEEEEEEEEEE.......................................................EEEEEEEEEEEEEEEEEEE",
"EEEEEEEEEEEEEEEEEEEEEEEEEE......................................................EEEEEEEEEEEEEEEEEEEE",
"EEEEEEEEEEEEEEEEEEEEEEEEEEEEEEEE.....EEEEEEEEEEEEEEEEEEEEEEEEEEEEEEEE......EEEEEEEEEEEEEEEEEEEEEEEEE",
"EEEEEEEEEEEEEEEEEEEEEEEEEEEEEEEE.....EEEEEEEEEEEEEEEEEEEEEEEEEEEEEEEE......EEEEEEEEEEEEEEEEEEEEEEEEE",
"EEEEEEEEEEEEEEEEEEEEEEEEEEEEEEEE.....EEEEEEEEEEEEEEEEEEEEEEEEEEEEEEEE......EEEEEEEEEEEEEEEEEEEEEEEEE",
"EEEEEEEEEEEEEEEEEEEEEEEEEEEEEEEE.....EEEEEEEEEEEEEEEEEEEEEEEEEEEEEEEE......EEEEEEEEEEEEEEEEEEEEEEEEE",
"EEEEEEEEEEEEEEEEEEEEEEEEEEEEEEEE.....EEEEEEEEEEEEEEEEEEEEEEEEEEEEEEEE......EEEEEEEEEEEEEEEEEEEEEEEEE",
"EEEEEEEEEEEEEEEEEEEEEEEEEEEEEEEE.....EEEEEEEEEEEEEEEEEEEEEEEEEEEEEEEE.....EEEEEEEEEEEEEEEEEEEEEEEEEE",
"EEEEEEEEEEEEEEEEEEEEEEEEEEEEEEEEEEEEEEEEEEEEEEEEEEEEEEEEEEEEEEEEEEEEEEEEEEEEEEEEEEEEEEEEEEEEEEEEEEEE",
"EEEEEEEEEEEEEEEEEEEEEEEEEEEEEEEEEEEEEEEEEEEEEEEEEEEEEEEEEEEEEEEEEEEEEEEEEEEEEEEEEEEEEEEEEEEEEEEEEEEE",
"EEEEEEEEEEEEEEEEEEEEEEEEEEEEEEEEEEEEEEEEEEEEEEEEEEEEEEEEEEEEEEEEEEEEEEEEEEEEEEEEEEEEEEEEEEEEEEEEEEEE",
"EEEEEEEEEEEEEEEEEEEEEEEEEEEEEEEEEEEEEEEEEEEEEEEEEEEEEEEEEEEEEEEEEEEEEEEEEEEEEEEEEEEEEEEEEEEEEEEEEEEE",
"EEEEEEEEEEEEEEEEEEEEEEEEEEEEEEEEEEEEEEEEEEEEEEEEEEEEEEEEEEEEEEEEEEEEEEEEEEEEEEEEEEEEEEEEEEEEEEEEEEEE",
"EEEEEEEEEEEEEEEEEEEEEEEEEEEEEEEEEEEEEEEEEEEEEEEEEEEEEEEEEEEEEEEEEEEEEEEEEEEEEEEEEEEEEEEEEEEEEEEEEEEE",
"EEEEEEEEEEEEEEEEEEEEEEEEEEEEEEEEEEEEEEEEEEEEEEEEEEEEEEEEEEEEEEEEEEEEEEEEEEEEEEEEEEEEEEEEEEEEEEEEEEEE"
};
