/* XPM */
static char *result[] = {
/* columns rows colors chars-per-pixel */
"100 100 89 1 ",
"  c #1F100E",
". c #0D0F18",
"X c #0C0E1A",
"o c #170F13",
"O c #100E17",
"+ c #120E17",
"@ c #150E15",
"# c #170F14",
"$ c #190F12",
"% c #191011",
"& c #1A1111",
"* c #1D1010",
"= c #171319",
"- c #1A171C",
"; c #1B171C",
": c #20100C",
"> c #20110C",
", c #21110D",
"< c #22100D",
"1 c #24130E",
"2 c #251511",
"3 c #261610",
"4 c #271610",
"5 c #2A1712",
"6 c #291811",
"7 c #2A1812",
"8 c #2A1912",
"9 c #2B1912",
"0 c #2C1912",
"q c #2D1A13",
"w c #2C1B14",
"e c #2F1C14",
"r c #301D15",
"t c #321F16",
"y c #362118",
"u c #362218",
"i c #372318",
"p c #382319",
"a c #3D271B",
"s c #3D271C",
"d c #3E281C",
"f c #3F2A1F",
"g c #402A1D",
"h c #402A1E",
"j c #432B1E",
"k c #432C1F",
"l c #442C1F",
"z c #473024",
"x c #483021",
"c c #493021",
"v c #4A3122",
"b c #4B3222",
"n c #4D3527",
"m c #4F3629",
"M c #503625",
"N c #523726",
"B c #533827",
"V c #553A27",
"C c #593D29",
"Z c #593D2A",
"A c #5A3D2A",
"S c #5E412D",
"D c #62442E",
"F c #63452F",
"G c #64462F",
"H c #644630",
"J c #664730",
"K c #674930",
"L c #674831",
"P c #674931",
"I c #6A4B33",
"U c #6B4C33",
"Y c #6C4C33",
"T c #6D4D34",
"R c #704F36",
"E c #705036",
"W c #735137",
"Q c #755338",
"! c #7A573C",
"~ c #7F5C40",
"^ c #846044",
"/ c #846045",
"( c #896448",
") c #936D50",
"_ c #956F52",
"` c #966F52",
"' c #987154",
"] c #9D7658",
"[ c None",
/* pixels */
"[[[[[[[[[[[[[[[[[[[[[[[[[[[[[[[[[<<<<<<,,,,,,fmmmmmmmmmmmmmmmmmz,,,,,,,<<<<<[[[[[[[[[[[[[[[[[[[[[[[[",
"[[[[[[[[[[[[[[[[[[[[[[[[[[[[[[[[[,,,,,,,,,,,,,,,,,,,,,,,,,,,,,,,,,,,,,,,,,,,[[[[[[[[[[[[[[[[[[[[[[[[",
"[[[[[[[[[[[[[[[[[[[[[[[[[[[[[[[[[,,,,,,,,,,,,,,,,,,,,,,,,,,,,,,,,,,,,,,,,,,,[[[[[[[[[[[[[[[[[[[[[[[[",
"[[[[[[[[[[[[[[[[[[[[[[[[[[[[[[[[[,,,,,,,,,,,,,,,,,,,,,,,,,,,,,,,,,,,,,,,,,,,[[[[[[[[[[[[[[[[[[[[[[[[",
"[[[[[[[[[[[[[[[[[[[[[[[[[[[[[[[[[,,,,,,,,,,,,,,,,,,,,,,,,,,,,,,,,,,,,,,,,,,,[[[[[[[[[[[[[[[[[[[[[[[[",
"[[[[[[[[[[[[[[[[[[[[[[[[[[[[[[[[[,,,,,,,,,,,,,,,,,,,,,,,,,,,,,,,,,,,,,,,,,,,[[[[[[[[[[[[[[[[[[[[[[[[",
"[[[[[[[[[[[[[[[[[[[[[[[[[[[[[[[[[ggggggnmmmmmmmmmmmmmmmmmmmmmmmmmmmmmmkggggg5[[[[[[[[[[[[[[[[[[[[[[[",
"[[[[[[[[[[[[[[[[[[[[[[[[[[[,,,,,9QQQQQQ']]]]]]]]]]]]]]]]]]]]]]]]]]]]]]!QQQQQu,,,,,:[[[[[[[[[[[[[[[[[",
"[[[[[[[[[[[[[[[[[[[[[[[[[[[,,,,,9QQQQQQ']]]]]]]]]]]]]]]]]]]]]]]]]]]]]]!QQQQQu,,,,,:[[[[[[[[[[[[[[[[[",
"[[[[[[[[[[[[[[[[[[[[[[[[[[[,,,,,9QQQQQQ']]]]]]]]]]]]]]]]]]]]]]]]]]]]]]!QQQQQu,,,,,:[[[[[[[[[[[[[[[[[",
"[[[[[[[[[[[[[[[[[[[[[[[[[[[,,,,,9QQQQQQ']]]]]]]]]]]]]]]]]]]]]]]]]]]]]]!QQQQQu,,,,,:[[[[[[[[[[[[[[[[[",
"[[[[[[[[[[[[[[[[[[[[[[[[[[[,,,,,9QQQQQQ']]]]]]]]]]]]]]]]]]]]]]]]]]]]]]!QQQQQu,,,,,:[[[[[[[[[[[[[[[[[",
"[[[[[[[[[[[[[[[[[[[[[[[[[[[00000y!!!!!!']]]]]''''''''''''''''''']]]]]]~!!!!!g000008[[[[[[[[[[[[[[[[[",
"[[[[[[[[[[[[[[[[[[[[:,,,,,gQQQQQ!]]]]]]]]]]]]~QQQQQQQQQQQQQQQQQ!]]]]]]]]]]]]~QQQQQb,,,,,>[[[[[[[[[[[",
"[[[[[[[[[[[[[[[[[[[[:,,,,,gQQQQQ!]]]]]]]]]]]]~QQQQQQQQQQQQQQQQQ!]]]]]]]]]]]]~QQQQQb,,,,,>[[[[[[[[[[[",
"[[[[[[[[[[[[[[[[[[[[:,,,,,gQQQQQ!]]]]]]]]]]]]~QQQQQQQQQQQQQQQQQ!]]]]]]]]]]]]~QQQQQb,,,,,>[[[[[[[[[[[",
"[[[[[[[[[[[[[[[[[[[[:,,,,,gQQQQQ!]]]]]]]]]]]]~QQQQQQQQQQQQQQQQQ!]]]]]]]]]]]]~QQQQQb,,,,,>[[[[[[[[[[[",
"[[[[[[[[[[[[[[[[[[[[:,,,,,gQQQQQ!]]]]]]]]]]]]~QQQQQQQQQQQQQQQQQ!]]]]]]]]]]]]~QQQQQb,,,,,>[[[[[[[[[[[",
"[[[[[[[[[[[[[[[[[[[[:,,,,,gQQQQQ!]]]]]]]]]]]]~QQQQQQQQQQQQQQQQQ!]]]]]]]]]]]]~QQQQQb,,,,,>[[[[[[[[[[[",
"[[[[[[[[[[[[[[[[[[[[:,,,,,gQQQQQ!]]]]]]]]]]]]~QQQQQQQQQQQQQQQQQ!]]]]]]]]]]]]~QQQQQb,,,,,>[[[[[[[[[[[",
"[[[[[[[[[[[[[[[[[[[[:,,,,,gQQQQQ!]]]]]]]]]]]]~QQQQQQQQQQQQQQQQQ!]]]]]]]]]]]]~QQQQQb,,,,,>[[[[[[[[[[[",
"[[[[[[[[[[[[[[[[[[[[:,,,,,gQQQQQ!]]]]]]]]]]]]~QQQQQQQQQQQQQQQQQ!]]]]]]]]]]]]~QQQQQb,,,,,>[[[[[[[[[[[",
"[[[[[[[[[[[[[[[[[[[[:,,,,,gQQQQQ!]]]]]]]]]]]]~QQQQQQQQQQQQQQQQQ!]]]]]]]]]]]]~QQQQQb,,,,,>[[[[[[[[[[[",
"[[[[[[[[[[[[[[[[[[[[:,,,,,gQQQQQ!]]]]]]]]]]]]~QQQQQQQQQQQQQQQQQ!]]]]]]]]]]]]~QQQQQb,,,,,>[[[[[[[[[[[",
"[[[[[[[[[[[[[[[[[[[[:,,,,,gQQQQQ!]]]]]]]]]]]]~QQQQQQQQQQQQQQQQQ!]]]]]]]]]]]]~QQQQQb,,,,,>[[[[[[[[[[[",
"[[[[[[[[[[[[[[[[[[[[:,,,,,iZZZZZS~~~~~~']]]]]`)))))))))))))))))_]]]]]]^~~~~~FZZZZZa,,,,,>[[[[[[[[[[[",
"[[[[[[[[[[[[[[[[[[[[:,,,,,tMMMMMVQQQQQQ']]]]]]]]]]]]]]]]]]]]]]]]]]]]]]!QQQQQCMMMMMp,,,,,>[[[[[[[[[[[",
"[[[[[[[[[[[[[[[[[[[[:,,,,,tMMMMMVQQQQQQ']]]]]]]]]]]]]]]]]]]]]]]]]]]]]]!QQQQQCMMMMMp,,,,,>[[[[[[[[[[[",
"[[[[[[[[[[[[[[[[[[[[:,,,,,tMMMMMVQQQQQQ']]]]]]]]]]]]]]]]]]]]]]]]]]]]]]!QQQQQCMMMMMp,,,,,>[[[[[[[[[[[",
"[[[[[[[[[[[[[[[[[[[[:,,,,,tMMMMMVQQQQQQ']]]]]]]]]]]]]]]]]]]]]]]]]]]]]]!QQQQQCMMMMMp,,,,,>[[[[[[[[[[[",
"[[[[[[[[[[[[[[[[[[[[:,,,,,tMMMMMVQQQQQQ']]]]]]]]]]]]]]]]]]]]]]]]]]]]]]!QQQQQCMMMMMp,,,,,>[[[[[[[[[[[",
"[[[[[[[[[[[[[[[[[[[[[:::::epppppsDDDDDD/((((((((((((((((((((((((((((((PDDDDDjpppppr:::::[[[[[[[[[[[[",
"[[[[[[[[[[[[[[[[[[[[[[[[[[[,,,,,4MMMMMMRQQQQQQQQQQQQQQQQQQQQQQQQQQQQQQVMMMMMq,,,,,:[[[[[[[[[[[[[[[[[",
"[[[[[[[[[[[[[[[[[[[[[[[[[[[,,,,,4MMMMMMRQQQQQQQQQQQQQQQQQQQQQQQQQQQQQQVMMMMMq,,,,,:[[[[[[[[[[[[[[[[[",
"[[[[[[[[[[[[[[[[[[[[[[[[[[[,,,,,4MMMMMMRQQQQQQQQQQQQQQQQQQQQQQQQQQQQQQVMMMMMq,,,,,:[[[[[[[[[[[[[[[[[",
"[[[[[[[[[[[[[[[[[[[[[[[[[[[,,,,,4MMMMMMRQQQQQQQQQQQQQQQQQQQQQQQQQQQQQQVMMMMMq,,,,,:[[[[[[[[[[[[[[[[[",
"[[[[[[[[[[[[[[[[[[[[[[[[[[[,,,,,4MMMMMMRQQQQQQQQQQQQQQQQQQQQQQQQQQQQQQVMMMMMq,,,,,:[[[[[[[[[[[[[[[[[",
"[[[[[[[[[[[[[[[[[[[[[[[[[[[,,,,,1ddddddBVVVVVVVVVVVVVVVVVVVVVVVVVVVVVVhddddd7,,,,,:[[[[[[[[[[[[[[[[[",
"[[[[[[[[[[[[[[[[[[[[[[[[[[[,,,,,,,,,,,,,,,,,,,,,,,,,,,,,,,,,,,,,,,,,,,,,,,,,,,,,,,:[[[[[[[[[[[[[[[[[",
"[[[[[[[[[[[[[[[[[[[[[[[[[[[,,,,,,,,,,,,,,,,,,,,,,,,,,,,,,,,,,,,,,,,,,,,,,,,,,,,,,,:[[[[[[[[[[[[[[[[[",
"[[[[[[[[[[[[[[[[[[[[[[[[[[[,,,,,,,,,,,,,,,,,,,,,,,,,,,,,,,,,,,,,,,,,,,,,,,,,,,,,,,:[[[[[[[[[[[[[[[[[",
"[[[[[[[[[[[[[[[[[[[[[[[[[[[,,,,,,,,,,,,,,,,,,,,,,,,,,,,,,,,,,,,,,,,,,,,,,,,,,,,,,,:[[[[[[[[[[[[[[[[[",
"[[[[[[[[[[[[[[[[[[[[[[[[[[[,,,,,,,,,,,,,,,,,,,,,,,,,,,,,,,,,,,,,,,,,,,,,,,,,,,,,,,:[[[[[[[[[[[[[[[[[",
"[[[[[[[[[[[[[[[[[[[[[[[[[[[,,,,,,3333333333330000006333336000000000000333333,,,,,,:[[[[[[[[[[[[[[[[[",
"[[[[[[[[[[[[[[[[[[[[[[[[[[[,,,,,4MMMMMMMMMMMMYQQQQQDMMMMMZQQQQQQQQQQQQVMMMMMq,,,,,:[[[[[[[[[[[[[[[[[",
"[[[[[[[[[[[[[[[[[[[[[[[[[[[,,,,,4MMMMMMMMMMMMYQQQQQDMMMMMZQQQQQQQQQQQQVMMMMMq,,,,,:[[[[[[[[[[[[[[[[[",
"[[[[[[[[[[[[[[[[[[[[[[[[[[[,,,,,4MMMMMMMMMMMMYQQQQQDMMMMMZQQQQQQQQQQQQVMMMMMq,,,,,:[[[[[[[[[[[[[[[[[",
"[[[[[[[[[[[[[[[[[[[[[[[[[[[,,,,,4MMMMMMMMMMMMYQQQQQDMMMMMZQQQQQQQQQQQQVMMMMMq,,,,,:[[[[[[[[[[[[[[[[[",
"[[[[[[[[[[[[[[[[[[[[[[[[[[[,,,,,4MMMMMMMMMMMMYQQQQQDMMMMMZQQQQQQQQQQQQVMMMMMq,,,,,:[[[[[[[[[[[[[[[[[",
"[[[[[[[[[[[[[[[[[[[[[[[[[[[,,,,,4MMMMMMMMMMMMYQQQQQDMMMMMZQQQQQQQQQQQQVMMMMMq,,,,,:[[[[[[[[[[[[[[[[[",
"[[[[[[[[[[[[[[[[[[[[[[[[[[[,,,,,4MMMMMMRQQQQQQQQQQQQQQQQQUMMMMMVQQQQQQVMMMMMq,,,,,:[[[[[[[[[[[[[[[[[",
"[[[[[[[[[[[[[[[[[[[[[[[[[[[,,,,,4MMMMMMRQQQQQQQQQQQQQQQQQUMMMMMVQQQQQQVMMMMMq,,,,,:[[[[[[[[[[[[[[[[[",
"[[[[[[[[[[[[[[[[[[[[[[[[[[[,,,,,4MMMMMMRQQQQQQQQQQQQQQQQQUMMMMMVQQQQQQVMMMMMq,,,,,:[[[[[[[[[[[[[[[[[",
"[[[[[[[[[[[[[[[[[[[[[[[[[[[,,,,,4MMMMMMRQQQQQQQQQQQQQQQQQUMMMMMVQQQQQQVMMMMMq,,,,,:[[[[[[[[[[[[[[[[[",
"[[[[[[[[[[[[[[[[[[[[[[[[[[[,,,,,4MMMMMMRQQQQQQQQQQQQQQQQQUMMMMMVQQQQQQVMMMMMq,,,,,:[[[[[[[[[[[[[[[[[",
"[[[[[[[[[[[[[[[[[[[[[[[[[[[,,,,,4MMMMMMRQQQQQQQQQQQQQQQQQUMMMMMVQQQQQQVMMMMMq,,,,,:[[[[[[[[[[[[[[[[[",
"[[[[[[[[[[[[[[[[[[[[[[[[[[[,,,,,4MMMMMMRQQQQQQQQQQQQQQQQQUMMMMMVQQQQQQVMMMMMq,,,,,:[[[[[[[[[[[[[[[[[",
"[[[[[[[[[[[[[[[[[[[[[[[[[[[,,,,,4MMMMMMRQQQQQQQQQQQQQQQQQUMMMMMVQQQQQQVMMMMMq,,,,,:[[[[[[[[[[[[[[[[[",
"[[[[[[[[[[[[[[[[[[[[[[[[[[[,,,,,4MMMMMMRQQQQQQQQQQQQQQQQQUMMMMMVQQQQQQVMMMMMq,,,,,:[[[[[[[[[[[[[[[[[",
"[[[[[[[[[[[[[[[[[[[[[[[[[[[,,,,,4MMMMMMRQQQQQQQQQQQQQQQQQUMMMMMVQQQQQQVMMMMMq,,,,,:[[[[[[[[[[[[[[[[[",
"[[[[[[[[[[[[[[[[[[[[[[[[[[[,,,,,4MMMMMMRQQQQQQQQQQQQQQQQQUMMMMMVQQQQQQVMMMMMq,,,,,:[[[[[[[[[[[[[[[[[",
"[[[[[[[[[[[[[[[[[[[[[[[[[[[,,,,,4MMMMMMRQQQQQQQQQQQQQQQQQUMMMMMVQQQQQQVMMMMMq,,,,,:[[[[[[[[[[[[[[[[[",
"[[[[[[[[[[[[[[[[[[[[[[[[[[&,,,,,4MMMMMMRQQQQQLDDDDDYQQQQQEDDDDDGQQQQQQVMMMMMq,,,,,*[[[[[[[[[[[[[[[[[",
"[[[[[[[[[[[[[[[[[[[[[XXXXXo,,,,,4MMMMMMRQQQQQCMMMMMDQQQQQQQQQQQQQQQQQQVMMMMMq,,,,,%XXXXX[[[[[[[[[[[[",
"[[[[[[[[[[[[[[[[[[[[[XXXXXo,,,,,4MMMMMMRQQQQQCMMMMMDQQQQQQQQQQQQQQQQQQVMMMMMq,,,,,%XXXXX[[[[[[[[[[[[",
"[[[[[[[[[[[[[[[[[[[[[XXXXXo,,,,,4MMMMMMRQQQQQCMMMMMDQQQQQQQQQQQQQQQQQQVMMMMMq,,,,,%XXXXX[[[[[[[[[[[[",
"[[[[[[[[[[[[[[[[[[[[[XXXXXo,,,,,4MMMMMMRQQQQQCMMMMMDQQQQQQQQQQQQQQQQQQVMMMMMq,,,,,%XXXXX[[[[[[[[[[[[",
"[[[[[[[[[[[[[[[[[[[[[XXXXXo,,,,,4MMMMMMRQQQQQCMMMMMDQQQQQQQQQQQQQQQQQQVMMMMMq,,,,,%XXXXX[[[[[[[[[[[[",
"[[[[[[[[[[[[[[[[[[[[[XXXXXo,,,,,4MMMMMMHKKKKKxdddddAQQQQQQQQQQQWKKKKKKNMMMMMq,,,,,%XXXXX[[[[[[[[[[[[",
"[[[[[[[[[[[[[[[[[[[[[XXXXXo,,,,,4MMMMMMMMMMMMq,,,,,bQQQQQQQQQQQRMMMMMMMMMMMMq,,,,,%XXXXX[[[[[[[[[[[[",
"[[[[[[[[[[[[[[[[[[[[[XXXXXo,,,,,4MMMMMMMMMMMMq,,,,,bQQQQQQQQQQQRMMMMMMMMMMMMq,,,,,%XXXXX[[[[[[[[[[[[",
"[[[[[[[[[[[[[[[[[[[[[XXXXXo,,,,,4MMMMMMMMMMMMq,,,,,bQQQQQQQQQQQRMMMMMMMMMMMMq,,,,,%XXXXX[[[[[[[[[[[[",
"[[[[[[[[[[[[[[[[[[[[[XXXXXo,,,,,4MMMMMMMMMMMMq,,,,,bQQQQQQQQQQQRMMMMMMMMMMMMq,,,,,%XXXXX[[[[[[[[[[[[",
"[[[[[[[[[[[[[[[[[[[[[XXXXXo,,,,,4MMMMMMMMMMMMq,,,,,bQQQQQQQQQQQRMMMMMMMMMMMMq,,,,,%XXXXX[[[[[[[[[[[[",
"[[[[[[[[[[[[[[[[[[[[[XXXXX#     2vvvvvvMMMMMMq,,,,,cRRRRRTIIIIIJMMMMMMvvvvvvw     $XXXXX[[[[[[[[[[[[",
"[[[[[[[[[[[[[[[XXXXXXXXXXXXXXXXXO,,,,,,vMMMMMq,,,,,pMMMMMl,,,,,4MMMMMM4,,,,,@XXXXXXXXXXXXXXXXX[[[[[[",
"[[[[[[[[[[[[[[[XXXXXXXXXXXXXXXXXO,,,,,,vMMMMMq,,,,,pMMMMMl,,,,,4MMMMMM4,,,,,@XXXXXXXXXXXXXXXXX[[[[[[",
"[[[[[[[[[[[[[[[XXXXXXXXXXXXXXXXXO,,,,,,vMMMMMq,,,,,pMMMMMl,,,,,4MMMMMM4,,,,,@XXXXXXXXXXXXXXXXX[[[[[[",
"[[[[[[[[[[[[[[[XXXXXXXXXXXXXXXXXO,,,,,,vMMMMMq,,,,,pMMMMMl,,,,,4MMMMMM4,,,,,@XXXXXXXXXXXXXXXXX[[[[[[",
"[[[[[[[[[[[[[[[XXXXXXXXXXXXXXXXXO,,,,,,vMMMMMq,,,,,pMMMMMl,,,,,4MMMMMM4,,,,,@XXXXXXXXXXXXXXXXX[[[[[[",
"[[[[[[[[[[[[[[[XXXXXXXXXXXXXXXXXO,,,,,,vMMMMMq,,,,,pMMMMMl,,,,,4MMMMMM4,,,,,@XXXXXXXXXXXXXXXXX[[[[[[",
"[[[[[[[[[[[[[[[[[[[[[[[[[[[XXXXXX++++++;;;;;;=+++++=;;;;;-++++++;;;;;-++++++.XXXXX[[[[[[[[[[[[[[[[[[",
"[[[[[[[[[[[[[[[[[[[[[[[[[[[XXXXXXXXXXXXXXXXXXXXXXXXXXXXXXXXXXXXXXXXXXXXXXXXXXXXXXX[[[[[[[[[[[[[[[[[[",
"[[[[[[[[[[[[[[[[[[[[[[[[[[[XXXXXXXXXXXXXXXXXXXXXXXXXXXXXXXXXXXXXXXXXXXXXXXXXXXXXXX[[[[[[[[[[[[[[[[[[",
"[[[[[[[[[[[[[[[[[[[[[[[[[[[XXXXXXXXXXXXXXXXXXXXXXXXXXXXXXXXXXXXXXXXXXXXXXXXXXXXXXX[[[[[[[[[[[[[[[[[[",
"[[[[[[[[[[[[[[[[[[[[[[[[[[[XXXXXXXXXXXXXXXXXXXXXXXXXXXXXXXXXXXXXXXXXXXXXXXXXXXXXXX[[[[[[[[[[[[[[[[[[",
"[[[[[[[[[[[[[[[[[[[[[[[[[[[XXXXXXXXXXXXXXXXXXXXXXXXXXXXXXXXXXXXXXXXXXXXXXXXXXXXXX[[[[[[[[[[[[[[[[[[[",
"[[[[[[[[[[[[[[[[[[[[[[[[[[[[[[[[[XXXXXX[[[[[[[[[[[[[[[[[[[[[[[[[[[[[[[[XXXXX[[[[[[[[[[[[[[[[[[[[[[[[",
"[[[[[[[[[[[[[[[[[[[[[[[[[[[[[[[[[XXXXXX[[[[[[[[[[[[[[[[[[[[[[[[[[[[[[[[XXXXX[[[[[[[[[[[[[[[[[[[[[[[[",
"[[[[[[[[[[[[[[[[[[[[[[[[[[[[[[[[[XXXXXX[[[[[[[[[[[[[[[[[[[[[[[[[[[[[[[[XXXXX[[[[[[[[[[[[[[[[[[[[[[[[",
"[[[[[[[[[[[[[[[[[[[[[[[[[[[[[[[[[XXXXXX[[[[[[[[[[[[[[[[[[[[[[[[[[[[[[[[XXXXX[[[[[[[[[[[[[[[[[[[[[[[[",
"[[[[[[[[[[[[[[[[[[[[[[[[[[[[[[[[[XXXXXX[[[[[[[[[[[[[[[[[[[[[[[[[[[[[[[[XXXXX[[[[[[[[[[[[[[[[[[[[[[[[",
"[[[[[[[[[[[[[[[[[[[[[[[[[[[[[[[[[XXXXXX[[[[[[[[[[[[[[[[[[[[[[[[[[[[[[[[XXXX[[[[[[[[[[[[[[[[[[[[[[[[[",
"[[[[[[[[[[[[[[[[[[[[[[[[[[[[[[[[[[[[[[[[[[[[[[[[[[[[[[[[[[[[[[[[[[[[[[[[[[[[[[[[[[[[[[[[[[[[[[[[[[[[",
"[[[[[[[[[[[[[[[[[[[[[[[[[[[[[[[[[[[[[[[[[[[[[[[[[[[[[[[[[[[[[[[[[[[[[[[[[[[[[[[[[[[[[[[[[[[[[[[[[[[[",
"[[[[[[[[[[[[[[[[[[[[[[[[[[[[[[[[[[[[[[[[[[[[[[[[[[[[[[[[[[[[[[[[[[[[[[[[[[[[[[[[[[[[[[[[[[[[[[[[[[[[",
"[[[[[[[[[[[[[[[[[[[[[[[[[[[[[[[[[[[[[[[[[[[[[[[[[[[[[[[[[[[[[[[[[[[[[[[[[[[[[[[[[[[[[[[[[[[[[[[[[[[[",
"[[[[[[[[[[[[[[[[[[[[[[[[[[[[[[[[[[[[[[[[[[[[[[[[[[[[[[[[[[[[[[[[[[[[[[[[[[[[[[[[[[[[[[[[[[[[[[[[[[[[",
"[[[[[[[[[[[[[[[[[[[[[[[[[[[[[[[[[[[[[[[[[[[[[[[[[[[[[[[[[[[[[[[[[[[[[[[[[[[[[[[[[[[[[[[[[[[[[[[[[[[[",
"[[[[[[[[[[[[[[[[[[[[[[[[[[[[[[[[[[[[[[[[[[[[[[[[[[[[[[[[[[[[[[[[[[[[[[[[[[[[[[[[[[[[[[[[[[[[[[[[[[[["
};
