/* XPM */
static char *result[] = {
/* columns rows colors chars-per-pixel */
"100 100 80 1 ",
"  c #1E100E",
". c #1F100E",
"X c #0F0F18",
"o c #0C0E1A",
"O c #170F13",
"+ c #100E17",
"@ c #150E15",
"# c #190F12",
"$ c #191011",
"% c #1D1213",
"& c #1B1215",
"* c #20100C",
"= c #20110C",
"- c #20110D",
"; c #21110D",
": c #22100D",
"> c #271610",
", c #2A1812",
"< c #2B1912",
"1 c #2D1A13",
"2 c #301C15",
"3 c #321F16",
"4 c #331F16",
"5 c #362218",
"6 c #382319",
"7 c #3C261B",
"8 c #3D261B",
"9 c #402A1D",
"0 c #442C1F",
"q c #473020",
"w c #493021",
"e c #4A3122",
"r c #4B3222",
"t c #4E3424",
"y c #4F3524",
"u c #4F3525",
"i c #503625",
"p c #553A27",
"a c #553A28",
"s c #563A28",
"d c #593D29",
"f c #5A3D2A",
"g c #5E402C",
"h c #62442E",
"j c #63452F",
"k c #654630",
"l c #674930",
"z c #6A4B33",
"x c #6B4C33",
"c c #6C4C33",
"v c #6B4D34",
"b c #6F4F37",
"n c #704F36",
"m c #705037",
"M c #705038",
"N c #755338",
"B c #77553C",
"V c #7A573C",
"C c #7F5C40",
"Z c #7E5D45",
"A c #825D42",
"S c #815E45",
"D c #846044",
"F c #846146",
"G c #866346",
"H c #846248",
"J c #876448",
"K c #8B664A",
"L c #8C664A",
"P c #8E694C",
"I c #8E694D",
"U c #8D694F",
"Y c #906B4E",
"T c #936D50",
"R c #936E51",
"E c #987154",
"W c #987254",
"Q c #9B7456",
"! c #9D7658",
"~ c None",
/* pixels */
"~~~~~~~~~~~~~~~~~~~~~~~~~~~~~~~~~~~~~~~~~~~~~~~~~~~~~~~~~~~~~~~~~~~~~~~~~~~~~~~~~~~~~~~~~~~~~~~~~~~~",
"~~~~~~~~~~~~~~~~~~~~~~~~~~~~~~~~;;;;;;;;;;;;;;;;;;;;;;;;;;;;;;;;;;;;;;;;;;;~~~~~~~~~~~~~~~~~~~~~~~~~",
"~~~~~~~~~~~~~~~~~~~~~~~~~~~~~~~~;;;;;;;;;;;;;;;;;;;;;;;;;;;;;;;;;;;;;;;;;;;~~~~~~~~~~~~~~~~~~~~~~~~~",
"~~~~~~~~~~~~~~~~~~~~~~~~~~~~~~~~;;;;;;;;;;;;;;;;;;;;;;;;;;;;;;;;;;;;;;;;;;;~~~~~~~~~~~~~~~~~~~~~~~~~",
"~~~~~~~~~~~~~~~~~~~~~~~~~~~~~~~~;;;;;;;;;;;;;;;;;;;;;;;;;;;;;;;;;;;;;;;;;;;~~~~~~~~~~~~~~~~~~~~~~~~~",
"~~~~~~~~~~~~~~~~~~~~~~~~~~~~~~~~;;;;;;;;;;;;;;;;;;;;;;;;;;;;;;;;;;;;;;;;;;;~~~~~~~~~~~~~~~~~~~~~~~~~",
"~~~~~~~~~~~~~~~~~~~~~~~~~~~~~~~~;;;;;;;;;;;;;;;;;;;;;;;;;;;;;;;;;;;;;;;;;;;~~~~~~~~~~~~~~~~~~~~~~~~~",
"~~~~~~~~~~~~~~~~~~~~~~~~~~;;;;;<NNNNNNE!!!!!!!!!!!!!!!!!!!!!!!!!!!!!!VNNNNN5;;;;;*~~~~~~~~~~~~~~~~~~",
"~~~~~~~~~~~~~~~~~~~~~~~~~~;;;;;<NNNNNNE!!!!!!!!!!!!!!!!!!!!!!!!!!!!!!VNNNNN5;;;;;*~~~~~~~~~~~~~~~~~~",
"~~~~~~~~~~~~~~~~~~~~~~~~~~;;;;;<NNNNNNE!!!!!!!!!!!!!!!!!!!!!!!!!!!!!!VNNNNN5;;;;;*~~~~~~~~~~~~~~~~~~",
"~~~~~~~~~~~~~~~~~~~~~~~~~~;;;;;<NNNNNNE!!!!!!!!!!!!!!!!!!!!!!!!!!!!!!VNNNNN5;;;;;*~~~~~~~~~~~~~~~~~~",
"~~~~~~~~~~~~~~~~~~~~~~~~~~;;;;;<NNNNNNE!!!!!!!!!!!!!!!!!!!!!!!!!!!!!!VNNNNN5;;;;;*~~~~~~~~~~~~~~~~~~",
"~~~~~~~~~~~~~~~~~~~~~~~~~~;;;;;<NNNNNNE!!!!!!!!!!!!!!!!!!!!!!!!!!!!!!VNNNNN5;;;;;*~~~~~~~~~~~~~~~~~~",
"~~~~~~~~~~~~~~~~~~~~;;;;;8zzzzzbEEEEEE!!!!!!AVVVVVVVVVVVVVVVVVC!!!!!!EEEEEEBzzzzzq;;;;;:~~~~~~~~~~~~",
"~~~~~~~~~~~~~~~~~~~*;;;;;9NNNNNV!!!!!!!!!!!!CNNNNNNNNNNNNNNNNNV!!!!!!!!!!!!CNNNNNr;;;;;=~~~~~~~~~~~~",
"~~~~~~~~~~~~~~~~~~~*;;;;;9NNNNNV!!!!!!!!!!!!CNNNNNNNNNNNNNNNNNV!!!!!!!!!!!!CNNNNNr;;;;;=~~~~~~~~~~~~",
"~~~~~~~~~~~~~~~~~~~*;;;;;9NNNNNV!!!!!!!!!!!!CNNNNNNNNNNNNNNNNNV!!!!!!!!!!!!CNNNNNr;;;;;=~~~~~~~~~~~~",
"~~~~~~~~~~~~~~~~~~~*;;;;;9NNNNNV!!!!!!!!!!!!CNNNNNNNNNNNNNNNNNV!!!!!!!!!!!!CNNNNNr;;;;;=~~~~~~~~~~~~",
"~~~~~~~~~~~~~~~~~~~*;;;;;9NNNNNV!!!!!!!!!!!!CNNNNNNNNNNNNNNNNNV!!!!!!!!!!!!CNNNNNr;;;;;=~~~~~~~~~~~~",
"~~~~~~~~~~~~~~~~~~~*;;;;;9NNNNNV!!!!!!!!!!!!CNNNNNNNNNNNNNNNNNV!!!!!!!!!!!!CNNNNNr;;;;;=~~~~~~~~~~~~",
"~~~~~~~~~~~~~~~~~~~*;;;;;9NNNNNV!!!!!!!!!!!!CNNNNNNNNNNNNNNNNNV!!!!!!!!!!!!CNNNNNr;;;;;=~~~~~~~~~~~~",
"~~~~~~~~~~~~~~~~~~~*;;;;;9NNNNNV!!!!!!!!!!!!CNNNNNNNNNNNNNNNNNV!!!!!!!!!!!!CNNNNNr;;;;;=~~~~~~~~~~~~",
"~~~~~~~~~~~~~~~~~~~*;;;;;9NNNNNV!!!!!!!!!!!!CNNNNNNNNNNNNNNNNNV!!!!!!!!!!!!CNNNNNr;;;;;=~~~~~~~~~~~~",
"~~~~~~~~~~~~~~~~~~~*;;;;;9NNNNNV!!!!!!!!!!!!CNNNNNNNNNNNNNNNNNV!!!!!!!!!!!!CNNNNNr;;;;;=~~~~~~~~~~~~",
"~~~~~~~~~~~~~~~~~~~*;;;;;9NNNNNV!!!!!!!!!!!!CNNNNNNNNNNNNNNNNNV!!!!!!!!!!!!CNNNNNr;;;;;=~~~~~~~~~~~~",
"~~~~~~~~~~~~~~~~~~~*;;;;;7lllllvPPPPPPQ!!!!!KDDDDDDDDDDDDDDDDDG!!!!!!YPPPPPMlllll0;;;;;=~~~~~~~~~~~~",
"~~~~~~~~~~~~~~~~~~~*;;;;;3iiiiipNNNNNNE!!!!!!!!!!!!!!!!!!!!!!!!!!!!!!VNNNNNdiiiii6;;;;;=~~~~~~~~~~~~",
"~~~~~~~~~~~~~~~~~~~*;;;;;3iiiiipNNNNNNE!!!!!!!!!!!!!!!!!!!!!!!!!!!!!!VNNNNNdiiiii6;;;;;=~~~~~~~~~~~~",
"~~~~~~~~~~~~~~~~~~~*;;;;;3iiiiipNNNNNNE!!!!!!!!!!!!!!!!!!!!!!!!!!!!!!VNNNNNdiiiii6;;;;;=~~~~~~~~~~~~",
"~~~~~~~~~~~~~~~~~~~*;;;;;3iiiiipNNNNNNE!!!!!!!!!!!!!!!!!!!!!!!!!!!!!!VNNNNNdiiiii6;;;;;=~~~~~~~~~~~~",
"~~~~~~~~~~~~~~~~~~~*;;;;;3iiiiipNNNNNNE!!!!!!!!!!!!!!!!!!!!!!!!!!!!!!VNNNNNdiiiii6;;;;;=~~~~~~~~~~~~",
"~~~~~~~~~~~~~~~~~~~*;;;;;200000wxxxxxxITTTTTTTTTTTTTTTTTTTTTTTTTTTTTTmxxxxxt000004;;;;;=~~~~~~~~~~~~",
"~~~~~~~~~~~~~~~~~~~*;;;;;;;;;;;>iiiiiinNNNNNNNNNNNNNNNNNNNNNNNNNNNNNNpiiiii1;;;;;;;;;;;=~~~~~~~~~~~~",
"~~~~~~~~~~~~~~~~~~~*;;;;;;;;;;;>iiiiiinNNNNNNNNNNNNNNNNNNNNNNNNNNNNNNpiiiii1;;;;;;;;;;;=~~~~~~~~~~~~",
"~~~~~~~~~~~~~~~~~~~*;;;;;;;;;;;>iiiiiinNNNNNNNNNNNNNNNNNNNNNNNNNNNNNNpiiiii1;;;;;;;;;;;=~~~~~~~~~~~~",
"~~~~~~~~~~~~~~~~~~~*;;;;;;;;;;;>iiiiiinNNNNNNNNNNNNNNNNNNNNNNNNNNNNNNpiiiii1;;;;;;;;;;;=~~~~~~~~~~~~",
"~~~~~~~~~~~~~~~~~~~*;;;;;;;;;;;>iiiiiinNNNNNNNNNNNNNNNNNNNNNNNNNNNNNNpiiiii1;;;;;;;;;;;=~~~~~~~~~~~~",
"~~~~~~~~~~~~~~~~~~~*;;;;;;;;;;;>iiiiiinNNNNNNNNNNNNNNNNNNNNNNNNNNNNNNpiiiii1;;;;;;;;;;;=~~~~~~~~~~~~",
"~~~~~~~~~~~~~~~~~~~~~~~~~~;;;;;;;;;;;;;;;;;;;;;;;;;;;;;;;;;;;;;;;;;;;;;;;;;;;;;;;*~~~~~~~~~~~~~~~~~~",
"~~~~~~~~~~~~~~~~~~~~~~~~~~;;;;;;;;;;;;;;;;;;;;;;;;;;;;;;;;;;;;;;;;;;;;;;;;;;;;;;;*~~~~~~~~~~~~~~~~~~",
"~~~~~~~~~~~~~~~~~~~~~~~~~~;;;;;;;;;;;;;;;;;;;;;;;;;;;;;;;;;;;;;;;;;;;;;;;;;;;;;;;*~~~~~~~~~~~~~~~~~~",
"~~~~~~~~~~~~~~~~~~~~~~~~~~;;;;;;;;;;;;;;;;;;;;;;;;;;;;;;;;;;;;;;;;;;;;;;;;;;;;;;;*~~~~~~~~~~~~~~~~~~",
"~~~~~~~~~~~~~~~~~~~~~~~~~~;;;;;;;;;;;;;;;;;;;;;;;;;;;;;;;;;;;;;;;;;;;;;;;;;;;;;;;*~~~~~~~~~~~~~~~~~~",
"~~~~~~~~~~~~~~~~~~~~~~~~~~;;;;;;;;;;;;;;;;;;;;;;;;;;;;;;;;;;;;;;;;;;;;;;;;;;;;;;;*~~~~~~~~~~~~~~~~~~",
"~~~~~~~~~~~~~~~~~~~~~~~~~~;;;;;>eeeeeeeeeeeejzzzzzfeeeeeazzzzzzzzzzzzyeeeee,;;;;;*~~~~~~~~~~~~~~~~~~",
"~~~~~~~~~~~~~~~~~~~~~~~~~~;;;;;>iiiiiiiiiiiicNNNNNhiiiiigNNNNNNNNNNNNpiiiii1;;;;;*~~~~~~~~~~~~~~~~~~",
"~~~~~~~~~~~~~~~~~~~~~~~~~~;;;;;>iiiiiiiiiiiicNNNNNhiiiiigNNNNNNNNNNNNpiiiii1;;;;;*~~~~~~~~~~~~~~~~~~",
"~~~~~~~~~~~~~~~~~~~~~~~~~~;;;;;>iiiiiiiiiiiicNNNNNhiiiiigNNNNNNNNNNNNpiiiii1;;;;;*~~~~~~~~~~~~~~~~~~",
"~~~~~~~~~~~~~~~~~~~~~~~~~~;;;;;>iiiiiiiiiiiicNNNNNhiiiiigNNNNNNNNNNNNpiiiii1;;;;;*~~~~~~~~~~~~~~~~~~",
"~~~~~~~~~~~~~~~~~~~~~~~~~~;;;;;>iiiiiiiiiiiicNNNNNhiiiiigNNNNNNNNNNNNpiiiii1;;;;;*~~~~~~~~~~~~~~~~~~",
"~~~~~~~~~~~~~~~~~~~~~~~~~~;;;;;>iiiiiiklllllFPPPPPJSSSSSHPPPPPLNNNNNNpiiiii1;;;;;*~~~~~~~~~~~~~~~~~~",
"~~~~~~~~~~~~~~~~~~~~~~~~~~;;;;;>iiiiiinNNNNNT!!!!!!!!!!!!!!!!!WNNNNNNpiiiii1;;;;;*~~~~~~~~~~~~~~~~~~",
"~~~~~~~~~~~~~~~~~~~~~~~~~~;;;;;>iiiiiinNNNNNT!!!!!!!!!!!!!!!!!WNNNNNNpiiiii1;;;;;*~~~~~~~~~~~~~~~~~~",
"~~~~~~~~~~~~~~~~~~~~~~~~~~;;;;;>iiiiiinNNNNNT!!!!!!!!!!!!!!!!!WNNNNNNpiiiii1;;;;;*~~~~~~~~~~~~~~~~~~",
"~~~~~~~~~~~~~~~~~~~~~~~~~~;;;;;>iiiiiinNNNNNT!!!!!!!!!!!!!!!!!WNNNNNNpiiiii1;;;;;*~~~~~~~~~~~~~~~~~~",
"~~~~~~~~~~~~~~~~~~~~~~~~~~;;;;;>iiiiiinNNNNNT!!!!!!!!!!!!!!!!!WNNNNNNpiiiii1;;;;;*~~~~~~~~~~~~~~~~~~",
"~~~~~~~~~~~~~~~~~~~~~~~~~~;;;;;>iiiiiispppppI!!!!!!!!!!!!!!!!!Rppppppuiiiii1;;;;;*~~~~~~~~~~~~~~~~~~",
"~~~~~~~~~~~~~~~~~~~~~~~~~~;;;;;>iiiiii>;;;;;Z!!!!!!!!!!!!!!!!!U;;;;;;eiiiii1;;;;;*~~~~~~~~~~~~~~~~~~",
"~~~~~~~~~~~~~~~~~~~~~~~~~~;;;;;>iiiiii>;;;;;Z!!!!!!!!!!!!!!!!!U;;;;;;eiiiii1;;;;;*~~~~~~~~~~~~~~~~~~",
"~~~~~~~~~~~~~~~~~~~~~~~~~~;;;;;>iiiiii>;;;;;Z!!!!!!!!!!!!!!!!!U;;;;;;eiiiii1;;;;;*~~~~~~~~~~~~~~~~~~",
"~~~~~~~~~~~~~~~~~~~~~~~~~~;;;;;>iiiiii>;;;;;Z!!!!!!!!!!!!!!!!!U;;;;;;eiiiii1;;;;;*~~~~~~~~~~~~~~~~~~",
"~~~~~~~~~~~~~~~~~~~~~~~~~~;;;;;>iiiiii>;;;;;Z!!!!!!!!!!!!!!!!!U;;;;;;eiiiii1;;;;;*~~~~~~~~~~~~~~~~~~",
"~~~~~~~~~~~~~~~~~~~~~~~~~~;;;;;>iiiiii>;;;;;Z!!!!!!!!!!!!!!!!!U;;;;;;eiiiii1;;;;; ~~~~~~~~~~~~~~~~~~",
"~~~~~~~~~~~~~~~~~~~~oooooO;;;;;>iiiiii>;;;;;Z!!!!!!!!!!!!!!!!!U;;;;;;eiiiii1;;;;;$ooooo~~~~~~~~~~~~~",
"~~~~~~~~~~~~~~~~~~~~oooooO;;;;;>iiiiii>;;;;;Z!!!!!!!!!!!!!!!!!U;;;;;;eiiiii1;;;;;$ooooo~~~~~~~~~~~~~",
"~~~~~~~~~~~~~~~~~~~~oooooO;;;;;>iiiiii>;;;;;Z!!!!!!!!!!!!!!!!!U;;;;;;eiiiii1;;;;;$ooooo~~~~~~~~~~~~~",
"~~~~~~~~~~~~~~~~~~~~oooooO;;;;;>iiiiii>;;;;;Z!!!!!!!!!!!!!!!!!U;;;;;;eiiiii1;;;;;$ooooo~~~~~~~~~~~~~",
"~~~~~~~~~~~~~~~~~~~~oooooO;;;;;>iiiiii>;;;;;Z!!!!!!!!!!!!!!!!!U;;;;;;eiiiii1;;;;;$ooooo~~~~~~~~~~~~~",
"~~~~~~~~~~~~~~~~~~~~oooooO;;;;;>iiiiii>;;;;;Z!!!!!!!!!!!!!!!!!U;;;;;;eiiiii1;;;;;$ooooo~~~~~~~~~~~~~",
"~~~~~~~~~~~~~~~~~~~~oooooO;;;;;>iiiiii>;;;;;Z!!!!!!!!!!!!!!!!!U;;;;;;eiiiii1;;;;;$ooooo~~~~~~~~~~~~~",
"~~~~~~~~~~~~~~~~~~~~oooooO;;;;;>iiiiii>;;;;;Z!!!!!!!!!!!!!!!!!U;;;;;;eiiiii1;;;;;$ooooo~~~~~~~~~~~~~",
"~~~~~~~~~~~~~~~~~~~~oooooO;;;;;>iiiiii>;;;;;Z!!!!!!!!!!!!!!!!!U;;;;;;eiiiii1;;;;;$ooooo~~~~~~~~~~~~~",
"~~~~~~~~~~~~~~~~~~~~oooooO;;;;;>iiiiii>;;;;;Z!!!!!!!!!!!!!!!!!U;;;;;;eiiiii1;;;;;$ooooo~~~~~~~~~~~~~",
"~~~~~~~~~~~~~~~~~~~~oooooO;;;;;>iiiiii>;;;;;Z!!!!!!!!!!!!!!!!!U;;;;;;eiiiii1;;;;;$ooooo~~~~~~~~~~~~~",
"~~~~~~~~~~~~~~~~~~~~oooooO;;;;;>iiiiii>;;;;;Z!!!!!!!!!!!!!!!!!U;;;;;;eiiiii1;;;;;$ooooo~~~~~~~~~~~~~",
"~~~~~~~~~~~~~~~~~~~~ooooo+@@@@@&111111;;;;;;Z!!!!!!!!!!!!!!!!!U;;;;;;111111%@@@@@+ooooo~~~~~~~~~~~~~",
"~~~~~~~~~~~~~~ooooooooooooooooo+;;;;;;;;;;;;Z!!!!!!!!!!!!!!!!!U;;;;;;;;;;;;@ooooooooooooooooo~~~~~~~",
"~~~~~~~~~~~~~~ooooooooooooooooo+;;;;;;;;;;;;Z!!!!!!!!!!!!!!!!!U;;;;;;;;;;;;@ooooooooooooooooo~~~~~~~",
"~~~~~~~~~~~~~~ooooooooooooooooo+;;;;;;;;;;;;Z!!!!!!!!!!!!!!!!!U;;;;;;;;;;;;@ooooooooooooooooo~~~~~~~",
"~~~~~~~~~~~~~~ooooooooooooooooo+;;;;;;;;;;;;Z!!!!!!!!!!!!!!!!!U;;;;;;;;;;;;@ooooooooooooooooo~~~~~~~",
"~~~~~~~~~~~~~~ooooooooooooooooo+;;;;;;;;;;;;Z!!!!!!!!!!!!!!!!!U;;;;;;;;;;;;@ooooooooooooooooo~~~~~~~",
"~~~~~~~~~~~~~~~~~~~~~~~~~~oooooXOOOOOO;;;;;;Z!!!!!!!!!!!!!!!!!U;;;;;;#OOOOO+ooooo~~~~~~~~~~~~~~~~~~~",
"~~~~~~~~~~~~~~~~~~~~~~~~~~oooooooooooo.;;;;;Z!!!!!!!!!!!!!!!!!U;;;;;;+ooooooooooo~~~~~~~~~~~~~~~~~~~",
"~~~~~~~~~~~~~~~~~~~~~~~~~~oooooooooooo.;;;;;Z!!!!!!!!!!!!!!!!!U;;;;;;+ooooooooooo~~~~~~~~~~~~~~~~~~~",
"~~~~~~~~~~~~~~~~~~~~~~~~~~oooooooooooo.;;;;;Z!!!!!!!!!!!!!!!!!U;;;;;;+ooooooooooo~~~~~~~~~~~~~~~~~~~",
"~~~~~~~~~~~~~~~~~~~~~~~~~~oooooooooooo.;;;;;Z!!!!!!!!!!!!!!!!!U;;;;;;+ooooooooooo~~~~~~~~~~~~~~~~~~~",
"~~~~~~~~~~~~~~~~~~~~~~~~~~oooooooooooo.;;;;;Z!!!!!!!!!!!!!!!!!U;;;;;;+ooooooooooo~~~~~~~~~~~~~~~~~~~",
"~~~~~~~~~~~~~~~~~~~~~~~~~~~~~~~~oooooo.;;;;;Z!!!!!!!!!!!!!!!!!U;;;;;;+ooooo~~~~~~~~~~~~~~~~~~~~~~~~~",
"~~~~~~~~~~~~~~~~~~~~~~~~~~~~~~~~oooooo.;;;;;Z!!!!!!!!!!!!!!!!!U;;;;;;+ooooo~~~~~~~~~~~~~~~~~~~~~~~~~",
"~~~~~~~~~~~~~~~~~~~~~~~~~~~~~~~~oooooo.;;;;;Z!!!!!!!!!!!!!!!!!U;;;;;;+ooooo~~~~~~~~~~~~~~~~~~~~~~~~~",
"~~~~~~~~~~~~~~~~~~~~~~~~~~~~~~~~oooooo.;;;;;Z!!!!!!!!!!!!!!!!!U;;;;;;+ooooo~~~~~~~~~~~~~~~~~~~~~~~~~",
"~~~~~~~~~~~~~~~~~~~~~~~~~~~~~~~~oooooo.;;;;;Z!!!!!!!!!!!!!!!!!U;;;;;;+ooooo~~~~~~~~~~~~~~~~~~~~~~~~~",
"~~~~~~~~~~~~~~~~~~~~~~~~~~~~~~~~oooooo.;;;;;Z!!!!!!!!!!!!!!!!!U;;;;;;+ooooo~~~~~~~~~~~~~~~~~~~~~~~~~",
"~~~~~~~~~~~~~~~~~~~~~~~~~~~~~~~~~~~~~~-;;;;;Z!!!!!!!!!!!!!!!!!U;;;;;;~~~~~~~~~~~~~~~~~~~~~~~~~~~~~~~",
"~~~~~~~~~~~~~~~~~~~~~~~~~~~~~~~~~~~~~~;;;;;;Z!!!!!!!!!!!!!!!!!U;;;;;;~~~~~~~~~~~~~~~~~~~~~~~~~~~~~~~",
"~~~~~~~~~~~~~~~~~~~~~~~~~~~~~~~~~~~~~~;;;;;;Z!!!!!!!!!!!!!!!!!U;;;;;;~~~~~~~~~~~~~~~~~~~~~~~~~~~~~~~",
"~~~~~~~~~~~~~~~~~~~~~~~~~~~~~~~~~~~~~~;;;;;;Z!!!!!!!!!!!!!!!!!U;;;;;;~~~~~~~~~~~~~~~~~~~~~~~~~~~~~~~",
"~~~~~~~~~~~~~~~~~~~~~~~~~~~~~~~~~~~~~~;;;;;;Z!!!!!!!!!!!!!!!!!U;;;;;;~~~~~~~~~~~~~~~~~~~~~~~~~~~~~~~",
"~~~~~~~~~~~~~~~~~~~~~~~~~~~~~~~~~~~~~~;;;;;;Z!!!!!!!!!!!!!!!!!U;;;;;;~~~~~~~~~~~~~~~~~~~~~~~~~~~~~~~",
"~~~~~~~~~~~~~~~~~~~~~~~~~~~~~~~~~~~~~~;;;;;;Z!!!!!!!!!!!!!!!!!U;;;;;;~~~~~~~~~~~~~~~~~~~~~~~~~~~~~~~"
};
