/* XPM */
static char *result[] = {
/* columns rows colors chars-per-pixel */
"100 100 87 1 ",
"  c #1C0F0F",
". c #1E110F",
"X c #1F110F",
"o c #0D0F18",
"O c #0C0E1A",
"+ c #170F13",
"@ c #120E17",
"# c #190F12",
"$ c #1A1111",
"% c #1C1010",
"& c #20100C",
"* c #20100D",
"= c #21100D",
"- c #21110D",
"; c #22100D",
": c #22120C",
"> c #20110E",
", c #21110E",
"< c #24130E",
"1 c #261610",
"2 c #291811",
"3 c #2C1912",
"4 c #2F1C13",
"5 c #2F1C14",
"6 c #301E16",
"7 c #321F16",
"8 c #362218",
"9 c #382319",
"0 c #392319",
"q c #38241A",
"w c #38241B",
"e c #3E281C",
"r c #3E281E",
"t c #402A1D",
"y c #442C1F",
"u c #442D1F",
"i c #402A20",
"p c #402B20",
"a c #482F20",
"s c #493021",
"d c #4A3122",
"f c #4E3424",
"g c #4F3625",
"h c #503625",
"j c #523827",
"k c #553A27",
"l c #503629",
"z c #553A28",
"x c #593D2A",
"c c #5B3F2B",
"v c #5A3E2D",
"b c #5D402B",
"n c #5D402D",
"m c #5E402C",
"M c #5F4332",
"N c #60422D",
"B c #62442E",
"V c #644734",
"C c #674830",
"Z c #674831",
"A c #6A4B33",
"S c #6C4C33",
"D c #704F36",
"F c #715038",
"G c #755338",
"H c #75543B",
"J c #7A573C",
"K c #7B583D",
"L c #7A593E",
"P c #7F5C40",
"I c #7F5C41",
"U c #7E5D45",
"Y c #825D42",
"T c #846044",
"R c #876346",
"E c #896448",
"W c #8E694C",
"Q c #906B4E",
"! c #936D50",
"~ c #936E51",
"^ c #957053",
"/ c #987154",
"( c #987254",
") c #9A7456",
"_ c #9B7456",
"` c #9D7658",
"' c None",
/* pixels */
"''''''''''''''''''''''''''''''''''&&&&&=-----6MMMMMMMMMMMMMMMMMMw-----,&&&&&''''''''''''''''''''''''",
"'''''''''''''''''''''''''''''''''*-------------------------------------------'''''''''''''''''''''''",
"'''''''''''''''''''''''''''''''''*-------------------------------------------'''''''''''''''''''''''",
"'''''''''''''''''''''''''''''''''*-------------------------------------------'''''''''''''''''''''''",
"'''''''''''''''''''''''''''''''''*-------------------------------------------'''''''''''''''''''''''",
"'''''''''''''''''''''''''''''''''*-------------------------------------------'''''''''''''''''''''''",
"'''''''''''''''''''''''''''''''''488888qiiiiiiiiiiiiiiiiiiiiiiiiiiiiiir888880'''''''''''''''''''''''",
"'''''''''''''''''''''''''''=-----zGGGGGT``````````````````````````````WGGGGGA------'''''''''''''''''",
"'''''''''''''''''''''''''''=-----zGGGGGT``````````````````````````````WGGGGGA------'''''''''''''''''",
"'''''''''''''''''''''''''''=-----zGGGGGT``````````````````````````````WGGGGGA------'''''''''''''''''",
"'''''''''''''''''''''''''''=-----zGGGGGT``````````````````````````````WGGGGGA------'''''''''''''''''",
"'''''''''''''''''''''''''''=-----zGGGGGT``````````````````````````````WGGGGGA------'''''''''''''''''",
"'''''''''''''''''''''''''''533333nJJJJJR`````_//////////////////_`````QJJJJJD333333'''''''''''''''''",
"'''''''''''''''''''''------NGGGGGW```````````!GGGGGGGGGGGGGGGGGGW```````````(GGGGGG------'''''''''''",
"'''''''''''''''''''''------NGGGGGW```````````!GGGGGGGGGGGGGGGGGGW```````````(GGGGGG------'''''''''''",
"'''''''''''''''''''''------NGGGGGW```````````!GGGGGGGGGGGGGGGGGGW```````````(GGGGGG------'''''''''''",
"'''''''''''''''''''''------NGGGGGW```````````!GGGGGGGGGGGGGGGGGGW```````````(GGGGGG------'''''''''''",
"'''''''''''''''''''''------NGGGGGW```````````!GGGGGGGGGGGGGGGGGGW```````````(GGGGGG------'''''''''''",
"'''''''''''''''''''''------NGGGGGW```````````!GGGGGGGGGGGGGGGGGGW```````````(GGGGGG------'''''''''''",
"'''''''''''''''''''''------NGGGGGW```````````!GGGGGGGGGGGGGGGGGGW```````````(GGGGGG------'''''''''''",
"'''''''''''''''''''''------NGGGGGW```````````!GGGGGGGGGGGGGGGGGGW```````````(GGGGGG------'''''''''''",
"'''''''''''''''''''''------NGGGGGW```````````!GGGGGGGGGGGGGGGGGGW```````````(GGGGGG------'''''''''''",
"'''''''''''''''''''''------NGGGGGW```````````!GGGGGGGGGGGGGGGGGGW```````````(GGGGGG------'''''''''''",
"'''''''''''''''''''''------NGGGGGW```````````!GGGGGGGGGGGGGGGGGGW```````````(GGGGGG------'''''''''''",
"'''''''''''''''''''''------NGGGGGW```````````!GGGGGGGGGGGGGGGGGGW```````````(GGGGGG------'''''''''''",
"'''''''''''''''''''''------fmmmmmHTTTTTW`````)WWWWWWWWWWWWWWWWWW/`````!TTTTTImmmmmm------'''''''''''",
"'''''''''''''''''''''------uhhhhhZGGGGGT``````````````````````````````WGGGGGDhhhhhh------'''''''''''",
"'''''''''''''''''''''------uhhhhhZGGGGGT``````````````````````````````WGGGGGDhhhhhh------'''''''''''",
"'''''''''''''''''''''------uhhhhhZGGGGGT``````````````````````````````WGGGGGDhhhhhh------'''''''''''",
"'''''''''''''''''''''------uhhhhhZGGGGGT``````````````````````````````WGGGGGDhhhhhh------'''''''''''",
"'''''''''''''''''''''------uhhhhhZGGGGGT``````````````````````````````WGGGGGDhhhhhh------'''''''''''",
"'''''''''''''''''''''------799999jBBBBBFEEEEEEEEEEEEEEEEEEEEEEEEEEEEEELBBBBBb999999------'''''''''''",
"'''''''''''''''''''''------------ehhhhhmGGGGGGGGGGGGGGGGGGGGGGGGGGGGGGChhhhhd------------'''''''''''",
"'''''''''''''''''''''------------ehhhhhmGGGGGGGGGGGGGGGGGGGGGGGGGGGGGGChhhhhd------------'''''''''''",
"'''''''''''''''''''''------------ehhhhhmGGGGGGGGGGGGGGGGGGGGGGGGGGGGGGChhhhhd------------'''''''''''",
"'''''''''''''''''''''------------ehhhhhmGGGGGGGGGGGGGGGGGGGGGGGGGGGGGGChhhhhd------------'''''''''''",
"'''''''''''''''''''''------------ehhhhhmGGGGGGGGGGGGGGGGGGGGGGGGGGGGGGChhhhhd------------'''''''''''",
"'''''''''''''''''''''&&&&&&------0yyyyygNNNNNNNNNNNNNNNNNNNNNNNNNNNNNNkyyyyye------&&&&&&'''''''''''",
"'''''''''''''''''''''''''''=-------------------------------------------------------'''''''''''''''''",
"'''''''''''''''''''''''''''=-------------------------------------------------------'''''''''''''''''",
"'''''''''''''''''''''''''''=-------------------------------------------------------'''''''''''''''''",
"'''''''''''''''''''''''''''=-------------------------------------------------------'''''''''''''''''",
"'''''''''''''''''''''''''''=-------------------------------------------------------'''''''''''''''''",
"'''''''''''''''''''''''''''=-----<1111111111123333331111113333333333332111111------'''''''''''''''''",
"'''''''''''''''''''''''''''=-----ehhhhhhhhhhhxGGGGGGhhhhhhSGGGGGGGGGGGChhhhhd------'''''''''''''''''",
"'''''''''''''''''''''''''''=-----ehhhhhhhhhhhxGGGGGGhhhhhhSGGGGGGGGGGGChhhhhd------'''''''''''''''''",
"'''''''''''''''''''''''''''=-----ehhhhhhhhhhhxGGGGGGhhhhhhSGGGGGGGGGGGChhhhhd------'''''''''''''''''",
"'''''''''''''''''''''''''''=-----ehhhhhhhhhhhxGGGGGGhhhhhhSGGGGGGGGGGGChhhhhd------'''''''''''''''''",
"'''''''''''''''''''''''''''=-----ehhhhhhhhhhhxGGGGGGhhhhhhSGGGGGGGGGGGChhhhhd------'''''''''''''''''",
"'''''''''''''''''''''''''''=-----ehhhhhhhhhhhxGGGGGGhhhhhhSGGGGGGGGGGGChhhhhd------'''''''''''''''''",
"'''''''''''''''''''''''''''=-----ehhhhhcDDDDDK//////~~~~~~^/////YGGGGGChhhhhd------'''''''''''''''''",
"'''''''''''''''''''''''''''=-----ehhhhhmGGGGGP``````````````````TGGGGGChhhhhd------'''''''''''''''''",
"'''''''''''''''''''''''''''=-----ehhhhhmGGGGGP``````````````````TGGGGGChhhhhd------'''''''''''''''''",
"'''''''''''''''''''''''''''=-----ehhhhhmGGGGGP``````````````````TGGGGGChhhhhd------'''''''''''''''''",
"'''''''''''''''''''''''''''=-----ehhhhhmGGGGGP``````````````````TGGGGGChhhhhd------'''''''''''''''''",
"'''''''''''''''''''''''''''=-----ehhhhhmGGGGGP``````````````````TGGGGGChhhhhd------'''''''''''''''''",
"'''''''''''''''''''''''''''=-----ehhhhhstttttv``````````````````Vtttttahhhhhd------'''''''''''''''''",
"'''''''''''''''''''''''''''=-----ehhhhhe-----i``````````````````l-----7hhhhhd------'''''''''''''''''",
"'''''''''''''''''''''''''''=-----ehhhhhe-----i``````````````````l-----7hhhhhd------'''''''''''''''''",
"'''''''''''''''''''''''''''=-----ehhhhhe-----i``````````````````l-----7hhhhhd------'''''''''''''''''",
"'''''''''''''''''''''''''''=-----ehhhhhe-----i``````````````````l-----7hhhhhd------'''''''''''''''''",
"'''''''''''''''''''''''''''=-----ehhhhhe-----i``````````````````l-----7hhhhhd------'''''''''''''''''",
"'''''''''''''''''''''''''''>-----ehhhhhe-----i``````````````````l-----7hhhhhd------'''''''''''''''''",
"'''''''''''''''''''''OOOOOO.-----ehhhhhe-----i``````````````````l-----7hhhhhd------OOOOOO'''''''''''",
"'''''''''''''''''''''OOOOOO.-----ehhhhhe-----i``````````````````l-----7hhhhhd------OOOOOO'''''''''''",
"'''''''''''''''''''''OOOOOO.-----ehhhhhe-----i``````````````````l-----7hhhhhd------OOOOOO'''''''''''",
"'''''''''''''''''''''OOOOOO.-----ehhhhhe-----i``````````````````l-----7hhhhhd------OOOOOO'''''''''''",
"'''''''''''''''''''''OOOOOO.-----ehhhhhe-----i``````````````````l-----7hhhhhd------OOOOOO'''''''''''",
"'''''''''''''''''''''OOOOOO.-----ehhhhhe-----i``````````````````l-----7hhhhhd------OOOOOO'''''''''''",
"'''''''''''''''''''''OOOOOO.-----ehhhhhe-----i``````````````````l-----7hhhhhd------OOOOOO'''''''''''",
"'''''''''''''''''''''OOOOOO.-----ehhhhhe-----i``````````````````l-----7hhhhhd------OOOOOO'''''''''''",
"'''''''''''''''''''''OOOOOO.-----ehhhhhe-----i``````````````````l-----7hhhhhd------OOOOOO'''''''''''",
"'''''''''''''''''''''OOOOOO.-----ehhhhhe-----i``````````````````l-----7hhhhhd------OOOOOO'''''''''''",
"'''''''''''''''''''''OOOOOO.-----ehhhhhe-----i``````````````````l-----7hhhhhd------OOOOOO'''''''''''",
"'''''''''''''''''''''OOOOOO.-----ehhhhhe-----i``````````````````l-----7hhhhhd------OOOOOO'''''''''''",
"'''''''''''''''OOOOOOOOOOOOOOOOOO%-----------i``````````````````l----------->OOOOOOOOOOOOOOOOOO'''''",
"'''''''''''''''OOOOOOOOOOOOOOOOOO%-----------i``````````````````l----------->OOOOOOOOOOOOOOOOOO'''''",
"'''''''''''''''OOOOOOOOOOOOOOOOOO%-----------i``````````````````l----------->OOOOOOOOOOOOOOOOOO'''''",
"'''''''''''''''OOOOOOOOOOOOOOOOOO%-----------i``````````````````l----------->OOOOOOOOOOOOOOOOOO'''''",
"'''''''''''''''OOOOOOOOOOOOOOOOOO%-----------i``````````````````l----------->OOOOOOOOOOOOOOOOOO'''''",
"'''''''''''''''OOOOOOOOOOOOOOOOOO%-----------i``````````````````l----------->OOOOOOOOOOOOOOOOO''''''",
"''''''''''''''''''''''''''''OOOOOo@@@@@#-----i``````````````````l----- @@@@@@OOOOOO'''''''''''''''''",
"''''''''''''''''''''''''''''OOOOOOOOOOO+-----i``````````````````l-----%OOOOOOOOOOOO'''''''''''''''''",
"''''''''''''''''''''''''''''OOOOOOOOOOO+-----i``````````````````l-----%OOOOOOOOOOOO'''''''''''''''''",
"''''''''''''''''''''''''''''OOOOOOOOOOO+-----i``````````````````l-----%OOOOOOOOOOOO'''''''''''''''''",
"''''''''''''''''''''''''''''OOOOOOOOOOO+-----i``````````````````l-----%OOOOOOOOOOOO'''''''''''''''''",
"''''''''''''''''''''''''''''OOOOOOOOOOO+-----i``````````````````l-----%OOOOOOOOOOO''''''''''''''''''",
"''''''''''''''''''''''''''''''''''OOOOO+-----i``````````````````l-----%OOOOO''''''''''''''''''''''''",
"''''''''''''''''''''''''''''''''''OOOOO+-----i``````````````````l-----%OOOOO''''''''''''''''''''''''",
"''''''''''''''''''''''''''''''''''OOOOO+-----i``````````````````l-----%OOOOO''''''''''''''''''''''''",
"''''''''''''''''''''''''''''''''''OOOOO+-----i``````````````````l-----%OOOOO''''''''''''''''''''''''",
"''''''''''''''''''''''''''''''''''OOOOO+-----i``````````````````l-----%OOOOO''''''''''''''''''''''''",
"''''''''''''''''''''''''''''''''''OOOOO+-----i``````````````````l-----%OOOOO''''''''''''''''''''''''",
"'''''''''''''''''''''''''''''''''''''''$-----i``````````````````l-----X'''''''''''''''''''''''''''''",
"''''''''''''''''''''''''''''''''''''''''-----i``````````````````l-----;'''''''''''''''''''''''''''''",
"''''''''''''''''''''''''''''''''''''''''-----i``````````````````l-----;'''''''''''''''''''''''''''''",
"''''''''''''''''''''''''''''''''''''''''-----i``````````````````l-----;'''''''''''''''''''''''''''''",
"''''''''''''''''''''''''''''''''''''''''-----i``````````````````l-----;'''''''''''''''''''''''''''''",
"''''''''''''''''''''''''''''''''''''''''-----i``````````````````l-----;'''''''''''''''''''''''''''''",
"''''''''''''''''''''''''''''''''''''''':-----wUUUUUUUUUUUUUUUUUUp------'''''''''''''''''''''''''''''"
};
