/* XPM */
static char *result[] = {
/* columns rows colors chars-per-pixel */
"100 100 88 1 ",
"  c #1C0F0F",
". c #1F100E",
"X c #1F100F",
"o c #1F110F",
"O c #0C0E1A",
"+ c #100E17",
"@ c #1B0F11",
"# c #191011",
"$ c #1C1010",
"% c #20100C",
"& c #20100D",
"* c #21110D",
"= c #22100D",
"- c #24130E",
"; c #261610",
": c #271610",
"> c #291710",
", c #291811",
"< c #2C1912",
"1 c #2C1A13",
"2 c #2D1A13",
"3 c #301C14",
"4 c #321F16",
"5 c #331F16",
"6 c #372317",
"7 c #352118",
"8 c #362219",
"9 c #382319",
"0 c #3D271B",
"q c #3E281C",
"w c #402A1D",
"e c #432C1E",
"r c #442C1F",
"t c #452E1F",
"y c #452E21",
"u c #483021",
"i c #4A3122",
"p c #4B3222",
"a c #4D3423",
"s c #483025",
"d c #4A3325",
"f c #4F3629",
"g c #503625",
"h c #513725",
"j c #523826",
"k c #523827",
"l c #533827",
"z c #553927",
"x c #553A27",
"c c #553A28",
"v c #573C28",
"b c #593D2A",
"n c #5D412C",
"m c #5E402C",
"M c #62442E",
"N c #62452E",
"B c #654731",
"V c #674830",
"C c #674930",
"Z c #674831",
"A c #6A4A32",
"S c #6A4B33",
"D c #6B4C33",
"F c #6D4D34",
"G c #6C4D35",
"H c #704F36",
"J c #705036",
"K c #735137",
"L c #755338",
"P c #7A573C",
"I c #7A593E",
"U c #7F5C40",
"Y c #815E42",
"T c #846044",
"R c #866246",
"E c #836248",
"W c #896448",
"Q c #8D694E",
"! c #936D50",
"~ c #936E51",
"^ c #956F52",
"/ c #956F53",
"( c #966F52",
") c #987154",
"_ c #987254",
"` c #9B7456",
"' c #9D7658",
"] c None",
/* pixels */
"]]]]]]]]]]]]]]]]]]]]]]]]]]]]]]]]===========================================]]]]]]]]]]]]]]]]]]]]]]]]]",
"]]]]]]]]]]]]]]]]]]]]]]]]]]]]]]]%*******************************************]]]]]]]]]]]]]]]]]]]]]]]]]",
"]]]]]]]]]]]]]]]]]]]]]]]]]]]]]]]%*******************************************]]]]]]]]]]]]]]]]]]]]]]]]]",
"]]]]]]]]]]]]]]]]]]]]]]]]]]]]]]]%*******************************************]]]]]]]]]]]]]]]]]]]]]]]]]",
"]]]]]]]]]]]]]]]]]]]]]]]]]]]]]]]%*******************************************]]]]]]]]]]]]]]]]]]]]]]]]]",
"]]]]]]]]]]]]]]]]]]]]]]]]]]]]]]]%*******************************************]]]]]]]]]]]]]]]]]]]]]]]]]",
"]]]]]]]]]]]]]]]]]]]]]]]]]]]]]]]6wwwwwyffffffffffffffffffffffffffffffdwwwwww]]]]]]]]]]]]]]]]]]]]]]]]]",
"]]]]]]]]]]]]]]]]]]]]]]]]]&*****pLLLLLU''''''''''''''''''''''''''''''!LLLLLL******]]]]]]]]]]]]]]]]]]]",
"]]]]]]]]]]]]]]]]]]]]]]]]]&*****pLLLLLU''''''''''''''''''''''''''''''!LLLLLL******]]]]]]]]]]]]]]]]]]]",
"]]]]]]]]]]]]]]]]]]]]]]]]]&*****pLLLLLU''''''''''''''''''''''''''''''!LLLLLL******]]]]]]]]]]]]]]]]]]]",
"]]]]]]]]]]]]]]]]]]]]]]]]]&*****pLLLLLU''''''''''''''''''''''''''''''!LLLLLL******]]]]]]]]]]]]]]]]]]]",
"]]]]]]]]]]]]]]]]]]]]]]]]]&*****pLLLLLU''''''''''''''''''''''''''''''!LLLLLL******]]]]]]]]]]]]]]]]]]]",
"]]]]]]]]]]]]]]]]]]]]]]]]]><<<<<kPPPPPY''''''))))))))))))))))))`'''''(PPPPPP<<<<<<]]]]]]]]]]]]]]]]]]]",
"]]]]]]]]]]]]]]]]]]]******cLLLLLW''''''''''''LLLLLLLLLLLLLLLLLLT''''''''''''LLLLLL<*****]]]]]]]]]]]]]",
"]]]]]]]]]]]]]]]]]]]******cLLLLLW''''''''''''LLLLLLLLLLLLLLLLLLT''''''''''''LLLLLL<*****]]]]]]]]]]]]]",
"]]]]]]]]]]]]]]]]]]]******cLLLLLW''''''''''''LLLLLLLLLLLLLLLLLLT''''''''''''LLLLLL<*****]]]]]]]]]]]]]",
"]]]]]]]]]]]]]]]]]]]******cLLLLLW''''''''''''LLLLLLLLLLLLLLLLLLT''''''''''''LLLLLL<*****]]]]]]]]]]]]]",
"]]]]]]]]]]]]]]]]]]]******cLLLLLW''''''''''''LLLLLLLLLLLLLLLLLLT''''''''''''LLLLLL<*****]]]]]]]]]]]]]",
"]]]]]]]]]]]]]]]]]]]******cLLLLLW''''''''''''LLLLLLLLLLLLLLLLLLT''''''''''''LLLLLL<*****]]]]]]]]]]]]]",
"]]]]]]]]]]]]]]]]]]]******cLLLLLW''''''''''''LLLLLLLLLLLLLLLLLLT''''''''''''LLLLLL<*****]]]]]]]]]]]]]",
"]]]]]]]]]]]]]]]]]]]******cLLLLLW''''''''''''LLLLLLLLLLLLLLLLLLT''''''''''''LLLLLL<*****]]]]]]]]]]]]]",
"]]]]]]]]]]]]]]]]]]]******cLLLLLW''''''''''''LLLLLLLLLLLLLLLLLLT''''''''''''LLLLLL<*****]]]]]]]]]]]]]",
"]]]]]]]]]]]]]]]]]]]******cLLLLLW''''''''''''LLLLLLLLLLLLLLLLLLT''''''''''''LLLLLL<*****]]]]]]]]]]]]]",
"]]]]]]]]]]]]]]]]]]]******cLLLLLW''''''''''''LLLLLLLLLLLLLLLLLLT''''''''''''LLLLLL<*****]]]]]]]]]]]]]",
"]]]]]]]]]]]]]]]]]]]******cLLLLLW''''''''''''LLLLLLLLLLLLLLLLLLT''''''''''''LLLLLL<*****]]]]]]]]]]]]]",
"]]]]]]]]]]]]]]]]]]]******tbbbbbGUUUUUR''''''!!!!!!!!!!!!!!!!!!_'''''^UUUUUUbbbbbb:*****]]]]]]]]]]]]]",
"]]]]]]]]]]]]]]]]]]]******qgggggMLLLLLU''''''''''''''''''''''''''''''!LLLLLLgggggg:*****]]]]]]]]]]]]]",
"]]]]]]]]]]]]]]]]]]]******qgggggMLLLLLU''''''''''''''''''''''''''''''!LLLLLLgggggg:*****]]]]]]]]]]]]]",
"]]]]]]]]]]]]]]]]]]]******qgggggMLLLLLU''''''''''''''''''''''''''''''!LLLLLLgggggg:*****]]]]]]]]]]]]]",
"]]]]]]]]]]]]]]]]]]]******qgggggMLLLLLU''''''''''''''''''''''''''''''!LLLLLLgggggg:*****]]]]]]]]]]]]]",
"]]]]]]]]]]]]]]]]]]]******qgggggMLLLLLU''''''''''''''''''''''''''''''!LLLLLLgggggg:*****]]]]]]]]]]]]]",
"]]]]]]]]]]]]]]]]]]]******255555ummmmmZTTTTTTTTTTTTTTTTTTTTTTTTTTTTTTImmmmmm555555-******============",
"]]]]]]]]]]]]]]]]]]]************9gggggbLLLLLLLLLLLLLLLLLLLLLLLLLLLLLLDgggggg*************************",
"]]]]]]]]]]]]]]]]]]]************9gggggbLLLLLLLLLLLLLLLLLLLLLLLLLLLLLLDgggggg*************************",
"]]]]]]]]]]]]]]]]]]]************9gggggbLLLLLLLLLLLLLLLLLLLLLLLLLLLLLLDgggggg*************************",
"]]]]]]]]]]]]]]]]]]]************9gggggbLLLLLLLLLLLLLLLLLLLLLLLLLLLLLLDgggggg*************************",
"]]]]]]]]]]]]]]]]]]]************9gggggbLLLLLLLLLLLLLLLLLLLLLLLLLLLLLLDgggggg*************************",
"]]]]]]]]]]]]]]]]]]]%&&&&&******3qqqqqexxxxxxxxxxxxxxxxxxxxxxxxxxxxxxhqqqqqq******sffffffffffffffffff",
"]]]]]]]]]]]]]]]]]]]]]]]]]&*******************************************************Q''''''''''''''''''",
"]]]]]]]]]]]]]]]]]]]]]]]]]&*******************************************************Q''''''''''''''''''",
"]]]]]]]]]]]]]]]]]]]]]]]]]&*******************************************************Q''''''''''''''''''",
"]]]]]]]]]]]]]]]]]]]]]]]]]&*******************************************************Q''''''''''''''''''",
"]]]]]]]]]]]]]]]]]]]]]]]]]&*******************************************************Q''''''''''''''''''",
"]]]]]]]]]]]]]]]]]]]]]]]]]&*****-;;;;;;;;;;;;<<<<<<;;;;;;,<<<<<<<<<<<,;;;;;;******E~~~~~/)))))))))))/",
"]]]]]]]]]]]]]]]]]]]]]]]]]&*****9ggggggggggggLLLLLLxgggggZLLLLLLLLLLLDgggggg******igggggZLLLLLLLLLLLD",
"]]]]]]]]]]]]]]]]]]]]]]]]]&*****9ggggggggggggLLLLLLxgggggZLLLLLLLLLLLDgggggg******igggggZLLLLLLLLLLLD",
"]]]]]]]]]]]]]]]]]]]]]]]]]&*****9ggggggggggggLLLLLLxgggggZLLLLLLLLLLLDgggggg******igggggZLLLLLLLLLLLD",
"]]]]]]]]]]]]]]]]]]]]]]]]]&*****9ggggggggggggLLLLLLxgggggZLLLLLLLLLLLDgggggg******igggggZLLLLLLLLLLLD",
"]]]]]]]]]]]]]]]]]]]]]]]]]&*****9ggggggggggggLLLLLLxgggggZLLLLLLLLLLLDgggggg******igggggZLLLLLLLLLLLD",
"]]]]]]]]]]]]]]]]]]]]]]]]]&*****9ggggggggggggLLLLLLxgggggZLLLLLLLLLLLDgggggg******igggggZLLLLLLLLLLLD",
"]]]]]]]]]]]]]]]]]]]]]]]]]&*****9gggggbLLLLLLLLLLLLLLLLLLngggggmLLLLLDgggggg******SLLLLLngggggggggggg",
"]]]]]]]]]]]]]]]]]]]]]]]]]&*****9gggggbLLLLLLLLLLLLLLLLLLngggggmLLLLLDgggggg******SLLLLLngggggggggggg",
"]]]]]]]]]]]]]]]]]]]]]]]]]&*****9gggggbLLLLLLLLLLLLLLLLLLngggggmLLLLLDgggggg******SLLLLLngggggggggggg",
"]]]]]]]]]]]]]]]]]]]]]]]]]&*****9gggggbLLLLLLLLLLLLLLLLLLngggggmLLLLLDgggggg******SLLLLLngggggggggggg",
"]]]]]]]]]]]]]]]]]]]]]]]]]&*****9gggggbLLLLLLLLLLLLLLLLLLngggggmLLLLLDgggggg******SLLLLLngggggggggggg",
"]]]]]]]]]]]]]]]]]]]]]]]]]&*****9gggggbLLLLLLLLLLLLLLLLLLngggggmLLLLLDgggggg******SLLLLLngggggggggggg",
"]]]]]]]]]]]]]]]]]]]]]]]]]&*****9gggggbLLLLLLLLLLLLLLLLLLngggggmLLLLLDgggggg******lbbbbbjgggggggggggv",
"]]]]]]]]]]]]]]]]]]]]]]]]]&*****9gggggbLLLLLLLLLLLLLLLLLLngggggmLLLLLDgggggg******igggggggggggggggggb",
"]]]]]]]]]]]]]]]]]]]]]]]]]&*****9gggggbLLLLLLLLLLLLLLLLLLngggggmLLLLLDgggggg******igggggggggggggggggb",
"]]]]]]]]]]]]]]]]]]]]]]]]]&*****9gggggbLLLLLLLLLLLLLLLLLLngggggmLLLLLDgggggg******igggggggggggggggggb",
"]]]]]]]]]]]]]]]]]]]]]]]]]&*****9gggggbLLLLLLLLLLLLLLLLLLngggggmLLLLLDgggggg******igggggggggggggggggb",
"]]]]]]]]]]]]]]]]]]]]]]]]]&*****9gggggbLLLLLLLLLLLLLLLLLLngggggmLLLLLDgggggg******igggggggggggggggggb",
"]]]]]]]]]]]]]]]]]]]]]]]]]o*****9gggggbLLLLLLMMMMMMKLLLLLAMMMMMALLLLLDgggggg******7999999999999999990",
"]]]]]]]]]]]]]]]]]]]]OOOOO$*****9gggggbLLLLLLggggggHLLLLLLLLLLLLLLLLLDgggggg*************************",
"]]]]]]]]]]]]]]]]]]]]OOOOO$*****9gggggbLLLLLLggggggHLLLLLLLLLLLLLLLLLDgggggg*************************",
"]]]]]]]]]]]]]]]]]]]]OOOOO$*****9gggggbLLLLLLggggggHLLLLLLLLLLLLLLLLLDgggggg*************************",
"]]]]]]]]]]]]]]]]]]]]OOOOO$*****9gggggbLLLLLLggggggHLLLLLLLLLLLLLLLLLDgggggg*************************",
"]]]]]]]]]]]]]]]]]]]]OOOOO$*****9gggggbLLLLLLggggggHLLLLLLLLLLLLLLLLLDgggggg*************************",
"]]]]]]]]]]]]]]]]]]]]OOOOO$*****9gggggzCCCCCCqqqqqqFLLLLLLLLLLLJCCCCCNgggggg****** $$$$$X&&&&&&&&&&&&",
"]]]]]]]]]]]]]]]]]]]]OOOOO$*****9gggggggggggg******SLLLLLLLLLLLVgggggggggggg******+OOOOO]]]]]]]]]]]]]",
"]]]]]]]]]]]]]]]]]]]]OOOOO$*****9gggggggggggg******SLLLLLLLLLLLVgggggggggggg******+OOOOO]]]]]]]]]]]]]",
"]]]]]]]]]]]]]]]]]]]]OOOOO$*****9gggggggggggg******SLLLLLLLLLLLVgggggggggggg******+OOOOO]]]]]]]]]]]]]",
"]]]]]]]]]]]]]]]]]]]]OOOOO$*****9gggggggggggg******SLLLLLLLLLLLVgggggggggggg******+OOOOO]]]]]]]]]]]]]",
"]]]]]]]]]]]]]]]]]]]]OOOOO$*****9gggggggggggg******SLLLLLLLLLLLVgggggggggggg******+OOOOO]]]]]]]]]]]]]",
"]]]]]]]]]]]]]]]]]]]]OOOOO@.....8iiiiiagggggg******BHHHHHFSSSSSMgggggaiiiiii......+OOOOO]]]]]]]]]]]]]",
"]]]]]]]]]]]]]OOOOOOOOOOOOOOOOOO#*****1gggggg******iggggg4*****4gggggr******OOOOOOOOOOOOOOOOOO]]]]]]]",
"]]]]]]]]]]]]]OOOOOOOOOOOOOOOOOO#*****1gggggg******iggggg4*****4gggggr******OOOOOOOOOOOOOOOOOO]]]]]]]",
"]]]]]]]]]]]]]OOOOOOOOOOOOOOOOOO#*****1gggggg******iggggg4*****4gggggr******OOOOOOOOOOOOOOOOOO]]]]]]]",
"]]]]]]]]]]]]]OOOOOOOOOOOOOOOOOO#*****1gggggg******iggggg4*****4gggggr******OOOOOOOOOOOOOOOOOO]]]]]]]",
"]]]]]]]]]]]]]OOOOOOOOOOOOOOOOOO#*****1gggggg******iggggg4*****4gggggr******OOOOOOOOOOOOOOOOOO]]]]]]]",
"]]]]]]]]]]]]]OOOOOOOOOOOOOOOOOO#*****1gggggg******iggggg4*****4gggggr******OOOOOOOOOOOOOOOOO]]]]]]]]",
"]]]]]]]]]]]]]]]]]]]]]]]]]]OOOOOOOOOOOOOOOOOOOOOOOOOOOOOOOOOOOOOOOOOOOOOOOOOOOOOOO]]]]]]]]]]]]]]]]]]]",
"]]]]]]]]]]]]]]]]]]]]]]]]]]OOOOOOOOOOOOOOOOOOOOOOOOOOOOOOOOOOOOOOOOOOOOOOOOOOOOOOO]]]]]]]]]]]]]]]]]]]",
"]]]]]]]]]]]]]]]]]]]]]]]]]]OOOOOOOOOOOOOOOOOOOOOOOOOOOOOOOOOOOOOOOOOOOOOOOOOOOOOOO]]]]]]]]]]]]]]]]]]]",
"]]]]]]]]]]]]]]]]]]]]]]]]]]OOOOOOOOOOOOOOOOOOOOOOOOOOOOOOOOOOOOOOOOOOOOOOOOOOOOOOO]]]]]]]]]]]]]]]]]]]",
"]]]]]]]]]]]]]]]]]]]]]]]]]]OOOOOOOOOOOOOOOOOOOOOOOOOOOOOOOOOOOOOOOOOOOOOOOOOOOOOOO]]]]]]]]]]]]]]]]]]]",
"]]]]]]]]]]]]]]]]]]]]]]]]]]OOOOOOOOOOOOOOOOOOOOOOOOOOOOOOOOOOOOOOOOOOOOOOOOOOOOOO]]]]]]]]]]]]]]]]]]]]",
"]]]]]]]]]]]]]]]]]]]]]]]]]]]]]]]]OOOOO]]]]]]]]]]]]]]]]]]]]]]]]]]]]]]]]OOOOOO]]]]]]]]]]]]]]]]]]]]]]]]]",
"]]]]]]]]]]]]]]]]]]]]]]]]]]]]]]]]OOOOO]]]]]]]]]]]]]]]]]]]]]]]]]]]]]]]]OOOOOO]]]]]]]]]]]]]]]]]]]]]]]]]",
"]]]]]]]]]]]]]]]]]]]]]]]]]]]]]]]]OOOOO]]]]]]]]]]]]]]]]]]]]]]]]]]]]]]]]OOOOOO]]]]]]]]]]]]]]]]]]]]]]]]]",
"]]]]]]]]]]]]]]]]]]]]]]]]]]]]]]]]OOOOO]]]]]]]]]]]]]]]]]]]]]]]]]]]]]]]]OOOOOO]]]]]]]]]]]]]]]]]]]]]]]]]",
"]]]]]]]]]]]]]]]]]]]]]]]]]]]]]]]]OOOOO]]]]]]]]]]]]]]]]]]]]]]]]]]]]]]]]OOOOOO]]]]]]]]]]]]]]]]]]]]]]]]]",
"]]]]]]]]]]]]]]]]]]]]]]]]]]]]]]]]OOOOO]]]]]]]]]]]]]]]]]]]]]]]]]]]]]]]]OOOOO]]]]]]]]]]]]]]]]]]]]]]]]]]",
"]]]]]]]]]]]]]]]]]]]]]]]]]]]]]]]]]]]]]]]]]]]]]]]]]]]]]]]]]]]]]]]]]]]]]]]]]]]]]]]]]]]]]]]]]]]]]]]]]]]]",
"]]]]]]]]]]]]]]]]]]]]]]]]]]]]]]]]]]]]]]]]]]]]]]]]]]]]]]]]]]]]]]]]]]]]]]]]]]]]]]]]]]]]]]]]]]]]]]]]]]]]",
"]]]]]]]]]]]]]]]]]]]]]]]]]]]]]]]]]]]]]]]]]]]]]]]]]]]]]]]]]]]]]]]]]]]]]]]]]]]]]]]]]]]]]]]]]]]]]]]]]]]]",
"]]]]]]]]]]]]]]]]]]]]]]]]]]]]]]]]]]]]]]]]]]]]]]]]]]]]]]]]]]]]]]]]]]]]]]]]]]]]]]]]]]]]]]]]]]]]]]]]]]]]",
"]]]]]]]]]]]]]]]]]]]]]]]]]]]]]]]]]]]]]]]]]]]]]]]]]]]]]]]]]]]]]]]]]]]]]]]]]]]]]]]]]]]]]]]]]]]]]]]]]]]]",
"]]]]]]]]]]]]]]]]]]]]]]]]]]]]]]]]]]]]]]]]]]]]]]]]]]]]]]]]]]]]]]]]]]]]]]]]]]]]]]]]]]]]]]]]]]]]]]]]]]]]",
"]]]]]]]]]]]]]]]]]]]]]]]]]]]]]]]]]]]]]]]]]]]]]]]]]]]]]]]]]]]]]]]]]]]]]]]]]]]]]]]]]]]]]]]]]]]]]]]]]]]]"
};
