/* XPM */
static char *result[] = {
/* columns rows colors chars-per-pixel */
"100 100 86 1 ",
"  c #1C0F0F",
". c #1D100F",
"X c #1F100E",
"o c #1E100F",
"O c #0D0F18",
"+ c #0C0E1A",
"@ c #120E17",
"# c #191011",
"$ c #1B1111",
"% c #1C1010",
"& c #1D1111",
"* c #200F0D",
"= c #20100C",
"- c #20110C",
"; c #20100D",
": c #20110D",
"> c #21110D",
", c #22100D",
"< c #22120D",
"1 c #2C1912",
"2 c #2E1B13",
"3 c #2F1C13",
"4 c #321F16",
"5 c #352016",
"6 c #352118",
"7 c #362218",
"8 c #382319",
"9 c #392319",
"0 c #38241B",
"q c #3B251B",
"w c #3B261C",
"e c #3E281C",
"r c #3E281E",
"t c #40291C",
"y c #402A1D",
"u c #442C1F",
"i c #402A20",
"p c #402B20",
"a c #482F20",
"s c #483021",
"d c #4A3122",
"f c #503625",
"g c #523826",
"h c #523827",
"j c #553A27",
"k c #503629",
"l c #553A28",
"z c #583C29",
"x c #593D29",
"c c #593D2A",
"v c #5A3E2D",
"b c #5D402D",
"n c #5E402C",
"m c #60422D",
"M c #61432D",
"N c #62442E",
"B c #644734",
"V c #674830",
"C c #674831",
"Z c #674832",
"A c #6A4B33",
"S c #6B4C33",
"D c #6C4C33",
"F c #704F36",
"G c #755338",
"H c #75543B",
"J c #76543B",
"K c #7A573C",
"L c #7B583D",
"P c #7A593E",
"I c #7F5C40",
"U c #7E5D45",
"Y c #825D42",
"T c #846044",
"R c #896448",
"E c #8B664A",
"W c #8E694C",
"Q c #906B4E",
"! c #916B4E",
"~ c #936D50",
"^ c #936E51",
"/ c #987154",
"( c #9A7456",
") c #9B7456",
"_ c #9D7658",
"` c None",
/* pixels */
"````````````````````````````````==========================================``````````````````````````",
"```````````````````````````````;>>>>>>>>>>>>>>>>>>>>>>>>>>>>>>>>>>>>>>>>>>-`````````````````````````",
"```````````````````````````````;>>>>>>>>>>>>>>>>>>>>>>>>>>>>>>>>>>>>>>>>>>-`````````````````````````",
"```````````````````````````````;>>>>>>>>>>>>>>>>>>>>>>>>>>>>>>>>>>>>>>>>>>-`````````````````````````",
"```````````````````````````````;>>>>>>>>>>>>>>>>>>>>>>>>>>>>>>>>>>>>>>>>>>-`````````````````````````",
"```````````````````````````````;>>>>>>>>>>>>>>>>>>>>>>>>>>>>>>>>>>>>>>>>>>-`````````````````````````",
"```````````````````````````````377777wiiiiiiiiiiiiiiiiiiiiiiiiiiiiiir777775`````````````````````````",
"`````````````````````````>>>>>>lGGGGGR______________________________WGGGGGm>>>>>>```````````````````",
"`````````````````````````>>>>>>lGGGGGR______________________________WGGGGGm>>>>>>```````````````````",
"`````````````````````````>>>>>>lGGGGGR______________________________WGGGGGm>>>>>>```````````````````",
"`````````````````````````>>>>>>lGGGGGR______________________________WGGGGGm>>>>>>```````````````````",
"`````````````````````````>>>>>>lGGGGGR______________________________WGGGGGm>>>>>>```````````````````",
"`````````````````````````211111bKKKKKE_____)//////////////////)_____QKKKKKZ111111```````````````````",
"```````````````````>>>>>>AGGGGGW___________~GGGGGGGGGGGGGGGGGGW___________~GGGGGG>>>>>>`````````````",
"```````````````````>>>>>>AGGGGGW___________~GGGGGGGGGGGGGGGGGGW___________~GGGGGG>>>>>>`````````````",
"```````````````````>>>>>>AGGGGGW___________~GGGGGGGGGGGGGGGGGGW___________~GGGGGG>>>>>>`````````````",
"```````````````````>>>>>>AGGGGGW___________~GGGGGGGGGGGGGGGGGGW___________~GGGGGG>>>>>>`````````````",
"```````````````````>>>>>>AGGGGGW___________~GGGGGGGGGGGGGGGGGGW___________~GGGGGG>>>>>>`````````````",
"```````````````````>>>>>>AGGGGGW___________~GGGGGGGGGGGGGGGGGGW___________~GGGGGG>>>>>>`````````````",
"```````````````````>>>>>>AGGGGGW___________~GGGGGGGGGGGGGGGGGGW___________~GGGGGG>>>>>>`````````````",
"```````````````````>>>>>>AGGGGGW___________~GGGGGGGGGGGGGGGGGGW___________~GGGGGG>>>>>>`````````````",
"```````````````````>>>>>>AGGGGGW___________~GGGGGGGGGGGGGGGGGGW___________~GGGGGG>>>>>>`````````````",
"```````````````````>>>>>>AGGGGGW___________~GGGGGGGGGGGGGGGGGGW___________~GGGGGG>>>>>>`````````````",
"```````````````````>>>>>>AGGGGGW___________~GGGGGGGGGGGGGGGGGGW___________~GGGGGG>>>>>>`````````````",
"```````````````````>>>>>>AGGGGGW___________~GGGGGGGGGGGGGGGGGGW___________~GGGGGG>>>>>>`````````````",
"```````````````````>>>>>>lnnnnnHTTTTT!_____(WWWWWWWWWWWWWWWWWW/_____~TTTTTPnnnnnn>>>>>>`````````````",
"```````````````````>>>>>>dfffffCGGGGGR______________________________WGGGGGSffffff>>>>>>`````````````",
"```````````````````>>>>>>dfffffCGGGGGR______________________________WGGGGGSffffff>>>>>>`````````````",
"```````````````````>>>>>>dfffffCGGGGGR______________________________WGGGGGSffffff>>>>>>`````````````",
"```````````````````>>>>>>dfffffCGGGGGR______________________________WGGGGGSffffff>>>>>>`````````````",
"```````````````````>>>>>>dfffffCGGGGGR______________________________WGGGGGSffffff>>>>>>`````````````",
"```````````````````>>>>>>688888hNNNNNJRRRRRRRRRRRRRRRRRRRRRRRRRRRRRRPNNNNNz888888>>>>>>,============",
"```````````````````>>>>>>>>>>>>efffffNGGGGGGGGGGGGGGGGGGGGGGGGGGGGGGVfffffu>>>>>>>>>>>>>>>>>>>>>>>>>",
"```````````````````>>>>>>>>>>>>efffffNGGGGGGGGGGGGGGGGGGGGGGGGGGGGGGVfffffu>>>>>>>>>>>>>>>>>>>>>>>>>",
"```````````````````>>>>>>>>>>>>efffffNGGGGGGGGGGGGGGGGGGGGGGGGGGGGGGVfffffu>>>>>>>>>>>>>>>>>>>>>>>>>",
"```````````````````>>>>>>>>>>>>efffffNGGGGGGGGGGGGGGGGGGGGGGGGGGGGGGVfffffu>>>>>>>>>>>>>>>>>>>>>>>>>",
"```````````````````>>>>>>>>>>>>efffffNGGGGGGGGGGGGGGGGGGGGGGGGGGGGGGVfffffu>>>>>>>>>>>>>>>>>>>>>>>>>",
"```````````````````======>>>>>>9uuuuugmmmmmmmmmmmmmmmmmmmmmmmmmmmmmmjuuuuuq>>>>>>iiiiiiiiiiiiiiiiiii",
"`````````````````````````>>>>>>>>>>>>>>>>>>>>>>>>>>>>>>>>>>>>>>>>>>>>>>>>>>>>>>>>___________________",
"`````````````````````````>>>>>>>>>>>>>>>>>>>>>>>>>>>>>>>>>>>>>>>>>>>>>>>>>>>>>>>>___________________",
"`````````````````````````>>>>>>>>>>>>>>>>>>>>>>>>>>>>>>>>>>>>>>>>>>>>>>>>>>>>>>>>___________________",
"`````````````````````````>>>>>>>>>>>>>>>>>>>>>>>>>>>>>>>>>>>>>>>>>>>>>>>>>>>>>>>>___________________",
"`````````````````````````>>>>>>>>>>>>>>>>>>>>>>>>>>>>>>>>>>>>>>>>>>>>>>>>>>>>>>>>___________________",
"`````````````````````````>>>>>>>>>>>>>>>>>>>>>>>>>>>>>>>>>>>>>>>>>>>>>>>>>>>>>>>>___________________",
"`````````````````````````>>>>>>efffffffffffcGGGGGGffffffFGGGGGGGGGGGVfffffu>>>>>>ffffffDGGGGGGGGGGGV",
"`````````````````````````>>>>>>efffffffffffcGGGGGGffffffFGGGGGGGGGGGVfffffu>>>>>>ffffffDGGGGGGGGGGGV",
"`````````````````````````>>>>>>efffffffffffcGGGGGGffffffFGGGGGGGGGGGVfffffu>>>>>>ffffffDGGGGGGGGGGGV",
"`````````````````````````>>>>>>efffffffffffcGGGGGGffffffFGGGGGGGGGGGVfffffu>>>>>>ffffffDGGGGGGGGGGGV",
"`````````````````````````>>>>>>efffffffffffcGGGGGGffffffFGGGGGGGGGGGVfffffu>>>>>>ffffffDGGGGGGGGGGGV",
"`````````````````````````>>>>>>efffffffffffcGGGGGGffffffFGGGGGGGGGGGVfffffu>>>>>>ffffffDGGGGGGGGGGGV",
"`````````````````````````>>>>>>efffffMFFFFFL//////^^^^^^//////YGGGGGVfffffu>>>>>>FFFFFFxjjjjjjjjjjjg",
"`````````````````````````>>>>>>efffffNGGGGGI__________________TGGGGGVfffffu>>>>>>GGGGGGxffffffffffff",
"`````````````````````````>>>>>>efffffNGGGGGI__________________TGGGGGVfffffu>>>>>>GGGGGGxffffffffffff",
"`````````````````````````>>>>>>efffffNGGGGGI__________________TGGGGGVfffffu>>>>>>GGGGGGxffffffffffff",
"`````````````````````````>>>>>>efffffNGGGGGI__________________TGGGGGVfffffu>>>>>>GGGGGGxffffffffffff",
"`````````````````````````>>>>>>efffffNGGGGGI__________________TGGGGGVfffffu>>>>>>GGGGGGxffffffffffff",
"`````````````````````````>>>>>>efffffsyyyyyv__________________Byyyyyafffffu>>>>>>nnnnnnjfffffffffffc",
"`````````````````````````>>>>>>efffff8>>>>>i__________________k>>>>>4fffffu>>>>>>ffffffffffffffffffn",
"`````````````````````````>>>>>>efffff8>>>>>i__________________k>>>>>4fffffu>>>>>>ffffffffffffffffffn",
"`````````````````````````>>>>>>efffff8>>>>>i__________________k>>>>>4fffffu>>>>>>ffffffffffffffffffn",
"`````````````````````````>>>>>>efffff8>>>>>i__________________k>>>>>4fffffu>>>>>>ffffffffffffffffffn",
"`````````````````````````>>>>>>efffff8>>>>>i__________________k>>>>>4fffffu>>>>>>ffffffffffffffffffn",
"`````````````````````````:>>>>>efffff8>>>>>i__________________k>>>>>4fffffu>>>>>>888888888888888888t",
"```````````````````++++++X>>>>>efffff8>>>>>i__________________k>>>>>4fffffu>>>>>>>>>>>>>>>>>>>>>>>>>",
"```````````````````++++++X>>>>>efffff8>>>>>i__________________k>>>>>4fffffu>>>>>>>>>>>>>>>>>>>>>>>>>",
"```````````````````++++++X>>>>>efffff8>>>>>i__________________k>>>>>4fffffu>>>>>>>>>>>>>>>>>>>>>>>>>",
"```````````````````++++++X>>>>>efffff8>>>>>i__________________k>>>>>4fffffu>>>>>>>>>>>>>>>>>>>>>>>>>",
"```````````````````++++++X>>>>>efffff8>>>>>i__________________k>>>>>4fffffu>>>>>>>>>>>>>>>>>>>>>>>>>",
"```````````````````++++++X>>>>>efffff8>>>>>i__________________k>>>>>4fffffu>>>>>>oooooo*============",
"```````````````````++++++X>>>>>efffff8>>>>>i__________________k>>>>>4fffffu>>>>>>++++++`````````````",
"```````````````````++++++X>>>>>efffff8>>>>>i__________________k>>>>>4fffffu>>>>>>++++++`````````````",
"```````````````````++++++X>>>>>efffff8>>>>>i__________________k>>>>>4fffffu>>>>>>++++++`````````````",
"```````````````````++++++X>>>>>efffff8>>>>>i__________________k>>>>>4fffffu>>>>>>++++++`````````````",
"```````````````````++++++X>>>>>efffff8>>>>>i__________________k>>>>>4fffffu>>>>>>++++++`````````````",
"```````````````````++++++X>>>>>efffff8>>>>>i__________________k>>>>>4fffffu>>>>>>++++++`````````````",
"`````````````++++++++++++++++++%>>>>>>>>>>>i__________________k>>>>>>>>>>>o++++++++++++++++++```````",
"`````````````++++++++++++++++++%>>>>>>>>>>>i__________________k>>>>>>>>>>>o++++++++++++++++++```````",
"`````````````++++++++++++++++++%>>>>>>>>>>>i__________________k>>>>>>>>>>>o++++++++++++++++++```````",
"`````````````++++++++++++++++++%>>>>>>>>>>>i__________________k>>>>>>>>>>>o++++++++++++++++++```````",
"`````````````++++++++++++++++++%>>>>>>>>>>>i__________________k>>>>>>>>>>>o++++++++++++++++++```````",
"`````````````++++++++++++++++++%>>>>>>>>>>>i__________________k>>>>>>>>>>>o+++++++++++++++++````````",
"``````````````````````````+++++O@@@@@$>>>>>i__________________k>>>>> @@@@@@++++++```````````````````",
"``````````````````````````+++++++++++#>>>>>i__________________k>>>>>%++++++++++++```````````````````",
"``````````````````````````+++++++++++#>>>>>i__________________k>>>>>%++++++++++++```````````````````",
"``````````````````````````+++++++++++#>>>>>i__________________k>>>>>%++++++++++++```````````````````",
"``````````````````````````+++++++++++#>>>>>i__________________k>>>>>%++++++++++++```````````````````",
"``````````````````````````+++++++++++#>>>>>i__________________k>>>>>%+++++++++++````````````````````",
"````````````````````````````````+++++#>>>>>i__________________k>>>>>%+++++``````````````````````````",
"````````````````````````````````+++++#>>>>>i__________________k>>>>>%+++++``````````````````````````",
"````````````````````````````````+++++#>>>>>i__________________k>>>>>%+++++``````````````````````````",
"````````````````````````````````+++++#>>>>>i__________________k>>>>>%+++++``````````````````````````",
"````````````````````````````````+++++#>>>>>i__________________k>>>>>%+++++``````````````````````````",
"````````````````````````````````+++++#>>>>>i__________________k>>>>>%+++++``````````````````````````",
"`````````````````````````````````````&>>>>>i__________________k>>>>>.```````````````````````````````",
"`````````````````````````````````````=>>>>>i__________________k>>>>>,```````````````````````````````",
"`````````````````````````````````````=>>>>>i__________________k>>>>>,```````````````````````````````",
"`````````````````````````````````````=>>>>>i__________________k>>>>>,```````````````````````````````",
"`````````````````````````````````````=>>>>>i__________________k>>>>>,```````````````````````````````",
"`````````````````````````````````````=>>>>>i__________________k>>>>>,```````````````````````````````",
"`````````````````````````````````````<>>>>>0UUUUUUUUUUUUUUUUUUp>>>>>>```````````````````````````````"
};
