/* XPM */
static char *_959ed8af83a421498c775cf2130b390PXpBWlNk4ds0pKIh[] = {
/* columns rows colors chars-per-pixel */
"100 100 77 1 ",
"  c None",
". c #1E100F",
"X c #1E110F",
"o c #0C0E1A",
"O c #120D16",
"+ c #120F16",
"@ c #150E15",
"# c #1C1010",
"$ c #191316",
"% c #1E1619",
"& c #200F0D",
"* c #20100C",
"= c #20100D",
"- c #21100D",
"; c #21110D",
": c #20110E",
"> c #291712",
", c #2D1A13",
"< c #2F1C13",
"1 c #211B1B",
"2 c #231B1B",
"3 c #261E1E",
"4 c #311D15",
"5 c #321F16",
"6 c #352118",
"7 c #362218",
"8 c #392319",
"9 c #38241A",
"0 c #3E281C",
"q c #3E281E",
"w c #442C1F",
"e c #442D1F",
"r c #402A20",
"t c #4A3122",
"y c #4C3323",
"u c #4E3424",
"i c #4F3625",
"p c #503625",
"a c #513725",
"s c #523826",
"d c #553A27",
"f c #553A28",
"g c #573C28",
"h c #583C29",
"j c #593D29",
"k c #593D2A",
"l c #5B3F2B",
"z c #5D412C",
"x c #5E402C",
"c c #5E412C",
"v c #60422D",
"b c #61432D",
"n c #61432E",
"m c #61442E",
"M c #62442E",
"N c #644630",
"B c #674830",
"V c #674930",
"C c #674831",
"Z c #694A32",
"A c #6A4B33",
"S c #6B4C33",
"D c #6C4C33",
"F c #6C4B34",
"G c #6E4D35",
"H c #704F36",
"J c #705036",
"K c #755338",
"L c #75543B",
"P c #7F5C41",
"I c #846044",
"U c #8E694C",
"Y c #936D50",
"T c #987154",
"R c #987254",
"E c #9A7456",
"W c #9D7658",
/* pixels */
"                                                                                                    ",
"                               ;;;;;;;;;;;;;;;;;;;;;;;;;;;;;;;;;;;;;;;;;;;;                         ",
"                               ;;;;;;;;;;;;;;;;;;;;;;;;;;;;;;;;;;;;;;;;;;;;                         ",
"                               ;;;;;;;;;;;;;;;;;;;;;;;;;;;;;;;;;;;;;;;;;;;;                         ",
"                               ;;;;;;;;;;;;;;;;;;;;;;;;;;;;;;;;;;;;;;;;;;;;                         ",
"                               ;;;;;;;;;;;;;;;;;;;;;;;;;;;;;;;;;;;;;;;;;;;;                         ",
"                               <666669rrrrrrrrrrrrrrrrrrrrrrrrrrrrrr0666668                         ",
"                         ;;;;;;fKKKKKIWWWWWWWWWWWWWWWWWWWWWWWWWWWWWWUKKKKKZ;;;;;;                   ",
"                         ;;;;;;fKKKKKIWWWWWWWWWWWWWWWWWWWWWWWWWWWWWWUKKKKKZ;;;;;;                   ",
"                         ;;;;;;fKKKKKIWWWWWWWWWWWWWWWWWWWWWWWWWWWWWWUKKKKKZ;;;;;;                   ",
"                         ;;;;;;fKKKKKIWWWWWWWWWWWWWWWWWWWWWWWWWWWWWWUKKKKKZ;;;;;;                   ",
"                         ;;;;;;fKKKKKIWWWWWWWWWWWWWWWWWWWWWWWWWWWWWWUKKKKKZ;;;;;;                   ",
"                         ;;;;;;fKKKKKIWWWWWWWWWWWWWWWWWWWWWWWWWWWWWWUKKKKKZ;;;;;;                   ",
"                   ;;;;;;vKKKKKUWWWWWWWWWWWYKKKKKKKKKKKKKKKKKKUWWWWWWWWWWWTKKKKKK;;;;;;             ",
"                   ;;;;;;vKKKKKUWWWWWWWWWWWYKKKKKKKKKKKKKKKKKKUWWWWWWWWWWWTKKKKKK;;;;;;             ",
"                   ;;;;;;vKKKKKUWWWWWWWWWWWYKKKKKKKKKKKKKKKKKKUWWWWWWWWWWWTKKKKKK;;;;;;             ",
"                   ;;;;;;vKKKKKUWWWWWWWWWWWYKKKKKKKKKKKKKKKKKKUWWWWWWWWWWWTKKKKKK;;;;;;             ",
"                   ;;;;;;vKKKKKUWWWWWWWWWWWYKKKKKKKKKKKKKKKKKKUWWWWWWWWWWWTKKKKKK;;;;;;             ",
"                   ;;;;;;vKKKKKUWWWWWWWWWWWYKKKKKKKKKKKKKKKKKKUWWWWWWWWWWWTKKKKKK;;;;;;             ",
"                   ;;;;;;vKKKKKUWWWWWWWWWWWYKKKKKKKKKKKKKKKKKKUWWWWWWWWWWWTKKKKKK;;;;;;             ",
"                   ;;;;;;vKKKKKUWWWWWWWWWWWYKKKKKKKKKKKKKKKKKKUWWWWWWWWWWWTKKKKKK;;;;;;             ",
"                   ;;;;;;vKKKKKUWWWWWWWWWWWYKKKKKKKKKKKKKKKKKKUWWWWWWWWWWWTKKKKKK;;;;;;             ",
"                   ;;;;;;vKKKKKUWWWWWWWWWWWYKKKKKKKKKKKKKKKKKKUWWWWWWWWWWWTKKKKKK;;;;;;             ",
"                   ;;;;;;vKKKKKUWWWWWWWWWWWYKKKKKKKKKKKKKKKKKKUWWWWWWWWWWWTKKKKKK;;;;;;             ",
"                   ;;;;;;vKKKKKUWWWWWWWWWWWYKKKKKKKKKKKKKKKKKKUWWWWWWWWWWWTKKKKKK;;;;;;             ",
"                   ;;;;;;uxxxxxLIIIIIUWWWWWEUUUUUUUUUUUUUUUUUUTWWWWWYIIIIIPxxxxxx;;;;;;             ",
"                   ;;;;;;epppppCKKKKKIWWWWWWWWWWWWWWWWWWWWWWWWWWWWWWUKKKKKHpppppp;;;;;;             ",
"                   ;;;;;;epppppCKKKKKIWWWWWWWWWWWWWWWWWWWWWWWWWWWWWWUKKKKKHpppppp;;;;;;             ",
"                   ;;;;;;epppppCKKKKKIWWWWWWWWWWWWWWWWWWWWWWWWWWWWWWUKKKKKHpppppp;;;;;;             ",
"                   ;;;;;;epppppCKKKKKIWWWWWWWWWWWWWWWWWWWWWWWWWWWWWWUKKKKKHpppppp;;;;;;             ",
"                   ;;;;;;epppppCKKKKKIWWWWWWWWWWWWWWWWWWWWWWWWWWWWWWUKKKKKHpppppp;;;;;;             ",
"                   ;;;;;;600000hCCCCCLUUUUUUUUUUUUUUUUUUUUUUUUUUUUUUPCCCCCM000000;;;;;;             ",
";;;;;;;;;;;;;;;;;;;;;;;;;;;;;;;0pppppxKKKKKKKKKKKKKKKKKKKKKKKKKKKKKKCpppppt;;;;;;;;;;;;             ",
";;;;;;;;;;;;;;;;;;;;;;;;;;;;;;;0pppppxKKKKKKKKKKKKKKKKKKKKKKKKKKKKKKCpppppt;;;;;;;;;;;;             ",
";;;;;;;;;;;;;;;;;;;;;;;;;;;;;;;0pppppxKKKKKKKKKKKKKKKKKKKKKKKKKKKKKKCpppppt;;;;;;;;;;;;             ",
";;;;;;;;;;;;;;;;;;;;;;;;;;;;;;;0pppppxKKKKKKKKKKKKKKKKKKKKKKKKKKKKKKCpppppt;;;;;;;;;;;;             ",
";;;;;;;;;;;;;;;;;;;;;;;;;;;;;;;0pppppxKKKKKKKKKKKKKKKKKKKKKKKKKKKKKKCpppppt;;;;;;;;;;;;             ",
"rrrrrrrrrrrrrrrrrrrrrrrrr>;;;;;8eeeeeuvvvvvvvvvvvvvvvvvvvvvvvvvvvvvvdeeeee0;;;;;;;;;;;;             ",
"WWWWWWWWWWWWWWWWWWWWWWWWWr;;;;;;;;;;;;;;;;;;;;;;;;;;;;;;;;;;;;;;;;;;;;;;;;;;;;;;;                   ",
"WWWWWWWWWWWWWWWWWWWWWWWWWr;;;;;;;;;;;;;;;;;;;;;;;;;;;;;;;;;;;;;;;;;;;;;;;;;;;;;;;                   ",
"WWWWWWWWWWWWWWWWWWWWWWWWWr;;;;;;;;;;;;;;;;;;;;;;;;;;;;;;;;;;;;;;;;;;;;;;;;;;;;;;;                   ",
"WWWWWWWWWWWWWWWWWWWWWWWWWr;;;;;;;;;;;;;;;;;;;;;;;;;;;;;;;;;;;;;;;;;;;;;;;;;;;;;;;                   ",
"WWWWWWWWWWWWWWWWWWWWWWWWWr;;;;;;;;;;;;;;;;;;;;;;;;;;;;;;;;;;;;;;;;;;;;;;;;;;;;;;;                   ",
"WWWWWWWWWWWWWWWWWWWWWWWWWr;;;;;;;;;;;;;;;;;;;;;;;;;;;;;;;;;;;;;;;;;;;;;;;;;;;;;;;                   ",
"xppppppppppppppppppKKKKKK6;;;;;0ppppppppppphKKKKKKppppppDKKKKKKKKKKKCpppppt;;;;;;                   ",
"xppppppppppppppppppKKKKKK6;;;;;0ppppppppppphKKKKKKppppppDKKKKKKKKKKKCpppppt;;;;;;                   ",
"xppppppppppppppppppKKKKKK6;;;;;0ppppppppppphKKKKKKppppppDKKKKKKKKKKKCpppppt;;;;;;                   ",
"xppppppppppppppppppKKKKKK6;;;;;0ppppppppppphKKKKKKppppppDKKKKKKKKKKKCpppppt;;;;;;                   ",
"xppppppppppppppppppKKKKKK6;;;;;0ppppppppppphKKKKKKppppppDKKKKKKKKKKKCpppppt;;;;;;                   ",
"xppppppppppppppppppKKKKKK6;;;;;0ppppppppppphKKKKKKppppppDKKKKKKKKKKKCpppppt;;;;;;                   ",
"spppppppppppgDDDDDDKKKKKK6;;;;;0ppppphDDDDDGKKKKKKDDDDDDxhhhhhZKKKKKCpppppt;;;;;;                   ",
"pppppppppppphKKKKKKKKKKKK6;;;;;0pppppxKKKKKKKKKKKKKKKKKKhpppppCKKKKKCpppppt;;;;;;                   ",
"pppppppppppphKKKKKKKKKKKK6;;;;;0pppppxKKKKKKKKKKKKKKKKKKhpppppCKKKKKCpppppt;;;;;;                   ",
"pppppppppppphKKKKKKKKKKKK6;;;;;0pppppxKKKKKKKKKKKKKKKKKKhpppppCKKKKKCpppppt;;;;;;                   ",
"pppppppppppphKKKKKKKKKKKK6;;;;;0pppppxKKKKKKKKKKKKKKKKKKhpppppCKKKKKCpppppt;;;;;;                   ",
"pppppppppppphKKKKKKKKKKKK6;;;;;0pppppxKKKKKKKKKKKKKKKKKKhpppppCKKKKKCpppppt;;;;;;                   ",
"xCCCCCCCCCCCMxxxxxxKKKKKK6;;;;;0pppppxKKKKKKKKKKKKKKKKKKhpppppCKKKKKCpppppt;;;;;;                   ",
"CKKKKKKKKKKKSppppppKKKKKK6;;;;;0pppppxKKKKKKKKKKKKKKKKKKhpppppCKKKKKCpppppt;;;;;;                   ",
"CKKKKKKKKKKKSppppppKKKKKK6;;;;;0pppppxKKKKKKKKKKKKKKKKKKhpppppCKKKKKCpppppt;;;;;;                   ",
"CKKKKKKKKKKKSppppppKKKKKK6;;;;;0pppppxKKKKKKKKKKKKKKKKKKhpppppCKKKKKCpppppt;;;;;;                   ",
"CKKKKKKKKKKKSppppppKKKKKK6;;;;;0pppppxKKKKKKKKKKKKKKKKKKhpppppCKKKKKCpppppt;;;;;;                   ",
"CKKKKKKKKKKKSppppppKKKKKK6;;;;;0pppppxKKKKKKKKKKKKKKKKKKhpppppCKKKKKCpppppt;;;;;;                   ",
"ydddddddddddp000000dddddd4;;;;;0pppppxKKKKKJCCCCCCKKKKKKNxxxxxFKKKKKCpppppt;;;;;;                   ",
";;;;;;;;;;;;;;;;;;;;;;;;;;;;;;;0pppppxKKKKKSppppppKKKKKKKKKKKKKKKKKKCpppppt;;;;;;oooooo             ",
";;;;;;;;;;;;;;;;;;;;;;;;;;;;;;;0pppppxKKKKKSppppppKKKKKKKKKKKKKKKKKKCpppppt;;;;;;oooooo             ",
";;;;;;;;;;;;;;;;;;;;;;;;;;;;;;;0pppppxKKKKKSppppppKKKKKKKKKKKKKKKKKKCpppppt;;;;;;oooooo             ",
";;;;;;;;;;;;;;;;;;;;;;;;;;;;;;;0pppppxKKKKKSppppppKKKKKKKKKKKKKKKKKKCpppppt;;;;;;oooooo             ",
";;;;;;;;;;;;;;;;;;;;;;;;;;;;;;;0pppppxKKKKKSppppppKKKKKKKKKKKKKKKKKKCpppppt;;;;;;oooooo             ",
";;;;;;;;;;;;&............;;;;;;0ppppphSSSSSveeeeeeKKKKKKKKKKKKJSSSSSvpppppt;;;;;;oooooo             ",
"             oooooooooooo.;;;;;0pppppppppppe;;;;;;KKKKKKKKKKKKxpppppppppppt;;;;;;oooooo             ",
"             oooooooooooo.;;;;;0pppppppppppe;;;;;;KKKKKKKKKKKKxpppppppppppt;;;;;;oooooo             ",
"             oooooooooooo.;;;;;0pppppppppppe;;;;;;KKKKKKKKKKKKxpppppppppppt;;;;;;oooooo             ",
"             oooooooooooo.;;;;;0pppppppppppe;;;;;;KKKKKKKKKKKKxpppppppppppt;;;;;;oooooo             ",
"             oooooooooooo.;;;;;0pppppppppppe;;;;;;KKKKKKKKKKKKxpppppppppppt;;;;;;oooooo             ",
"             oooooooooooo.;;;;;0pppppppppppe;;;;;;KKKKKKKKKKKKxpppppppppppt;;;;;;oooooo             ",
"             oooooooooooooooooo#;;;;;4pppppe;;;;;;pppppp,;;;;;0ppppp0;;;;;;oooooooooooooooooo       ",
"             oooooooooooooooooo#;;;;;4pppppe;;;;;;pppppp,;;;;;0ppppp0;;;;;;oooooooooooooooooo       ",
"             oooooooooooooooooo#;;;;;4pppppe;;;;;;pppppp,;;;;;0ppppp0;;;;;;oooooooooooooooooo       ",
"             oooooooooooooooooo#;;;;;4pppppe;;;;;;pppppp,;;;;;0ppppp0;;;;;;oooooooooooooooooo       ",
"             oooooooooooooooooo#;;;;;4pppppe;;;;;;pppppp,;;;;;0ppppp0;;;;;;oooooooooooooooooo       ",
"             oooooooooooooooooo#;;;;;4pppppe;;;;;;pppppp,;;;;;0ppppp0;;;;;;ooooooooooooooooo        ",
"                          ooooo+@@@@@%333332@@@@@@333333$@@@@@233333%@@@@@+oooooo                   ",
"                          ooooooooooooooooooooooooooooooooooooooooooooooooooooooo                   ",
"                          ooooooooooooooooooooooooooooooooooooooooooooooooooooooo                   ",
"                          ooooooooooooooooooooooooooooooooooooooooooooooooooooooo                   ",
"                          ooooooooooooooooooooooooooooooooooooooooooooooooooooooo                   ",
"                          oooooooooooooooooooooooooooooooooooooooooooooooooooooo                    ",
"                                ooooo                                ooooo                          ",
"                                ooooo                                ooooo                          ",
"                                ooooo                                ooooo                          ",
"                                ooooo                                ooooo                          ",
"                                ooooo                                ooooo                          ",
"                                ooooo                                ooooo                          ",
"                                                                                                    ",
"                                                                                                    ",
"                                                                                                    ",
"                                                                                                    ",
"                                                                                                    ",
"                                                                                                    ",
"                                                                                                    "
};
