/* XPM */
static char *ad3c90449f6740cfbdf74006ed501f34LztEC7YmfRefJifq[] = {
/* columns rows colors chars-per-pixel */
"100 100 91 1 ",
"  c None",
". c #1F110C",
"X c #1F100E",
"o c #1E100F",
"O c #0D0F18",
"+ c #0C0E1A",
"@ c #120E17",
"# c #1C1010",
"$ c #171319",
"% c #1A171C",
"& c #1B171C",
"* c #20100C",
"= c #20110C",
"- c #20100D",
"; c #21110D",
": c #24130E",
"> c #261510",
", c #261610",
"< c #271610",
"1 c #291712",
"2 c #291811",
"3 c #2C1912",
"4 c #2E1B13",
"5 c #301E16",
"6 c #311E16",
"7 c #331F16",
"8 c #352118",
"9 c #382319",
"0 c #392319",
"q c #38241B",
"w c #3A251A",
"e c #3C261B",
"r c #3D271B",
"t c #3E281C",
"y c #402A1D",
"u c #422B1F",
"i c #442C1F",
"p c #442D1F",
"a c #462E20",
"s c #483023",
"d c #4A3122",
"f c #4A3222",
"g c #4B3222",
"h c #4D3423",
"j c #4F3629",
"k c #503625",
"l c #523826",
"z c #523827",
"x c #533827",
"c c #553A27",
"v c #553A28",
"b c #583C29",
"n c #583D29",
"m c #593D29",
"M c #593D2A",
"N c #5B3F2B",
"B c #5C3F2B",
"V c #5D412C",
"C c #5D402D",
"Z c #5F4332",
"A c #60422D",
"S c #61432D",
"D c #62442E",
"F c #644630",
"G c #674830",
"H c #674930",
"J c #674831",
"K c #674832",
"L c #694A32",
"P c #6A4B33",
"I c #6B4C33",
"U c #6C4C33",
"Y c #6E4E34",
"T c #704F36",
"R c #705036",
"E c #715138",
"W c #755338",
"Q c #75543A",
"! c #76543B",
"~ c #7A573C",
"^ c #7F5C40",
"/ c #896448",
"( c #8B664A",
") c #8E694C",
"_ c #936D50",
"` c #936E51",
"' c #956F53",
"] c #987154",
"[ c #9A7456",
"{ c #9B7456",
"} c #9D7658",
/* pixels */
"                                ***********5ZZZZZZZZZZZZZZZZZZq***********                          ",
"                               ********************************************                         ",
"                               ********************************************                         ",
"                               ********************************************                         ",
"                               ********************************************                         ",
"                               ********************************************                         ",
"                               ryyyyydjjjjjjjjjjjjjjjjjjjjjjjjjjjjjjdyyyyy9                         ",
"                         ******vWWWWW/}}}}}}}}}}}}}}}}}}}}}}}}}}}}}}/WWWWWS******                   ",
"                         ******vWWWWW/}}}}}}}}}}}}}}}}}}}}}}}}}}}}}}/WWWWWS******                   ",
"                         ******vWWWWW/}}}}}}}}}}}}}}}}}}}}}}}}}}}}}}/WWWWWS******                   ",
"                         ******vWWWWW/}}}}}}}}}}}}}}}}}}}}}}}}}}}}}}/WWWWWS******                   ",
"                         ******vWWWWW/}}}}}}}}}}}}}}}}}}}}}}}}}}}}}}/WWWWWS******                   ",
"                         333333C~~~~~/}}}}}{]]]]]]]]]]]]]]]]]]{}}}}}/~~~~~J333333                   ",
"                   ******PWWWWW)}}}}}}}}}}}_WWWWWWWWWWWWWWWWWW)}}}}}}}}}}}_WWWWWW******             ",
"                   ******PWWWWW)}}}}}}}}}}}_WWWWWWWWWWWWWWWWWW)}}}}}}}}}}}_WWWWWW******             ",
"                   ******PWWWWW)}}}}}}}}}}}_WWWWWWWWWWWWWWWWWW)}}}}}}}}}}}_WWWWWW******             ",
"                   ******PWWWWW)}}}}}}}}}}}_WWWWWWWWWWWWWWWWWW)}}}}}}}}}}}_WWWWWW******             ",
"                   ******PWWWWW)}}}}}}}}}}}_WWWWWWWWWWWWWWWWWW)}}}}}}}}}}}_WWWWWW******             ",
"                   ******PWWWWW)}}}}}}}}}}}_WWWWWWWWWWWWWWWWWW)}}}}}}}}}}}_WWWWWW******             ",
"                   ******PWWWWW)}}}}}}}}}}}_WWWWWWWWWWWWWWWWWW)}}}}}}}}}}}_WWWWWW******             ",
"                   ******PWWWWW)}}}}}}}}}}}_WWWWWWWWWWWWWWWWWW)}}}}}}}}}}}_WWWWWW******             ",
"                   ******PWWWWW)}}}}}}}}}}}_WWWWWWWWWWWWWWWWWW)}}}}}}}}}}}_WWWWWW******             ",
"                   ******PWWWWW)}}}}}}}}}}}_WWWWWWWWWWWWWWWWWW)}}}}}}}}}}}_WWWWWW******             ",
"                   ******PWWWWW)}}}}}}}}}}}_WWWWWWWWWWWWWWWWWW)}}}}}}}}}}}_WWWWWW******             ",
"                   ******PWWWWW)}}}}}}}}}}}_WWWWWWWWWWWWWWWWWW)}}}}}}}}}}}_WWWWWW******             ",
"                   ******vMMMMME^^^^^)}}}}}{__________________{}}}}})^^^^^!MMMMMM******             ",
"                   ******dkkkkkJWWWWW/}}}}}}}}}}}}}}}}}}}}}}}}}}}}}}/WWWWWIkkkkkk******             ",
"                   ******dkkkkkJWWWWW/}}}}}}}}}}}}}}}}}}}}}}}}}}}}}}/WWWWWIkkkkkk******             ",
"                   ******dkkkkkJWWWWW/}}}}}}}}}}}}}}}}}}}}}}}}}}}}}}/WWWWWIkkkkkk******             ",
"                   ******dkkkkkJWWWWW/}}}}}}}}}}}}}}}}}}}}}}}}}}}}}}/WWWWWIkkkkkk******             ",
"                   ******dkkkkkJWWWWW/}}}}}}}}}}}}}}}}}}}}}}}}}}}}}}/WWWWWIkkkkkk******             ",
"*************************899999zDDDDD!//////////////////////////////!DDDDDM999999******             ",
"*******************************tkkkkkDWWWWWWWWWWWWWWWWWWWWWWWWWWWWWWDkkkkkp************             ",
"*******************************tkkkkkDWWWWWWWWWWWWWWWWWWWWWWWWWWWWWWDkkkkkp************             ",
"*******************************tkkkkkDWWWWWWWWWWWWWWWWWWWWWWWWWWWWWWDkkkkkp************             ",
"*******************************tkkkkkDWWWWWWWWWWWWWWWWWWWWWWWWWWWWWWDkkkkkp************             ",
"*******************************tkkkkkDWWWWWWWWWWWWWWWWWWWWWWWWWWWWWWDkkkkkp************             ",
"jjjjjjjjjjjjjjjjjjjjjjjjj1*****8tttttdccccccccccccccccccccccccccccccdttttt9************             ",
"}}}}}}}}}}}}}}}}}}}}}}}}}5*******************************************************                   ",
"}}}}}}}}}}}}}}}}}}}}}}}}}5*******************************************************                   ",
"}}}}}}}}}}}}}}}}}}}}}}}}}5*******************************************************                   ",
"}}}}}}}}}}}}}}}}}}}}}}}}}5*******************************************************                   ",
"}}}}}}}}}}}}}}}}}}}}}}}}}5*******************************************************                   ",
"'__________________]]]]]]5*****:,,,,,,,,,,,2333333,,,,,,3333333333332,,,,,:******                   ",
"CkkkkkkkkkkkkkkkkkcWWWWWW3*****tkkkkkkkkkkkMWWWWWWkkkkkkTWWWWWWWWWWWDkkkkkp******                   ",
"CkkkkkkkkkkkkkkkkkcWWWWWW3*****tkkkkkkkkkkkMWWWWWWkkkkkkTWWWWWWWWWWWDkkkkkp******                   ",
"CkkkkkkkkkkkkkkkkkcWWWWWW3*****tkkkkkkkkkkkMWWWWWWkkkkkkTWWWWWWWWWWWDkkkkkp******                   ",
"CkkkkkkkkkkkkkkkkkcWWWWWW3*****tkkkkkkkkkkkMWWWWWWkkkkkkTWWWWWWWWWWWDkkkkkp******                   ",
"CkkkkkkkkkkkkkkkkkcWWWWWW3*****tkkkkkkkkkkkMWWWWWWkkkkkkTWWWWWWWWWWWDkkkkkp******                   ",
"CkkkkkkkkkkkkkkkkkcWWWWWW3*****tkkkkkkkkkkkMWWWWWWkkkkkkTWWWWWWWWWWWDkkkkkp******                   ",
"zkkkkkkkkkkkMTTTTTTWWWWWW3*****tkkkkkSTTTTTTWWWWWWTTTTTTMcccccPWWWWWDkkkkkp******                   ",
"kkkkkkkkkkkkMWWWWWWWWWWWW3*****tkkkkkDWWWWWWWWWWWWWWWWWWckkkkkJWWWWWDkkkkkp******                   ",
"kkkkkkkkkkkkMWWWWWWWWWWWW3*****tkkkkkDWWWWWWWWWWWWWWWWWWckkkkkJWWWWWDkkkkkp******                   ",
"kkkkkkkkkkkkMWWWWWWWWWWWW3*****tkkkkkDWWWWWWWWWWWWWWWWWWckkkkkJWWWWWDkkkkkp******                   ",
"kkkkkkkkkkkkMWWWWWWWWWWWW3*****tkkkkkDWWWWWWWWWWWWWWWWWWckkkkkJWWWWWDkkkkkp******                   ",
"kkkkkkkkkkkkMWWWWWWWWWWWW3*****tkkkkkDWWWWWWWWWWWWWWWWWWckkkkkJWWWWWDkkkkkp******                   ",
"SUUUUUUUUUUUJMMMMMMWWWWWW3*****tkkkkkDWWWWWWWWWWWWWWWWWWckkkkkJWWWWWDkkkkkp******                   ",
"JWWWWWWWWWWWIkkkkkcWWWWWW3*****tkkkkkDWWWWWWWWWWWWWWWWWWckkkkkJWWWWWDkkkkkp******                   ",
"JWWWWWWWWWWWIkkkkkcWWWWWW3*****tkkkkkDWWWWWWWWWWWWWWWWWWckkkkkJWWWWWDkkkkkp******                   ",
"JWWWWWWWWWWWIkkkkkcWWWWWW3*****tkkkkkDWWWWWWWWWWWWWWWWWWckkkkkJWWWWWDkkkkka******                   ",
"JWWWWWWWWWWWIkkkkkcWWWWWW3*****tkkkkkDWWWWWWWWWWWWWWWWWWckkkkkJWWWWWDkkkkkp******                   ",
"JWWWWWWWWWWWIkkkkkcWWWWWW3*****tkkkkkDWWWWWWWWWWWWWWWWWWckkkkkJWWWWWDkkkkkp******                   ",
"pddddddddddda99999qdddddd,*****tkkkkkDWWWWWRDDDDDDWWWWWWFDDDDDYWWWWWDkkkkkp******                   ",
"*******************************tkkkkkDWWWWWIkkkkkkWWWWWWWWWWWWWWWWWWDkkkkkp******++++++             ",
"*******************************tkkkkkDWWWWWIkkkkkkWWWWWWWWWWWWWWWWWWDkkkkkp******++++++             ",
"*******************************tkkkkkDWWWWWIkkkkkkWWWWWWWWWWWWWWWWWWDkkkkkp******++++++             ",
"*******************************tkkkkkDWWWWWIkkkkkkWWWWWWWWWWWWWWWWWWDkkkkkp******++++++             ",
"*******************************tkkkkkDWWWWWIkkkkkkWWWWWWWWWWWWWWWWWWDkkkkkp******++++++             ",
"******************.######******tkkkkkMJJJJJBttttttWWWWWWWWWWWWUJJJJJMkkkkkp******++++++             ",
"                   ++++++.*****tkkkkkkkkkkkp******WWWWWWWWWWWWCkkkkkkkkkkkp******++++++             ",
"                   ++++++.*****tkkkkkkkkkkkp******WWWWWWWWWWWWCkkkkkkkkkkka******++++++             ",
"                   ++++++.*****tkkkkkkkkkkkp******WWWWWWWWWWWWCkkkkkkkkkkkp******++++++             ",
"                   ++++++.*****tkkkkkkkkkkkp******WWWWWWWWWWWWCkkkkkkkkkkkp******++++++             ",
"                   ++++++.*****tkkkkkkkkkkkp******WWWWWWWWWWWWCkkkkkkkkkkkp******++++++             ",
"                   ++++++......rdddddhkkkkkp******TTTTTTPPPPPPMkkkkkhdddddy......++++++             ",
"             ++++++++++++++++++#*****9kkkkkp******kkkkkk,*****tkkkkk9*****.++++++++++++++++++       ",
"             ++++++++++++++++++#*****9kkkkkp******kkkkkk,*****tkkkkk9*****.++++++++++++++++++       ",
"             ++++++++++++++++++#*****9kkkkkp******kkkkkk,*****tkkkkk9*****.++++++++++++++++++       ",
"             ++++++++++++++++++#*****9kkkkkp******kkkkkk,*****tkkkkk9*****#++++++++++++++++++       ",
"             ++++++++++++++++++#*****9kkkkkp******kkkkkk,*****tkkkkk9*****.++++++++++++++++++       ",
"             ++++++++++++++++++#*****9kkkkkp******kkkkkk,*****tkkkkk9*****.+++++++++++++++++        ",
"                          ++++++@@@@@$&&&&&&@@@@@@&&&&&&@@@@@@$&&&&&$@@@@@@++++++                   ",
"                          +++++++++++++++++++++++++++++++++++++++++++++++++++++++                   ",
"                          +++++++++++++++++++++++++++++++++++++++++++++++++++++++                   ",
"                          +++++++++++++++++++++++++++++++++++++++++++++++++++++++                   ",
"                          +++++++++++++++++++++++++++++++++++++++++++++++++++++++                   ",
"                          ++++++++++++++++++++++++++++++++++++++++++++++++++++++                    ",
"                                +++++                                +++++                          ",
"                                +++++                                +++++                          ",
"                                +++++                                +++++                          ",
"                                +++++                                +++++                          ",
"                                +++++                                +++++                          ",
"                                +++++                                +++++                          ",
"                                                                                                    ",
"                                                                                                    ",
"                                                                                                    ",
"                                                                                                    ",
"                                                                                                    ",
"                                                                                                    ",
"                                                                                                    "
};
