/* XPM */
static char *result[] = {
/* columns rows colors chars-per-pixel */
"100 100 89 1 ",
"  c #1F100E",
". c #1E100F",
"X c #1E110F",
"o c #0D0F18",
"O c #0C0E1A",
"+ c #120E17",
"@ c #191011",
"# c #1B1111",
"$ c #1D1010",
"% c #20100C",
"& c #20110C",
"* c #21100D",
"= c #20110D",
"- c #21110D",
"; c #22120D",
": c #20110E",
"> c #24130E",
", c #261510",
"< c #261610",
"1 c #291712",
"2 c #291811",
"3 c #2C1912",
"4 c #2D1A13",
"5 c #2E1B13",
"6 c #301E16",
"7 c #311E16",
"8 c #352016",
"9 c #352117",
"0 c #352118",
"q c #362218",
"w c #382319",
"e c #38241B",
"r c #3A251A",
"t c #3B251A",
"y c #3B251B",
"u c #3B261C",
"i c #402A1D",
"p c #442C1F",
"a c #442D1F",
"s c #402A20",
"d c #402B20",
"f c #462E20",
"g c #483021",
"h c #4A3122",
"j c #4B3222",
"k c #503625",
"l c #523826",
"z c #553A27",
"x c #503629",
"c c #553A28",
"v c #583C29",
"b c #593D29",
"n c #593D2A",
"m c #5A3E2D",
"M c #5E402C",
"N c #5F4332",
"B c #60422D",
"V c #61432D",
"C c #62442E",
"Z c #62442F",
"A c #654731",
"S c #644734",
"D c #674930",
"F c #674832",
"G c #6A4B33",
"H c #6B4C33",
"J c #6C4C33",
"K c #704F36",
"L c #755338",
"P c #76543B",
"I c #7A573C",
"U c #7A583D",
"Y c #7B583D",
"T c #7A593E",
"R c #7F5C40",
"E c #7E5D45",
"W c #825D42",
"Q c #846044",
"! c #896448",
"~ c #8B664A",
"^ c #8E694C",
"/ c #916B4E",
"( c #936D50",
") c #936E51",
"_ c #987154",
"` c #9A7456",
"' c #9B7456",
"] c #9D7658",
"[ c None",
/* pixels */
"[[[[[[[[[[[[[[[[[[[[[[[[[[[[[[[[%%%%%------6NNNNNNNNNNNNNNNNNNe------%%%%%[[[[[[[[[[[[[[[[[[[[[[[[[[",
"[[[[[[[[[[[[[[[[[[[[[[[[[[[[[[[*------------------------------------------&[[[[[[[[[[[[[[[[[[[[[[[[[",
"[[[[[[[[[[[[[[[[[[[[[[[[[[[[[[[*------------------------------------------&[[[[[[[[[[[[[[[[[[[[[[[[[",
"[[[[[[[[[[[[[[[[[[[[[[[[[[[[[[[*------------------------------------------&[[[[[[[[[[[[[[[[[[[[[[[[[",
"[[[[[[[[[[[[[[[[[[[[[[[[[[[[[[[*------------------------------------------&[[[[[[[[[[[[[[[[[[[[[[[[[",
"[[[[[[[[[[[[[[[[[[[[[[[[[[[[[[[*------------------------------------------&[[[[[[[[[[[[[[[[[[[[[[[[[",
"[[[[[[[[[[[[[[[[[[[[[[[[[[[[[[[8qqqqqussssssssssssssssssssssssssssssuqqqqq8[[[[[[[[[[[[[[[[[[[[[[[[[",
"[[[[[[[[[[[[[[[[[[[[[[[[[------BLLLLL!]]]]]]]]]]]]]]]]]]]]]]]]]]]]]]!LLLLLB------[[[[[[[[[[[[[[[[[[[",
"[[[[[[[[[[[[[[[[[[[[[[[[[------BLLLLL!]]]]]]]]]]]]]]]]]]]]]]]]]]]]]]!LLLLLB------[[[[[[[[[[[[[[[[[[[",
"[[[[[[[[[[[[[[[[[[[[[[[[[------BLLLLL!]]]]]]]]]]]]]]]]]]]]]]]]]]]]]]!LLLLLB------[[[[[[[[[[[[[[[[[[[",
"[[[[[[[[[[[[[[[[[[[[[[[[[------BLLLLL!]]]]]]]]]]]]]]]]]]]]]]]]]]]]]]!LLLLLB------[[[[[[[[[[[[[[[[[[[",
"[[[[[[[[[[[[[[[[[[[[[[[[[------BLLLLL!]]]]]]]]]]]]]]]]]]]]]]]]]]]]]]!LLLLLB------[[[[[[[[[[[[[[[[[[[",
"[[[[[[[[[[[[[[[[[[[[[[[[[533333AIIIII~]]]]]'__________________']]]]]~IIIIIF333334[[[[[[[[[[[[[[[[[[[",
"[[[[[[[[[[[[[[[[[[[------GLLLLL(]]]]]]]]]]](LLLLLLLLLLLLLLLLLL^]]]]]]]]]]](LLLLLG------[[[[[[[[[[[[[",
"[[[[[[[[[[[[[[[[[[[------GLLLLL(]]]]]]]]]]](LLLLLLLLLLLLLLLLLL^]]]]]]]]]]](LLLLLG------[[[[[[[[[[[[[",
"[[[[[[[[[[[[[[[[[[[------GLLLLL(]]]]]]]]]]](LLLLLLLLLLLLLLLLLL^]]]]]]]]]]](LLLLLG------[[[[[[[[[[[[[",
"[[[[[[[[[[[[[[[[[[[------GLLLLL(]]]]]]]]]]](LLLLLLLLLLLLLLLLLL^]]]]]]]]]]](LLLLLG------[[[[[[[[[[[[[",
"[[[[[[[[[[[[[[[[[[[------GLLLLL(]]]]]]]]]]](LLLLLLLLLLLLLLLLLL^]]]]]]]]]]](LLLLLG------[[[[[[[[[[[[[",
"[[[[[[[[[[[[[[[[[[[------GLLLLL(]]]]]]]]]]](LLLLLLLLLLLLLLLLLL^]]]]]]]]]]](LLLLLG------[[[[[[[[[[[[[",
"[[[[[[[[[[[[[[[[[[[------GLLLLL(]]]]]]]]]]](LLLLLLLLLLLLLLLLLL^]]]]]]]]]]](LLLLLG------[[[[[[[[[[[[[",
"[[[[[[[[[[[[[[[[[[[------GLLLLL(]]]]]]]]]]](LLLLLLLLLLLLLLLLLL^]]]]]]]]]]](LLLLLG------[[[[[[[[[[[[[",
"[[[[[[[[[[[[[[[[[[[------GLLLLL(]]]]]]]]]]](LLLLLLLLLLLLLLLLLL^]]]]]]]]]]](LLLLLG------[[[[[[[[[[[[[",
"[[[[[[[[[[[[[[[[[[[------GLLLLL(]]]]]]]]]]](LLLLLLLLLLLLLLLLLL^]]]]]]]]]]](LLLLLG------[[[[[[[[[[[[[",
"[[[[[[[[[[[[[[[[[[[------GLLLLL(]]]]]]]]]]](LLLLLLLLLLLLLLLLLL^]]]]]]]]]]](LLLLLG------[[[[[[[[[[[[[",
"[[[[[[[[[[[[[[[[[[[------GLLLLL(]]]]]]]]]]](LLLLLLLLLLLLLLLLLL^]]]]]]]]]]](LLLLLG------[[[[[[[[[[[[[",
"[[[[[[[[[[[[[[[[[[[------cMMMMMUQQQQQ/]]]]]`^^^^^^^^^^^^^^^^^^_]]]]]/QQQQQTMMMMMc------[[[[[[[[[[[[[",
"[[[[[[[[[[[[[[[[[[[------hkkkkkJLLLLL!]]]]]]]]]]]]]]]]]]]]]]]]]]]]]]!LLLLLHkkkkkh------[[[[[[[[[[[[[",
"[[[[[[[[[[[[[[[[[[[------hkkkkkJLLLLL!]]]]]]]]]]]]]]]]]]]]]]]]]]]]]]!LLLLLHkkkkkh------[[[[[[[[[[[[[",
"[[[[[[[[[[[[[[[[[[[------hkkkkkJLLLLL!]]]]]]]]]]]]]]]]]]]]]]]]]]]]]]!LLLLLHkkkkkh------[[[[[[[[[[[[[",
"[[[[[[[[[[[[[[[[[[[------hkkkkkJLLLLL!]]]]]]]]]]]]]]]]]]]]]]]]]]]]]]!LLLLLHkkkkkh------[[[[[[[[[[[[[",
"[[[[[[[[[[[[[[[[[[[------hkkkkkJLLLLL!]]]]]]]]]]]]]]]]]]]]]]]]]]]]]]!LLLLLHkkkkkh------[[[[[[[[[[[[[",
"%%%%%%%%%%%%%%%%%%%------0wwwwwvCCCCCP!!!!!!!!!!!!!!!!!!!!!!!!!!!!!!PCCCCCvwwwww9------[[[[[[[[[[[[[",
"-------------------------------akkkkkCLLLLLLLLLLLLLLLLLLLLLLLLLLLLLLCkkkkkp------------[[[[[[[[[[[[[",
"-------------------------------akkkkkCLLLLLLLLLLLLLLLLLLLLLLLLLLLLLLCkkkkkp------------[[[[[[[[[[[[[",
"-------------------------------akkkkkCLLLLLLLLLLLLLLLLLLLLLLLLLLLLLLCkkkkkp------------[[[[[[[[[[[[[",
"-------------------------------akkkkkCLLLLLLLLLLLLLLLLLLLLLLLLLLLLLLCkkkkkp------------[[[[[[[[[[[[[",
"-------------------------------akkkkkCLLLLLLLLLLLLLLLLLLLLLLLLLLLLLLCkkkkkp------------[[[[[[[[[[[[[",
"sssssssssssssssssssssssss1-----tppppplBBBBBBBBBBBBBBBBBBBBBBBBBBBBBBlpppppy------%%%%%%[[[[[[[[[[[[[",
"]]]]]]]]]]]]]]]]]]]]]]]]]7-------------------------------------------------------[[[[[[[[[[[[[[[[[[[",
"]]]]]]]]]]]]]]]]]]]]]]]]]7-------------------------------------------------------[[[[[[[[[[[[[[[[[[[",
"]]]]]]]]]]]]]]]]]]]]]]]]]7-------------------------------------------------------[[[[[[[[[[[[[[[[[[[",
"]]]]]]]]]]]]]]]]]]]]]]]]]7-------------------------------------------------------[[[[[[[[[[[[[[[[[[[",
"]]]]]]]]]]]]]]]]]]]]]]]]]7-------------------------------------------------------[[[[[[[[[[[[[[[[[[[",
")))))))))))))))))))______7-----<<<<<<<<<<<<2333333<<<<<<3333333333332<<<<<>------[[[[[[[[[[[[[[[[[[[",
"bkkkkkkkkkkkkkkkkkzLLLLLL3-----akkkkkkkkkkknLLLLLKkkkkkkKLLLLLLLLLLLCkkkkkp------[[[[[[[[[[[[[[[[[[[",
"bkkkkkkkkkkkkkkkkkzLLLLLL3-----akkkkkkkkkkknLLLLLKkkkkkkKLLLLLLLLLLLCkkkkkp------[[[[[[[[[[[[[[[[[[[",
"bkkkkkkkkkkkkkkkkkzLLLLLL3-----akkkkkkkkkkknLLLLLKkkkkkkKLLLLLLLLLLLCkkkkkp------[[[[[[[[[[[[[[[[[[[",
"bkkkkkkkkkkkkkkkkkzLLLLLL3-----akkkkkkkkkkknLLLLLKkkkkkkKLLLLLLLLLLLCkkkkkp------[[[[[[[[[[[[[[[[[[[",
"bkkkkkkkkkkkkkkkkkzLLLLLL3-----akkkkkkkkkkknLLLLLKkkkkkkKLLLLLLLLLLLCkkkkkp------[[[[[[[[[[[[[[[[[[[",
"bkkkkkkkkkkkkkkkkkzLLLLLL3-----akkkkkkkkkkknLLLLLKkkkkkkKLLLLLLLLLLLCkkkkkp------[[[[[[[[[[[[[[[[[[[",
"lkkkkkkkkkkknKKKKKKLLLLLL3-----akkkkkVKKKKKY______))))))______WLLLLLCkkkkkp------[[[[[[[[[[[[[[[[[[[",
"kkkkkkkkkkkknLLLLLLLLLLLL3-----akkkkkCLLLLLR]]]]]]]]]]]]]]]]]]QLLLLLCkkkkkp------[[[[[[[[[[[[[[[[[[[",
"kkkkkkkkkkkknLLLLLLLLLLLL3-----akkkkkCLLLLLR]]]]]]]]]]]]]]]]]]QLLLLLCkkkkkp------[[[[[[[[[[[[[[[[[[[",
"kkkkkkkkkkkknLLLLLLLLLLLL3-----akkkkkCLLLLLR]]]]]]]]]]]]]]]]]]QLLLLLCkkkkkp------[[[[[[[[[[[[[[[[[[[",
"kkkkkkkkkkkknLLLLLLLLLLLL3-----akkkkkCLLLLLR]]]]]]]]]]]]]]]]]]QLLLLLCkkkkkp------[[[[[[[[[[[[[[[[[[[",
"kkkkkkkkkkkknLLLLLLLLLLLL3-----akkkkkCLLLLLR]]]]]]]]]]]]]]]]]]QLLLLLCkkkkkp------[[[[[[[[[[[[[[[[[[[",
"ZDDDDDDDDDDDCMMMMMBLLLLLL3-----akkkkkgiiiiim]]]]]]]]]]]]]]]]]]Siiiiigkkkkkp------[[[[[[[[[[[[[[[[[[[",
"JLLLLLLLLLLLHkkkkkzLLLLLL3-----akkkkkw-----s]]]]]]]]]]]]]]]]]]x-----wkkkkkp------[[[[[[[[[[[[[[[[[[[",
"JLLLLLLLLLLLHkkkkkzLLLLLL3-----akkkkkw-----s]]]]]]]]]]]]]]]]]]x-----wkkkkkp------[[[[[[[[[[[[[[[[[[[",
"JLLLLLLLLLLLHkkkkkzLLLLLL3-----akkkkkw-----s]]]]]]]]]]]]]]]]]]x-----wkkkkkp------[[[[[[[[[[[[[[[[[[[",
"JLLLLLLLLLLLHkkkkkzLLLLLL3-----akkkkkw-----s]]]]]]]]]]]]]]]]]]x-----wkkkkkp------[[[[[[[[[[[[[[[[[[[",
"JLLLLLLLLLLLHkkkkkzLLLLLL3-----akkkkkw-----s]]]]]]]]]]]]]]]]]]x-----wkkkkkp------[[[[[[[[[[[[[[[[[[[",
"fjjjjjjjjjjjfwwwwwrjjjjjj,-----akkkkkw-----s]]]]]]]]]]]]]]]]]]x-----wkkkkkp-----=[[[[[[[[[[[[[[[[[[[",
"-------------------------------akkkkkw-----s]]]]]]]]]]]]]]]]]]x-----wkkkkkp-----:OOOOOO[[[[[[[[[[[[[",
"-------------------------------akkkkkw-----s]]]]]]]]]]]]]]]]]]x-----wkkkkkp-----:OOOOOO[[[[[[[[[[[[[",
"-------------------------------akkkkkw-----s]]]]]]]]]]]]]]]]]]x-----wkkkkkp-----:OOOOOO[[[[[[[[[[[[[",
"-------------------------------akkkkkw-----s]]]]]]]]]]]]]]]]]]x-----wkkkkkp-----:OOOOOO[[[[[[[[[[[[[",
"-------------------------------akkkkkw-----s]]]]]]]]]]]]]]]]]]x-----wkkkkkp-----:OOOOOO[[[[[[[[[[[[[",
"%%%%%%%%%%%%%%%%%%%......------akkkkkw-----s]]]]]]]]]]]]]]]]]]x-----wkkkkkp-----:OOOOOO[[[[[[[[[[[[[",
"[[[[[[[[[[[[[[[[[[[OOOOOO -----akkkkkw-----s]]]]]]]]]]]]]]]]]]x-----wkkkkkp-----:OOOOOO[[[[[[[[[[[[[",
"[[[[[[[[[[[[[[[[[[[OOOOOO -----akkkkkw-----s]]]]]]]]]]]]]]]]]]x-----wkkkkkp-----:OOOOOO[[[[[[[[[[[[[",
"[[[[[[[[[[[[[[[[[[[OOOOOO -----akkkkkw-----s]]]]]]]]]]]]]]]]]]x-----wkkkkkp-----:OOOOOO[[[[[[[[[[[[[",
"[[[[[[[[[[[[[[[[[[[OOOOOO -----akkkkkw-----s]]]]]]]]]]]]]]]]]]x-----wkkkkkp-----:OOOOOO[[[[[[[[[[[[[",
"[[[[[[[[[[[[[[[[[[[OOOOOO -----akkkkkw-----s]]]]]]]]]]]]]]]]]]x-----wkkkkkp-----:OOOOOO[[[[[[[[[[[[[",
"[[[[[[[[[[[[[[[[[[[OOOOOO -----akkkkkw-----s]]]]]]]]]]]]]]]]]]x-----wkkkkkp-----:OOOOOO[[[[[[[[[[[[[",
"[[[[[[[[[[[[[OOOOOOOOOOOOOOOOOOX-----------s]]]]]]]]]]]]]]]]]]x-----------.OOOOOOOOOOOOOOOOOO[[[[[[[",
"[[[[[[[[[[[[[OOOOOOOOOOOOOOOOOOX-----------s]]]]]]]]]]]]]]]]]]x-----------.OOOOOOOOOOOOOOOOOO[[[[[[[",
"[[[[[[[[[[[[[OOOOOOOOOOOOOOOOOOX-----------s]]]]]]]]]]]]]]]]]]x-----------.OOOOOOOOOOOOOOOOOO[[[[[[[",
"[[[[[[[[[[[[[OOOOOOOOOOOOOOOOOOX-----------s]]]]]]]]]]]]]]]]]]x-----------.OOOOOOOOOOOOOOOOOO[[[[[[[",
"[[[[[[[[[[[[[OOOOOOOOOOOOOOOOOOX-----------s]]]]]]]]]]]]]]]]]]x-----------.OOOOOOOOOOOOOOOOOO[[[[[[[",
"[[[[[[[[[[[[[OOOOOOOOOOOOOOOOOOX-----------s]]]]]]]]]]]]]]]]]]x-----------.OOOOOOOOOOOOOOOOO[[[[[[[[",
"[[[[[[[[[[[[[[[[[[[[[[[[[[OOOOOo+++++#-----s]]]]]]]]]]]]]]]]]]x-----#++++++OOOOO[[[[[[[[[[[[[[[[[[[[",
"[[[[[[[[[[[[[[[[[[[[[[[[[[OOOOOOOOOOO@-----s]]]]]]]]]]]]]]]]]]x-----@OOOOOOOOOOO[[[[[[[[[[[[[[[[[[[[",
"[[[[[[[[[[[[[[[[[[[[[[[[[[OOOOOOOOOOO@-----s]]]]]]]]]]]]]]]]]]x-----@OOOOOOOOOOO[[[[[[[[[[[[[[[[[[[[",
"[[[[[[[[[[[[[[[[[[[[[[[[[[OOOOOOOOOOO@-----s]]]]]]]]]]]]]]]]]]x-----@OOOOOOOOOOO[[[[[[[[[[[[[[[[[[[[",
"[[[[[[[[[[[[[[[[[[[[[[[[[[OOOOOOOOOOO@-----s]]]]]]]]]]]]]]]]]]x-----@OOOOOOOOOOO[[[[[[[[[[[[[[[[[[[[",
"[[[[[[[[[[[[[[[[[[[[[[[[[[OOOOOOOOOOO@-----s]]]]]]]]]]]]]]]]]]x-----@OOOOOOOOOOO[[[[[[[[[[[[[[[[[[[[",
"[[[[[[[[[[[[[[[[[[[[[[[[[[[[[[[[OOOOO@-----s]]]]]]]]]]]]]]]]]]x-----@OOOOO[[[[[[[[[[[[[[[[[[[[[[[[[[",
"[[[[[[[[[[[[[[[[[[[[[[[[[[[[[[[[OOOOO@-----s]]]]]]]]]]]]]]]]]]x-----@OOOOO[[[[[[[[[[[[[[[[[[[[[[[[[[",
"[[[[[[[[[[[[[[[[[[[[[[[[[[[[[[[[OOOOO@-----s]]]]]]]]]]]]]]]]]]x-----@OOOOO[[[[[[[[[[[[[[[[[[[[[[[[[[",
"[[[[[[[[[[[[[[[[[[[[[[[[[[[[[[[[OOOOO@-----s]]]]]]]]]]]]]]]]]]x-----@OOOOO[[[[[[[[[[[[[[[[[[[[[[[[[[",
"[[[[[[[[[[[[[[[[[[[[[[[[[[[[[[[[OOOOO@-----s]]]]]]]]]]]]]]]]]]x-----@OOOOO[[[[[[[[[[[[[[[[[[[[[[[[[[",
"[[[[[[[[[[[[[[[[[[[[[[[[[[[[[[[[OOOOO@-----s]]]]]]]]]]]]]]]]]]x-----@OOOOO[[[[[[[[[[[[[[[[[[[[[[[[[[",
"[[[[[[[[[[[[[[[[[[[[[[[[[[[[[[[[[[[[[$-----s]]]]]]]]]]]]]]]]]]x-----$[[[[[[[[[[[[[[[[[[[[[[[[[[[[[[[",
"[[[[[[[[[[[[[[[[[[[[[[[[[[[[[[[[[[[[[%-----s]]]]]]]]]]]]]]]]]]x-----%[[[[[[[[[[[[[[[[[[[[[[[[[[[[[[[",
"[[[[[[[[[[[[[[[[[[[[[[[[[[[[[[[[[[[[[%-----s]]]]]]]]]]]]]]]]]]x-----%[[[[[[[[[[[[[[[[[[[[[[[[[[[[[[[",
"[[[[[[[[[[[[[[[[[[[[[[[[[[[[[[[[[[[[[%-----s]]]]]]]]]]]]]]]]]]x-----%[[[[[[[[[[[[[[[[[[[[[[[[[[[[[[[",
"[[[[[[[[[[[[[[[[[[[[[[[[[[[[[[[[[[[[[%-----s]]]]]]]]]]]]]]]]]]x-----%[[[[[[[[[[[[[[[[[[[[[[[[[[[[[[[",
"[[[[[[[[[[[[[[[[[[[[[[[[[[[[[[[[[[[[[%-----s]]]]]]]]]]]]]]]]]]x-----%[[[[[[[[[[[[[[[[[[[[[[[[[[[[[[[",
"[[[[[[[[[[[[[[[[[[[[[[[[[[[[[[[[[[[[[;-----eEEEEEEEEEEEEEEEEEEd-----;[[[[[[[[[[[[[[[[[[[[[[[[[[[[[[["
};
