/* XPM */
static char *_a5019a924da4433ca959463e8aa1c71Z5b8dB9cJV4dFarj[] = {
/* columns rows colors chars-per-pixel */
"100 100 87 1 ",
"  c None",
". c #1F110C",
"X c #1F100E",
"o c #1E100F",
"O c #1E110F",
"+ c #0D0F18",
"@ c #0C0E1A",
"# c #120E17",
"$ c #1C1010",
"% c #171319",
"& c #1A171C",
"* c #1B171C",
"= c #200F0C",
"- c #20100C",
"; c #20100D",
": c #21100D",
"> c #20110D",
", c #21110D",
"< c #22100D",
"1 c #20120C",
"2 c #20110E",
"3 c #24130E",
"4 c #261610",
"5 c #271610",
"6 c #291711",
"7 c #291712",
"8 c #291811",
"9 c #2B1912",
"0 c #2C1912",
"q c #2D1A13",
"w c #301E16",
"e c #331F16",
"r c #352117",
"t c #352118",
"y c #382319",
"u c #3A251A",
"i c #3D271B",
"p c #3C261C",
"a c #3E281C",
"s c #402A1D",
"d c #412A1E",
"f c #442C1F",
"g c #442D1F",
"h c #462E20",
"j c #483023",
"k c #4A3122",
"l c #4A3222",
"z c #4B3222",
"x c #4D3423",
"c c #4F3629",
"v c #503625",
"b c #513725",
"n c #523826",
"m c #553A27",
"M c #583C29",
"N c #593D29",
"B c #593D2A",
"V c #5B3F2B",
"C c #5D402D",
"Z c #5E402C",
"A c #60422D",
"S c #62442E",
"D c #64462F",
"F c #644630",
"G c #654731",
"H c #674830",
"J c #674930",
"K c #694A32",
"L c #6A4B33",
"P c #6C4C33",
"I c #6E4D35",
"U c #704F36",
"Y c #715037",
"T c #755338",
"R c #75543A",
"E c #76543B",
"W c #7A573C",
"Q c #7F5C40",
"! c #896448",
"~ c #8B664A",
"^ c #8E694C",
"/ c #936D50",
"( c #936E51",
") c #987154",
"_ c #987254",
"` c #9B7456",
"' c #9D7658",
/* pixels */
"                                  ------------------------------------------                        ",
"                                 --------------------------------------------                       ",
"                                 --------------------------------------------                       ",
"                                 --------------------------------------------                       ",
"                                 --------------------------------------------                       ",
"                                 --------------------------------------------                       ",
"                                 ddddddjccccccccccccccccccccccccccccccjdddddi                       ",
"                           ------ATTTTT!''''''''''''''''''''''''''''''!TTTTTm------                 ",
"                           ------ATTTTT!''''''''''''''''''''''''''''''!TTTTTm------                 ",
"                           ------ATTTTT!''''''''''''''''''''''''''''''!TTTTTm------                 ",
"                           ------ATTTTT!''''''''''''''''''''''''''''''!TTTTTm------                 ",
"                           ------ATTTTT!''''''''''''''''''''''''''''''!TTTTTm------                 ",
"                           000000GWWWWW!'''''`))))))))))))))))))''''''!WWWWWZ000000                 ",
"                     ------TTTTTT/'''''''''''^TTTTTTTTTTTTTTTTTT/'''''''''''^TTTTTL------           ",
"                     ------TTTTTT/'''''''''''^TTTTTTTTTTTTTTTTTT/'''''''''''^TTTTTL------           ",
"                     ------TTTTTT/'''''''''''^TTTTTTTTTTTTTTTTTT/'''''''''''^TTTTTL------           ",
"                     ------TTTTTT/'''''''''''^TTTTTTTTTTTTTTTTTT/'''''''''''^TTTTTL------           ",
"                     ------TTTTTT/'''''''''''^TTTTTTTTTTTTTTTTTT/'''''''''''^TTTTTL------           ",
"                     ------TTTTTT/'''''''''''^TTTTTTTTTTTTTTTTTT/'''''''''''^TTTTTL------           ",
"                     ------TTTTTT/'''''''''''^TTTTTTTTTTTTTTTTTT/'''''''''''^TTTTTL------           ",
"                     ------TTTTTT/'''''''''''^TTTTTTTTTTTTTTTTTT/'''''''''''^TTTTTL------           ",
"                     ------TTTTTT/'''''''''''^TTTTTTTTTTTTTTTTTT/'''''''''''^TTTTTL------           ",
"                     ------TTTTTT/'''''''''''^TTTTTTTTTTTTTTTTTT/'''''''''''^TTTTTL------           ",
"                     ------TTTTTT/'''''''''''^TTTTTTTTTTTTTTTTTT/'''''''''''^TTTTTL------           ",
"                     ------TTTTTT/'''''''''''^TTTTTTTTTTTTTTTTTT/'''''''''''^TTTTTL------           ",
"                     ------BBBBBBRQQQQQ^''''')//////////////////`'''''^QQQQQYBBBBBv------           ",
"                     ------vvvvvvPTTTTT!''''''''''''''''''''''''''''''!TTTTTHvvvvvj------           ",
"                     ------vvvvvvPTTTTT!''''''''''''''''''''''''''''''!TTTTTHvvvvvj------           ",
"                     ------vvvvvvPTTTTT!''''''''''''''''''''''''''''''!TTTTTHvvvvvj------           ",
"                     ------vvvvvvPTTTTT!''''''''''''''''''''''''''''''!TTTTTHvvvvvj------           ",
"                     ------vvvvvvPTTTTT!''''''''''''''''''''''''''''''!TTTTTHvvvvvj------           ",
"---------------------------yyyyyyBSSSSSR!!!!!!!!!!!!!!!!!!!!!!!!!!!!!!RSSSSSnyyyyyr-----------------",
"---------------------------------gvvvvvSTTTTTTTTTTTTTTTTTTTTTTTTTTTTTTSvvvvva-----------------------",
"---------------------------------gvvvvvSTTTTTTTTTTTTTTTTTTTTTTTTTTTTTTSvvvvva-----------------------",
"---------------------------------gvvvvvSTTTTTTTTTTTTTTTTTTTTTTTTTTTTTTSvvvvva-----------------------",
"---------------------------------gvvvvvSTTTTTTTTTTTTTTTTTTTTTTTTTTTTTTSvvvvva-----------------------",
"---------------------------------gvvvvvSTTTTTTTTTTTTTTTTTTTTTTTTTTTTTTSvvvvva-----------------------",
"ccccccccccccccccccccccccccc------taaaaajmmmmmmmmmmmmmmmmmmmmmmmmmmmmmmjaaaaae-----6ccccccccccccccccc",
"'''''''''''''''''''''''''''-------------------------------------------------------e'''''''''''''''''",
"'''''''''''''''''''''''''''-------------------------------------------------------e'''''''''''''''''",
"'''''''''''''''''''''''''''-------------------------------------------------------e'''''''''''''''''",
"'''''''''''''''''''''''''''-------------------------------------------------------e'''''''''''''''''",
"'''''''''''''''''''''''''''-------------------------------------------------------e'''''''''''''''''",
"))///////////////////))))))------44444444444480000004444440000000000008444443-----e//////)))))))))))",
"TTBvvvvvvvvvvvvvvvvvmTTTTTT------gvvvvvvvvvvvZTTTTTUvvvvvvUTTTTTTTTTTTSvvvvva-----4vvvvvvUTTTTTTTTTT",
"TTBvvvvvvvvvvvvvvvvvmTTTTTT------gvvvvvvvvvvvZTTTTTUvvvvvvUTTTTTTTTTTTSvvvvva-----4vvvvvvUTTTTTTTTTT",
"TTBvvvvvvvvvvvvvvvvvmTTTTTR------gvvvvvvvvvvvZTTTTTUvvvvvvUTTTTTTTTTTTSvvvvva-----4vvvvvvUTTTTTTTTTT",
"TTBvvvvvvvvvvvvvvvvvmTTTRRR------gvvvvvvvvvvvZTTTTTUvvvvvvUTTTTTTTTTTTSvvvvva-----4vvvvvvUTTTTTTTTTT",
"TTBvvvvvvvvvvvvvvvvvmTTTTTT------gvvvvvvvvvvvZTTTTTUvvvvvvUTTTTTTTTTTTSvvvvva-----4vvvvvvUTTTTTTTTTT",
"TTBvvvvvvvvvvvvvvvvvmTTTTTT------gvvvvvvvvvvvZTTTTTUvvvvvvUTTTTTTTTTTTSvvvvva-----4vvvvvvUTTTTTTTTTT",
"vvvvvvvvvvvvvvZTTTTTTTTTTTT------gvvvvvSTTTTTTTTTTTTTTTTTTmvvvvvPTTTTTSvvvvva-----8TTTTTTmvvvvvvvvvv",
"vvvvvvvvvvvvvvZTTTTTTTTTTTT------gvvvvvSTTTTTTTTTTTTTTTTTTmvvvvvPTTTTTSvvvvva-----8TTTTTTmvvvvvvvvvv",
"vvvvvvvvvvvvvvZTTTTTTTTTTTT------gvvvvvSTTTTTTTTTTTTTTTTTTmvvvvvPTTTTTSvvvvva-----8TTTTTTmvvvvvvvvvv",
"vvvvvvvvvvvvvvZTTTTTTTTTTTT------gvvvvvSTTTTTTTTTTTTTTTTTTmvvvvvPTTTTTSvvvvva-----8TTTTTTmvvvvvvvvvv",
"vvvvvvvvvvvvvvZTTTTTTTTTTTT------gvvvvvSTTTTTTTTTTTTTTTTTTmvvvvvPTTTTTSvvvvva-----8TTTTTTmvvvvvvvvvv",
"vvvvvvvvvvvvvvZTTTTTTTTTTTT------gvvvvvSTTTTTTTTTTTTTTTTTTmvvvvvPTTTTTSvvvvva-----8TTTTTTmvvvvvvvvvv",
"vvGPPPPPPPPPPPHBBBBBBTTTTTT------gvvvvvSTTTTTTTTTTTTTTTTTTmvvvvvPTTTTTSvvvvva-----6BBBBBBvvvvvvvvvvv",
"vvPTTTTTTTTTTTHvvvvvmTTTTTT------gvvvvvSTTTTTTTTTTTTTTTTTTmvvvvvPTTTTTSvvvvva-----4vvvvvvvvvvvvvvvvv",
"vvPTTTTTTTTTTTHvvvvvmTTTTTT------gvvvvvSTTTTTTTTTTTTTTTTTTmvvvvvPTTTTTSvvvvva-----6vvvvvvvvvvvvvvvvv",
"vvPTTTRRTTTTTTHvvvvvmTTTTTR------gvvvvvSTTTTTTTTTTTTTTTTTTmvvvvvPTTTTTSvvvvva-----4vvvvvvvvvvvvvvvvv",
"vvPTTTTRTTTTTTHvvvvvmTTTTTT------gvvvvvSTTTTTTTTTTTTTTTTTTmvvvvvPTTTTTSvvvvva-----4vvvvvvvvvvvvvvvvv",
"vvPTTTTRTTTTTTHvvvvvmRTTTTT------gvvvvvSTTTTTTTTTTTTTTTTTTmvvvvvPTTTTTSvvvvva-----4vvvvvvvvvvvvvvvvv",
"yyhjjjjjzzjjjjgyyyyyuzjjjjj------gvvvvvSTTTTTISSSSSDTTTTTTGSSSSSUTTTTTSvvvvva-----3yyyyyyyyyyyyyyyyy",
"---------------------------------gvvvvvSTTTTTHvvvvvmTTTTTTTTTTTTTTTTTTSvvvvva-----------------------",
"---------------------------------gvvvvvSTTTTTHvvvvvmTTTTTTTTTTTTTTTTTTSvvvvva-----------------------",
"---------------------------------gvvvvvSTTTTTHvvvvvmTTTTTTTTTTTTTTTTTTSvvvvva-----------------------",
"---------------------------------gvvvvvSTTTTTHvvvvvmTTTTTTTTTTTTTTTTTTSvvvvva-----------------------",
"---------------------------------gvvvvvSTTTTTHvvvvvmTTTTTTTTTTTTTTTTTTSvvvvva-----------------------",
"--------------------.$$$$$$------gvvvvvBHHHHHBaaaaahTTTTTTTTTTTTLHHHHHBvvvvva------$$$$$$=----------",
"                     @@@@@@------gvvvvvvvvvvva-----8TTTTTTTTTTTTBvvvvvvvvvvva------@@@@@@           ",
"                     @@@@@@------gvvvvvvvvvvva-----8TTTTTTTTTTTTBvvvvvvvvvvva------@@@@@@           ",
"                     @@@@@@------gvvvvvvvvvvva-----8TTTTTTTTTTTTBvvvvvvvvvvva------@@@@@@           ",
"                     @@@@@@------hvvvvvvvvvvva-----8TTTTTTTTTTTTBvvvvvvvvvvva------@@@@@@           ",
"                     @@@@@@------hvvvvvvvvvvva-----8TTTTTTTTTTTTBvvvvvvvvvvva------@@@@@@           ",
"                     @@@@@@......ajjjjjxvvvvva-----8UUUUUULLLLLLBvvvvvxjjjjjp......@@@@@@           ",
"               @@@@@@@@@@@@@@@@@@$-----yvvvvva-----4vvvvvv4-----gvvvvvy-----$@@@@@@@@@@@@@@@@@@     ",
"               @@@@@@@@@@@@@@@@@@.-----yvvvvva-----4vvvvvv4-----gvvvvvy-----$@@@@@@@@@@@@@@@@@@     ",
"               @@@@@@@@@@@@@@@@@@.-----yvvvvva-----6vvvvvv4-----gvvvvvy-----$@@@@@@@@@@@@@@@@@@     ",
"               @@@@@@@@@@@@@@@@@@.-----yvvvvva-----6vvvvvv4-----gvvvvvy-----$@@@@@@@@@@@@@@@@@@     ",
"               @@@@@@@@@@@@@@@@@@.-----yvvvvva-----6vvvvvv4-----gvvvvvy-----$@@@@@@@@@@@@@@@@@@     ",
"               @@@@@@@@@@@@@@@@@@.-----yvvvvva-----4vvvvvv4-----gvvvvvy-----$@@@@@@@@@@@@@@@@@      ",
"                           @@@@@@@#####%&&&&&%######&&&&&&######%&&&&&%#####@@@@@@                  ",
"                           @@@@@@@@@@@@@@@@@@@@@@@@@@@@@@@@@@@@@@@@@@@@@@@@@@@@@@@                  ",
"                           @@@@@@@@@@@@@@@@@@@@@@@@@@@@@@@@@@@@@@@@@@@@@@@@@@@@@@@                  ",
"                           @@@@@@@@@@@@@@@@@@@@@@@@@@@@@@@@@@@@@@@@@@@@@@@@@@@@@@@                  ",
"                           @@@@@@@@@@@@@@@@@@@@@@@@@@@@@@@@@@@@@@@@@@@@@@@@@@@@@@@                  ",
"                           @@@@@@@@@@@@@@@@@@@@@@@@@@@@@@@@@@@@@@@@@@@@@@@@@@@@@@@                  ",
"                                  @@@@@                                @@@@@                        ",
"                                  @@@@@                                @@@@@                        ",
"                                  @@@@@                                @@@@@                        ",
"                                  @@@@@                                @@@@@                        ",
"                                  @@@@@                                @@@@@                        ",
"                                  @@@@@                                @@@@@                        ",
"                                                                                                    ",
"                                                                                                    ",
"                                                                                                    ",
"                                                                                                    ",
"                                                                                                    ",
"                                                                                                    ",
"                                                                                                    "
};
