/* XPM */
static char *fab5c1397b6543aec72018747d1dd9754nU9hUZ3aI7nPsSh[] = {
/* columns rows colors chars-per-pixel */
"64 64 43 1 ",
"  c #FF7700",
". c #FF7D00",
"X c #EB771F",
"o c #EC771F",
"O c #D8773E",
"+ c #D9783E",
"@ c #C5775D",
"# c #C6785D",
"$ c #FF8300",
"% c #FF8400",
"& c #FF8900",
"* c #FF8D00",
"= c #FF9700",
"- c #FF9A00",
"; c #FF9D00",
": c #EC8A1F",
"> c #F58610",
", c #F59310",
"< c #F59410",
"1 c #FFA300",
"2 c #FFA700",
"3 c #FFAA00",
"4 c #FFAF10",
"5 c #FFB520",
"6 c #FFBF40",
"7 c #FFCA5F",
"8 c #FFCA60",
"9 c #797ADA",
"0 c #707AE9",
"q c #667AF9",
"w c #9F799C",
"e c #A97C8B",
"r c #A87C8C",
"t c #8C79BA",
"y c #8279CA",
"u c #FFD480",
"i c #FFDF9F",
"p c #FFDFA0",
"a c #FFE9BF",
"s c #FFEECF",
"d c #FFF4DF",
"f c #FFFAEF",
"g c white",
/* pixels */
"qqqqqqqqqqqqqqqqqqqqqqqqqqqqqqqqqqqqqqqqqqqqqqqqqqqqqqqqqqqqqqqq",
"qqqqqqqqqqqqqqqqqqqqqqqqqqqqqqqqqqqqqqqqqqqqqqqqqqqqqqqqqqqqqqqq",
"qqqqqqqqqqqqqqqqqqqqqqqqqqqqqqqqqqqqqqqqqqqqqqqqqqqqqqqqqqqqqqqq",
"qqqqqqqqqqqqqqqqqqqqqqqqqqqqqqqqqqqqqqqqqqqqqqqqqqqqqqqqqqqqqqqq",
"qqqqqqqqqqqqqqqqqqqqqqqqqqqqqqqqqqqqqqqqqqqqqqqqqqqqqqqqqqqqqqqq",
"qqqqqqqqqqqqqqqqqqqqqqqqqqqqqqqqqqqqqqqqqqqqqqqqqqqqqqqqqqqqqqqq",
"qqqqqqqqqqqqqqqqqqqqqqqqqqqqqqqqqqqqqqqqqqqqqqqqqqqqqqqqqqqqqqqq",
"qqqqqqqqqqqqqqqqqqqqqqqqqqqqqqqqqqqqqqqqqqqqqqqqqqqqqqqqqqqqqqqq",
"qqqqqqqqqqqqqqqqqqqqqqqqqqqqqqqqqqqqqqqqqqqqqqqqqqqqqqqqqqqqqqqq",
"qqqqqqqqqqqqqqqqqqqqqqqqqqqqqqqqqqqqqqqqqqqqqqqqqqqqqqqqqqqqqqqq",
"qqqqqqqqqqqqqqqqqqqqqqqqq+            Oqqqqqqqqqqqqqqqqqqqqqqqqq",
"qqqqqqqqqqqqqqqqqqqqqqqqq+            Oqqqqqqqqqqqqqqqqqqqqqqqqq",
"qqqqqqqqqqqqqqqqqqq0+++++<;;;;;;;;;;;;<+++++9qqqqqqqqqqqqqqqqqqq",
"qqqqqqqqqqqqqqqqqqq9     ;333333333333;     9qqqqqqqqqqqqqqqqqqq",
"qqqqqqqqqqqqqqqqq99t.....;3333333333331.....t99qqqqqqqqqqqqqqqqq",
"qqqqqqqqqqqqqqqqqX .333333333333333333333333. oqqqqqqqqqqqqqqqqq",
"qqqqqqqqqqqqqqqqqX .333333333333333333333333. oqqqqqqqqqqqqqqqqq",
"qqqqqqqqqqqqqqtww>&*333333338863368833333333*&>wwtqqqqqqqqqqqqqq",
"qqqqqqqqqqqqqq#  13333333333ggi33pgg33333333332  #qqqqqqqqqqqqqq",
"qqqqqqqqqqqqqq#  13333333333ggi33pgg33333333332  #qqqqqqqqqqqqqq",
"qqqqqqqqqqqy##:==23333333333ggi33pgg33333333332==:##9qqqqqqqqqqq",
"qqqqqqqqqqqt  =3333333333333ggi33pgg3333333333333=  tqqqqqqqqqqq",
"qqqqqqqqqqqt  =3333333333333ggi33pgg3333333333333=  tqqqqqqqqqqq",
"qqqqqqqqqqqt  =3333333uggggggggggggggga3333333333=  tqqqqqqqqqqq",
"qqqqqqqqqqqt  =3333333uggggggggggggggga3333333333=  tqqqqqqqqqqq",
"qqqqqqqqqttr$$;33333338aafggggfaaaaaggs6653333333-$$ettqqqqqqqqq",
"qqqqqqqqq  $3333333333333aggggi33333gggggu3333333333%  qqqqqqqqq",
"qqqqqqqqq  $3333333333333aggggi33333gggggu3333333333%  qqqqqqqqq",
"qqqqqqqqq  $3333333333333aggggi33333gggggu3333333333%  qqqqqqqqq",
"qqqqqqqqq  $3333333333333aggggi33333gggggu3333333333%  qqqqqqqqq",
"qqqqqqqqq  $3333333333333aggggi33333gggggu3333333333%  qqqqqqqqq",
"qqqqqqqqq  $3333333333333aggggfdddddgga5543333333333%  qqqqqqqqq",
"qqqqqqqqq  $3333333333333agggggggggggga3333333333333%  qqqqqqqqq",
"qqqqqqqqq  $3333333333333aggggfdddddggs5543333333333%  qqqqqqqqq",
"qqqqqqqqq  $3333333333333aggggi33333gggggu3333333333%  qqqqqqqqq",
"qqqqqqqqq  $3333333333333aggggi33333gggggu3333333333%  qqqqqqqqq",
"qqqqqqqqq  $3333333333333aggggi33333gggggu3333333333%  qqqqqqqqq",
"qqqqqqqqq  $3333333333333aggggi33333gggggu3333333333%  qqqqqqqqq",
"qqqqqqqqq  $3333333333333aggggi33333gggggu3333333333%  qqqqqqqqq",
"qqqqqqqqqttr%%-33333337aafggggdaaaaaggs6653333333;%%rttqqqqqqqqq",
"qqqqqqqqqqqt  =3333333uggggggggggggggga3333333333=  tqqqqqqqqqqq",
"qqqqqqqqqqqt  =3333333uggggggggggggggga3333333333=  tqqqqqqqqqqq",
"qqqqqqqqqqqt  =3333333333333ggi33pgg3333333333333=  tqqqqqqqqqqq",
"qqqqqqqqqqqt  =3333333333333ggi33pgg3333333333333=  tqqqqqqqqqqq",
"qqqqqqqqqqq9@@:==23333333333ggi33pgg33333333332==:@@yqqqqqqqqqqq",
"qqqqqqqqqqqqqq#  13333333333ggi33pgg33333333332  #qqqqqqqqqqqqqq",
"qqqqqqqqqqqqqq#  13333333333ggi33pgg33333333332  #qqqqqqqqqqqqqq",
"qqqqqqqqqqqqqqtww>&*333333338863368833333333*&>wwtqqqqqqqqqqqqqq",
"qqqqqqqqqqqqqqqqqX .333333333333333333333333. oqqqqqqqqqqqqqqqqq",
"qqqqqqqqqqqqqqqqqX .333333333333333333333333. oqqqqqqqqqqqqqqqqq",
"qqqqqqqqqqqqqqqqq99t.....1333333333333;.....t99qqqqqqqqqqqqqqqqq",
"qqqqqqqqqqqqqqqqqqq9     ;333333333333;     9qqqqqqqqqqqqqqqqqqq",
"qqqqqqqqqqqqqqqqqqq9OOOOO,;;;;;;;;;;;;<OOOOO0qqqqqqqqqqqqqqqqqqq",
"qqqqqqqqqqqqqqqqqqqqqqqqq+            Oqqqqqqqqqqqqqqqqqqqqqqqqq",
"qqqqqqqqqqqqqqqqqqqqqqqqq+            Oqqqqqqqqqqqqqqqqqqqqqqqqq",
"qqqqqqqqqqqqqqqqqqqqqqqqqqqqqqqqqqqqqqqqqqqqqqqqqqqqqqqqqqqqqqqq",
"qqqqqqqqqqqqqqqqqqqqqqqqqqqqqqqqqqqqqqqqqqqqqqqqqqqqqqqqqqqqqqqq",
"qqqqqqqqqqqqqqqqqqqqqqqqqqqqqqqqqqqqqqqqqqqqqqqqqqqqqqqqqqqqqqqq",
"qqqqqqqqqqqqqqqqqqqqqqqqqqqqqqqqqqqqqqqqqqqqqqqqqqqqqqqqqqqqqqqq",
"qqqqqqqqqqqqqqqqqqqqqqqqqqqqqqqqqqqqqqqqqqqqqqqqqqqqqqqqqqqqqqqq",
"qqqqqqqqqqqqqqqqqqqqqqqqqqqqqqqqqqqqqqqqqqqqqqqqqqqqqqqqqqqqqqqq",
"qqqqqqqqqqqqqqqqqqqqqqqqqqqqqqqqqqqqqqqqqqqqqqqqqqqqqqqqqqqqqqqq",
"qqqqqqqqqqqqqqqqqqqqqqqqqqqqqqqqqqqqqqqqqqqqqqqqqqqqqqqqqqqqqqqq",
"qqqqqqqqqqqqqqqqqqqqqqqqqqqqqqqqqqqqqqqqqqqqqqqqqqqqqqqqqqqqqqqq"
};
