/* XPM */
static char *_759630f953349fb934e6fcbcde4d59fjMuHheLjZp3O4KHu[] = {
/* columns rows colors chars-per-pixel */
"64 64 4 1 ",
"  c black",
". c #FE0000",
"X c #029C00",
"o c white",
/* pixels */
"......................XXXXXXXXXXXXXXXXXXXXXXXXXXXXXXXXXXXXXXXXXX",
"......................XXXXXXXXXXXXXXXXXXXXXXXXXXXXXXXXXXXXXXXXXX",
"......................XXXXXXXXXXXXXXXXXXXXXXXXXXXXXXXXXXXXXXXXXX",
"......................XXXXXXXXXXXXXXXXXXXXXXXXXXXXXXXXXXXXXXXXXX",
"......................XXXXXXXXXXXXXXXXXXXXXXXXXXXXXXXXXXXXXXXXXX",
"......................XXXXXXXXXXXXXXXXXXXXXXXXXXXXXXXXXXXXXXXXXX",
"......................XXXXXXXXXXXXXXXXXXXXXXXXXXXXXXXXXXXXXXXXXX",
"......................XXXXXXXXXXXXXXXXXXXXXXXXXXXXXXXXXXXXXXXXXX",
"......................XXXXXXXXXXXXXXXXXXXXXXXXXXXXXXXXXXXXXXXXXX",
"......................XXXXXXXXXXXXXXXXXXXXXXXXXXXXXXXXXXXXXXXXXX",
"......................XXXXXXXXXXXXXXXXXXXXXXXXXXXXXXXXXXXXXXXXXX",
"......................XXXXXXXXXXXXXXXXXXXXXXXXXXXXXXXXXXXXXXXXXX",
"......................XXXXXXXXXXXXXXXXXXXXXXXXXXXXXXXXXXXXXXXXXX",
"......................XXXXXXXXXXXXXXXXXXXXXXXXXXXXXXXXXXXXXXXXXX",
"......................XXXXXXXXXXXXXXXXXXXXXXXXXXXXXXXXXXXXXXXXXX",
"......................XXXXXXXXXXXXXXXXXXXXXXXXXXXXXXXXXXXXXXXXXX",
"......................XXXXXXXXXXXXXXXXXXXXXXXXXXXXXXXXXXXXXXXXXX",
"......................XXXXXXXXXXXXXXXXXXXXXXXXXXXXXXXXXXXXXXXXXX",
"......................XXXXXXXXXXXXXXXXXXXXXXXXXXXXXXXXXXXXXXXXXX",
"......................XXXXXXXXXXXXXXXXXXXXXXXXXXXXXXXXXXXXXXXXXX",
"......................XXXXXXXXXXXXXXXXXXXXXXXXXXXXXXXXXXXXXXXXXX",
"......................oooooooooooooooooooooooooooooooooooooooooo",
"......................oooooooooooooooooooooooooooooooooooooooooo",
"......................oooooooooooooooooooooooooooooooooooooooooo",
"......................oooooooooooooooooooooooooooooooooooooooooo",
"......................oooooooooooooooooooooooooooooooooooooooooo",
"......................oooooooooooooooooooooooooooooooooooooooooo",
"......................oooooooooooooooooooooooooooooooooooooooooo",
"......................oooooooooooooooooooooooooooooooooooooooooo",
"......................oooooooooooooooooooooooooooooooooooooooooo",
"......................oooooooooooooooooooooooooooooooooooooooooo",
"......................oooooooooooooooooooooooooooooooooooooooooo",
"......................oooooooooooooooooooooooooooooooooooooooooo",
"......................oooooooooooooooooooooooooooooooooooooooooo",
"......................oooooooooooooooooooooooooooooooooooooooooo",
"......................oooooooooooooooooooooooooooooooooooooooooo",
"......................oooooooooooooooooooooooooooooooooooooooooo",
"......................oooooooooooooooooooooooooooooooooooooooooo",
"......................oooooooooooooooooooooooooooooooooooooooooo",
"......................oooooooooooooooooooooooooooooooooooooooooo",
"......................oooooooooooooooooooooooooooooooooooooooooo",
"......................oooooooooooooooooooooooooooooooooooooooooo",
"......................oooooooooooooooooooooooooooooooooooooooooo",
"......................                                          ",
"......................                                          ",
"......................                                          ",
"......................                                          ",
"......................                                          ",
"......................                                          ",
"......................                                          ",
"......................                                          ",
"......................                                          ",
"......................                                          ",
"......................                                          ",
"......................                                          ",
"......................                                          ",
"......................                                          ",
"......................                                          ",
"......................                                          ",
"......................                                          ",
"......................                                          ",
"......................                                          ",
"......................                                          ",
"......................                                          "
};
