/* XPM */
static char *_e313d5133014c16c0481ad08116f36dNaqW0asT7uKC1iMr[] = {
/* columns rows colors chars-per-pixel */
"64 64 55 1 ",
"  c black",
". c #0D0F1F",
"X c #201F00",
"o c #2F2E00",
"O c #3F3D00",
"+ c #2D2E1F",
"@ c #13162F",
"# c #1A1E3E",
"$ c #393D3E",
"% c #403D00",
"& c #4F4C00",
"* c #5F5C00",
"= c #565410",
"- c #7F7B00",
"; c #7C7B1F",
": c #62642F",
"> c #262E5D",
", c #2C356D",
"< c #333D7C",
"1 c #3D446C",
"2 c #40444E",
"3 c #464C5D",
"4 c #8F8A00",
"5 c #9F9A00",
"6 c #AEA900",
"7 c #BEB800",
"8 c #B4B010",
"9 c #DED700",
"0 c #CBC71F",
"q c #EEE600",
"w c #FEF600",
"e c #EBE61F",
"r c #F4EE10",
"t c #D8D73E",
"y c #E1DE2F",
"u c #BCBF6C",
"i c #B2B87C",
"p c #CFCF4E",
"a c #C5C75D",
"s c #C5C85D",
"d c #3A448C",
"f c #404C9C",
"g c #4753AB",
"h c #4654AB",
"j c #4D5BBA",
"k c #6C7ABA",
"l c #596BDA",
"z c #5F72E9",
"x c #6072E9",
"c c #667AF9",
"v c #798AD9",
"b c #7081E9",
"n c #9FA89B",
"m c #A8B08C",
"M c #8C99BB",
/* pixels */
"cccccccccccccccccccccccccccccccccccccccccccccccccccccccccccccccc",
"cccccccccccccccccccccccccccccccccccccccccccccccccccccccccccccccc",
"cccccccccccccccccccccccccccccccccccccccccccccccccccccccccccccccc",
"cccccccccccccccccccccccccccccccccccccccccccccccccccccccccccccccc",
"cccccccccccccccccccccccccccccccccccccccccccccccccccccccccccccccc",
"cccccccccccccccccccccccccccccccccccccccccccccccccccccccccccccccc",
"cccccccccccccccccccccccccccccccccccccccccccccccccccccccccccccccc",
"cccccccccccccccccccccccccccccccccccccccccccccccccccccccccccccccc",
"cccccccccccccccccccccccccccccccccccccccccccccccccccccccccccccccc",
"cccccccccccccccccccccccccccccccccccccccccccccccccccccccccccccccc",
"cccccccccccccccccccccccccccccccccccccccccccccccccccccccccccccccc",
"cccccccccccccccccccccccccccccccccccccccccccccccccccccccccccccccc",
"cccccccccccccccccccccccccccccccccccccccccccccccccccccccccccccccc",
"cccccccccccccccccccccccccccccccccccccccccccccccccccccccccccccccc",
"ccccccccccccccccccccc> XwwMccccccccccj  9wsccccccccccccccccccccc",
"ccccccccccccccccccccc> XwwMccccccccccj  9wsccccccccccccccccccccc",
"ccccccccccccccccccx<<:-4wwainccccccf<3--qwyiibcccccccccccccccccc",
"ccccccccccccccccccl  5wwwwwwtcccccc# %wwwwwwwvcccccccccccccccccc",
"cccccccccccccccczljXX6ww99wwyvvccll$X&ww99qwwMvbcccccccccccccccc",
"cccccccccccccccc< Xwwww9  7wwwwvl  7wwwwX *wwwwicccccccccccccccc",
"cccccccccccccccc< Xwwww9  7wwwwvl  7wwwwX *wwwwicccccccccccccccc",
"cccccccccccccccc< Xwwww9  7wwwwvl  7wwwwX *wwwwicccccccccccccccc",
"cccccccccccccccc< Xwwww9  7wwwwvl  7wwwwX *wwwwicccccccccccccccc",
"ccccccccccccccll1X%eeee0..59qwwMkXX7wree+.=99wwuvvcccccccccccccc",
"cccccccccccccc  -weccccccc# %wwwwwwwwtccccf  9wwwwcccccccccccccc",
"cccccccccccccc  -weccccccc# %wwwwwwwwtccccf  9wwwwcccccccccccccc",
"cccccccccccccc  -weccccccc# %wwwwwwwwtccccf  9wwwwcccccccccccccc",
"cccccccccccccc  -weccccccc# o99wwwwwepccccf  9wwwwcccccccccccccc",
"cccccccccccccc  -weccccccc,#@  9wwwwvcccccg##879wwcccccccccccccc",
"cccccccccccccc  -wecccccccccj  9wwwwvcccccccc. -wwcccccccccccccc",
"cccccccccccccc  -wecccccccccj  9wwwwvcccccccc. -wwcccccccccccccc",
"cccccccccccd..99qwecccccccccj  9wwwwvcccccccc. -wweemccccccccccc",
"ccccccccccc<  wwwwecccccccccj  9wwwwvcccccccc. -wwwwiccccccccccc",
"ccccccccccc<  wwwwecccccccccj  9wwwwvcccccccc. -wwwwiccccccccccc",
"ccccccccccc<  wwwwecccccccccj  9wwwwvcccccccc. -wwwwiccccccccccc",
"ccccccccccc<  wwwwecccccccccj  9wwwwvcccccccc. -wwwwiccccccccccc",
"ccccccccccc<  wwwwecccccccccj  9wwwwvcccccccc. -wwwwiccccccccccc",
"ccccccccccc<  wwwwecccccccccj  9wwwwvcccccccc. -wwwwiccccccccccc",
"ccccccccccc<  wwwwecccccccccj  9wwwwvcccccccc. -wwwwiccccccccccc",
"ccccccccccc<  wwwwecccccccccj  9wwwwvcccccccc. -wwwwiccccccccccc",
"ccccccccccc<  wwwwecccccccccj  9wwwwvcccccccc. -wwwwiccccccccccc",
"ccccccccccc<  wwwwecccccccccj  9wwwwvcccccccc. -wwwwiccccccccccc",
"ccccccccccc<  wwwwecccccccccj  9wwwwvcccccccc. -wwwwiccccccccccc",
"ccccccccccc<  wwwwecccccccccj  9wwwwvcccccccc. -wwwwiccccccccccc",
"ccccccccccc<  wwwwecccccccccj  9wwwwvcccccccc. -wwwwiccccccccccc",
"ccccccccccc<  XX4wecccccccccj  XX2vvccccccccc. -wwvvbccccccccccc",
"ccccccccccc<    -wecccccccccj    >ccccccccccc. -wwcccccccccccccc",
"cccccccccccj<<  O-;cccccccccl<<<<hccccccccccc. O--cccccccccccccc",
"cccccccccccccc    .cccccccccccccccccccccccccc.    cccccccccccccc",
"cccccccccccccc    .cccccccccccccccccccccccccc.    cccccccccccccc",
"cccccccccccccccccccccccccccccccccccccccccccccccccccccccccccccccc",
"cccccccccccccccccccccccccccccccccccccccccccccccccccccccccccccccc",
"cccccccccccccccccccccccccccccccccccccccccccccccccccccccccccccccc",
"cccccccccccccccccccccccccccccccccccccccccccccccccccccccccccccccc",
"cccccccccccccccccccccccccccccccccccccccccccccccccccccccccccccccc",
"cccccccccccccccccccccccccccccccccccccccccccccccccccccccccccccccc",
"cccccccccccccccccccccccccccccccccccccccccccccccccccccccccccccccc",
"cccccccccccccccccccccccccccccccccccccccccccccccccccccccccccccccc",
"cccccccccccccccccccccccccccccccccccccccccccccccccccccccccccccccc",
"cccccccccccccccccccccccccccccccccccccccccccccccccccccccccccccccc",
"cccccccccccccccccccccccccccccccccccccccccccccccccccccccccccccccc",
"cccccccccccccccccccccccccccccccccccccccccccccccccccccccccccccccc",
"cccccccccccccccccccccccccccccccccccccccccccccccccccccccccccccccc",
"cccccccccccccccccccccccccccccccccccccccccccccccccccccccccccccccc"
};
