/* XPM */
static char *_32593d54a4a48c2ca11104c7be3ab2b7bXH1uBiIsnjya9c[] = {
/* columns rows colors chars-per-pixel */
"64 64 109 2 ",
"   c black",
".  c #060306",
"X  c #150C04",
"o  c #15130B",
"O  c #2B162A",
"+  c #29182E",
"@  c #281A33",
"#  c #261E3A",
"$  c #251F3C",
"%  c #301E3B",
"&  c #482A0E",
"*  c #643A13",
"=  c #433F3F",
"-  c #784617",
";  c #1D2952",
":  c #29274E",
">  c #233060",
",  c #293164",
"<  c #3D3469",
"1  c #393A76",
"2  c #3C3975",
"3  c #423E7D",
"4  c #675570",
"5  c #725B73",
"6  c #FF0E0E",
"7  c #FF2121",
"8  c #814A1E",
"9  c #95551D",
"0  c #9B581D",
"q  c #B06521",
"w  c #AF6E36",
"e  c #DC7E2F",
"r  c #AC7771",
"t  c #FF5C5B",
"y  c #FF6261",
"u  c #FC696A",
"i  c #FA6A6D",
"p  c #E4832C",
"a  c #F98F30",
"s  c #F99233",
"d  c #FA963D",
"f  c #8D804F",
"g  c #938552",
"h  c #B4807F",
"j  c #FAA75F",
"k  c #CFBB73",
"l  c #D2BE75",
"z  c #FAA963",
"x  c #FBB67C",
"c  c #F8D27B",
"v  c #334285",
"b  c #3A4995",
"n  c #414082",
"m  c #47468E",
"M  c #434B99",
"N  c #464FA1",
"B  c #4150A2",
"V  c #4B54AB",
"C  c #4557B0",
"Z  c #4856B0",
"A  c #505BB2",
"S  c #555DBC",
"D  c #5B61B4",
"F  c #545EC0",
"G  c #5162C8",
"H  c #596BDA",
"J  c #5B6EDF",
"K  c #5E6CDC",
"L  c #787FC1",
"P  c #5F72E9",
"I  c #6171E7",
"U  c #697CF6",
"Y  c #6C7FF4",
"T  c #667AF9",
"R  c #6D7FF8",
"E  c #7183F8",
"W  c #BE8681",
"Q  c #BE8983",
"!  c #9180BE",
"~  c #9684BC",
"^  c #BDAEAD",
"/  c #BDB7B7",
"(  c #FE9E87",
")  c #FF9594",
"_  c #CFA29E",
"`  c #D2A196",
"'  c #FFAEAD",
"]  c #DFCF9C",
"[  c #E6D093",
"{  c #F8E08A",
"}  c #FDCCA7",
"|  c #FDCEAC",
" . c #A99CCF",
".. c #A5A5CA",
"X. c #B1AEC0",
"o. c #8995F7",
"O. c #8C97F6",
"+. c #8E99F6",
"@. c #929DF6",
"#. c #949EF6",
"$. c #99A1F6",
"%. c #B4B6F3",
"&. c #BCBDF3",
"*. c #D7A5C4",
"=. c #C3C1F2",
"-. c #C6C4F2",
";. c #C9C6F1",
":. c #F2E6EF",
">. c #FFF0EE",
/* pixels */
"T T T T T T T T T T T T T T T T T T T T T T T T T T T T T T T T T T T T T T T T T T T T T T T T T T T T T T T T T T T T T T T T ",
"T T T T T T T T T T T T T T T T T T T T T T T T T T T T T T T T T T T T T T T T T T T T T T T T T T T T T T T T T T T T T T T T ",
"T T T T T T T T T T T T T T T T T T T T T T T T T T T T T T T T T T T T T T T T T T T T T T T T T T T T T T T T T T T T T T T T ",
"T T T T T T T T T T T T T T T T T T T T T T T T T T T T T T T T T T T T T T T T T T T T T T T T T T T T T T T T T T T T T T T T ",
"T T T T T T T T T T T T T T T T T T T T T T T T T T T T T T T T T T T T T T T T T T T T T T T T T T T T T T T T T T T T T T T T ",
"T T T T T T T T T T T T T T T T T T T T T T T T T T T T T T T T T T T T T T T T T T T T T T T T T T T T T T T T T T T T T T T T ",
"T T T T T T T T T T T T T T T T T T T T T T T T T T T T T T T T T T T T T T T T T T T T T T T T T T T T T T T T T T T T T T T T ",
"T T T T T T T T T T T T T T T T T T T T T T T T T T T T T T T T T T T T T T T T T T T T T T T T T T T T T T T T T T T T T T T T ",
"T T T T T T T T T T T T T T T T T T T T T T T T T T T T T T T T T T T T T T T T T T T T T T T T T T T T T T T T T T T T T T T T ",
"T T T T T T T T T T T T T T T T T T T T T T T T T T T T T T T T T T T T T T T T T T T T T T T T T T T T T T T T T T T T T T T T ",
"T T T T T T T T T T T T T T T T T T T T T T T T T T T T T T T T T T T T T T T T T T T T T T T T T T T T T T T T T T T T T T T T ",
"T T T T T T T T T T T T T T T T T T T T T T T T T T H v v 1 < < v v C T T T T T T T T T T T T T T T T T T T T T T T T T T T T T ",
"T T T T T T T T T T T T T T T T T T T T T T T T T T G ; ; # O O ; ; b T T T T T T T T T T T T T T T T T T T T T T T T T T T T T ",
"T T T T T T T T T T T T T T T T T T T T T T T T T T G ; ; $ + + ; ; b T T T T T T T T T T T T T T T T T T T T T T T T T T T T T ",
"T T T T T T T T T T T T T T T T T T T T T T T T T T G ; ; ; ; ; ; ; b T T T T T T T T T T T T T T T T T T T T T T T T T T T T T ",
"T T T T T T T T T T T T T T T T T T T T T T T T T T G ; ; ; ; ; ; ; b T T T T T T T T T T T T T T T T T T T T T T T T T T T T T ",
"T T T T T T T T T T T T T T T T T T T T T T T T T T G ; ; ; ; ; ; ; b T T T T T T T T T T T T T T T T T T T T T T T T T T T T T ",
"T T T T T T T T T T T T T T T T T T T T T T T T T T G ; ; ; ; ; ; ; b T T T T T T T T T T T T T T T T T T T T T T T T T T T T T ",
"T T T T T T T T T T T T T T T T T T T T T T T T T T G ; ; ; ; ; ; ; b T T T T T T T T T T T T T T T T T T T T T T T T T T T T T ",
"T T T T T T T T T T T T T T T T T T T T T T T T T T F @ @ @ @ @ @ @ n T T T T T T T T T T T T T T T T T T T T T T T T T T T T T ",
"T T T T T T T T T T T T T T T T T T T T T T T T T T S O O O O O O O 3 T T T T T T T T T T T T T T T T T T T T T T T T T T T T T ",
"T T T T T T T T T T T T T T T T T T T T T P H H H H V @ @ @ @ @ @ @ 2 H H H H J T T T T T T T T T T T T T T T T T T T T T T T T ",
"T T T T T T T T T T T T T T T T T T T T T B ; ; ; ; ; ; ; ; ; ; ; ; ; ; ; ; ; > T T T T T T T T T T T T T T T T T T T T T T T T ",
"T T T T T T T T T T T T T T T T T T T T T B ; ; ; ; ; ; ; ; ; ; ; ; ; ; ; ; ; > T T T T T T T T T T T T T T T T T T T T T T T T ",
"T T T T T T T T T T T T T T T T T T T T T M $ $ $ $ $ $ $ $ $ $ $ $ $ $ $ $ $ : T T T T T T T T T T T T T T T T T T T T T T T T ",
"T T T T T T T T T T T T T T T T T T T T T m O O O O O O O O O O O O O O O O O % T T T T T T T T T T T T T T T T T T T T T T T T ",
"T T T T T T T T T T T T T T T T T T T T T m O O O O O O O O O O O O O O O O O % T T T T T T T T T T T T T T T T T T T T T T T T ",
"T T T T T T T T T T T T T T T T T T T T T I K K K K N . . 8 e e e e r K K K K K T T T T T T T T T T T T T T T T T T T T T T T T ",
"T T T T T T T T T T T T T T T T T T T T T T T T T T Z     9 a a a a W T T T T T T T T T T T T T T T T T T T T T T T T T T T T T ",
"T T T T T T T T T T T T T T T T T T T T T T T T O.+.L = = w a a z z _ +.+.E T T T T T T T T T T T T T T T T T T T T T T T T T T ",
"T T T T T T T T T T T T T T T T T T T T T T T T :.>.>.>.>.x a a >.>.>.>.>.@.T T T T T T T T T T T T T T T T T T T T T T T T T T ",
"T T T T T T T T T T T T T T T T T T T T T T T T :.>.>.>.>.x a a >.>.>.>.>.@.T T T T T T T T T T T T T T T T T T T T T T T T T T ",
"T T T T T T T T T T T T T T T T T T T T T #.-.-.i y y y y ( } } y y y y y *.-.&.T T T T T T T T T T T T T T T T T T T T T T T T ",
"T T T T T T T T T T T T T T T T T T T T T %.>.>.7 6 6 6 6 ) >.>.6 6 6 6 6 ' >.:.T T T T T T T T T T T T T T T T T T T T T T T T ",
"T T T T T T T T T T T T T T T T T T T T T %.>.>.7 6 6 6 6 ) >.>.6 6 6 6 6 ' >.:.T T T T T T T T T T T T T T T T T T T T T T T T ",
"T T T T T T T T T T T T T T T T T T T T T %.>.>.7 6 6 6 6 ) >.>.6 6 6 6 6 ' >.:.T T T T T T T T T T T T T T T T T T T T T T T T ",
"T T T T T T T T T T T T T T T T T T T T T %.>.>.7 6 6 6 6 ) >.>.6 6 6 6 6 ' >.:.T T T T T T T T T T T T T T T T T T T T T T T T ",
"T T T T T T T T T T T T T T T T T T T T T $.;.;.u t t t t ( | | t t t t t *.;.=.T T T T T T T T T T T T T T T T T T T T T T T T ",
"T T T T T T T T T T T T T T T T T T T T T T T T :.>.>.>.>.x a a >.>.>.>.>.@.T T T T T T T T T T T T T T T T T T T T T T T T T T ",
"T T T T T T T T T T T T T T T T T T T T T T T T :.>.>.>.>.x a a >.>.>.>.>.@.T T T T T T T T T T T T T T T T T T T T T T T T T T ",
"T T T T T T T T T T T T T T T T T T T T T T T T o.O. .j j d a a j j ` O.O.R T T T T T T T T T T T T T T T T T T T T T T T T T T ",
"T T T T T T T T T T T T T T T T T T T T T T T T T T ! a a a a a a a W T T T T T T T T T T T T T T T T T T T T T T T T T T T T T ",
"T T T T T T T T T T T T T T T T T T T T T U Y Y Y Y ~ s s s s s s s Q T T T T T T T T T T T T T T T T T T T T T T T T T T T T T ",
"T T T T T T T T T T T T T T T T T T T T T X.{ { { { { { { { { { { { / T T T T T T T T T T T T T T T T T T T T T T T T T T T T T ",
"T T T T T T T T T T T T T T T T T T T T T X.{ { { { { { { { { { { { / T T T T T T T T T T T T T T T T T T T T T T T T T T T T T ",
"T T T T T T T T T T T T T T T T T T T T T X.{ { g f f f f f f f { { / T T T T T T T T T T T T T T T T T T T T T T T T T T T T T ",
"T T T T T T T T T T T T T T T T T T T T T X.{ { o               { { / T T T T T T T T T T T T T T T T T T T T T T T T T T T T T ",
"T T T T T T T T T T T T T T T T T T T T T X.{ { o               { { / T T T T T T T T T T T T T T T T T T T T T T T T T T T T T ",
"T T T T T T T T T T T T T T T T T T T T T X.{ { l k k k k k k k { { / T T T T T T T T T T T T T T T T T T T T T T T T T T T T T ",
"T T T T T T T T T T T T T T T T T T T T T X.{ { { { { { { { { { { { / T T T T T T T T T T T T T T T T T T T T T T T T T T T T T ",
"T T T T T T T T T T T T T T T T T T T T T ..] ] ] ] [ c c c c c c c ^ T T T T T T T T T T T T T T T T T T T T T T T T T T T T T ",
"T T T T T T T T T T T T T T T T T T T T T T T T T T ! a a a a a a a W T T T T T T T T T T T T T T T T T T T T T T T T T T T T T ",
"T T T T T T T T T T T T T T T T T T T T T T T T T T ! a a a a a a a W T T T T T T T T T T T T T T T T T T T T T T T T T T T T T ",
"T T T T T T T T T T T T T T T T T T T T T T T T T T ! a a a a a - - 5 T T T T T T T T T T T T T T T T T T T T T T T T T T T T T ",
"T T T T T T T T T T T T T T T T T T T T T T T T T T ! a a a a a     , T T T T T T T T T T T T T T T T T T T T T T T T T T T T T ",
"T T T T T T T T T T T T T T T T T T T T T T T T T T ! a a a a a     , T T T T T T T T T T T T T T T T T T T T T T T T T T T T T ",
"T T T T T T T T T T T T T T T T T T T T T T T T T T A X X 0 a a p p h T T T T T T T T T T T T T T T T T T T T T T T T T T T T T ",
"T T T T T T T T T T T T T T T T T T T T T T T T T T Z     9 a a a a W T T T T T T T T T T T T T T T T T T T T T T T T T T T T T ",
"T T T T T T T T T T T T T T T T T T T T T T T T T T D & & q a a a a W T T T T T T T T T T T T T T T T T T T T T T T T T T T T T ",
"T T T T T T T T T T T T T T T T T T T T T T T T T T ! a a a a a a a W T T T T T T T T T T T T T T T T T T T T T T T T T T T T T ",
"T T T T T T T T T T T T T T T T T T T T T T T T T T ! a a a a a a a W T T T T T T T T T T T T T T T T T T T T T T T T T T T T T ",
"T T T T T T T T T T T T T T T T T T T T T T T T T T ! a a a a a * * 4 T T T T T T T T T T T T T T T T T T T T T T T T T T T T T ",
"T T T T T T T T T T T T T T T T T T T T T T T T T T ! a a a a a     , T T T T T T T T T T T T T T T T T T T T T T T T T T T T T ",
"T T T T T T T T T T T T T T T T T T T T T T T T T T ! a a a a a     , T T T T T T T T T T T T T T T T T T T T T T T T T T T T T "
};
