/* XPM */
static char *_fc5468f17da434396095112edd0ea35ZIGuQ8X7jG54ja8o[] = {
/* columns rows colors chars-per-pixel */
"64 64 37 1 ",
"  c #070707",
". c #0B0B0B",
"X c gray5",
"o c gray7",
"O c #151515",
"+ c #181818",
"@ c #1D1D1D",
"# c #232323",
"$ c gray14",
"% c gray17",
"& c #2F2F2F",
"* c #323232",
"= c gray21",
"- c gray23",
"; c #3C3C3C",
": c gray25",
"> c #444444",
", c gray29",
"< c gray31",
"1 c #515151",
"2 c gray34",
"3 c #5A5A5A",
"4 c #5F5F5F",
"5 c #626262",
"6 c #646464",
"7 c #686868",
"8 c #6D6D6D",
"9 c gray45",
"0 c #747474",
"q c gray47",
"w c gray49",
"e c #808080",
"r c #868686",
"t c #888888",
"y c #8E8E8E",
"u c #979797",
"i c #989898",
/* pixels */
"222***********;228ii<  <iiiii822;***********122222***********;22",
"222***********;228uu<  <uuuuu822;***********122222***********;22",
"221======**=;;>449uu1..1uuuuu944>;;;;;;;;===122221======**=;;>44",
"**=22222>  &iiiuuuuu6**4uuuuuuuuiiiiiiiii522222**=22222>  &iiiuu",
"**=22222>  *uuuuuuuu6**4uuuuuuuuuuuuuuuuu522222**=22222>  *uuuuu",
"==-22244<oo*yyyyyytt6::4ttttttttreerttttt3<<222==-22244<oo*yyyyy",
"222224uut22222222,**4uu4********O  $*****X  ,22222224uut22222222",
"222224uut22222222,**4uu4********O  $*****X  ,22222224uut22222222",
"222<<2ee0<<<<<<<<>;;4tt7<<:;;*%%@@@*;;;;;*&&122222<<2ee0<<<<<<<<",
"222**************:222220uu022$  ;22222222yuu522222**************",
"222**************:222220uu022$  ;22222222yuu522222**************",
">>><<<<<<<<<<<<<<1<<<<<6ww6<<$oo-<<<<<477yuu522>>><<<<<<<<<<<<<<",
"  +uuuuuuuuuuuuuu9********************0uuuuu522  +uuuuuuuuuuuuuu",
"  +uuuuuuuuuuuuuu9********************0uuuuu522  +uuuuuuuuuuuuuu",
"@@%990wwwwwerrrrr5$$*;;=********-;;;;;8rrwww2<<@@%990wwwwwerrrrr",
"221  X*****;22222-  &22>********,22222222-*****221  X*****;22222",
"221  X*****;22222-  &22>********,22222222-*****221  X*****;22222",
"--;;;;33333222222:$$;22233333;**,22344322333333--;;;;33333222222",
"  +uuuuuuuur222222222220uuuuu1**,22455322yuuuuu  +uuuuuuuur22222",
"  +uuuuuuuur222222222220uuuuu1**,22455322yuuuuu  +uuuuuuuur22222",
"%%*wwq777776,,,,,:==:,,387787,**:,,<<<2220wwwww%%*wwq777776,,,,,",
"222221***********#  @****==***********,22222222222221***********",
"222221***********#  @***=*************,22222222222221***********",
"999999444444444442>>>::::::::=**144=##39999942299999944444444444",
"uuuuuuuuuuuuuuuuuuuu022222222:**0uu-  8uuuuu522uuuuuuuuuuuuuuuuu",
"uuuuuuuuuuuuuuuuuuuu022222222:**0uu-  8uuuuu522uuuuuuuuuuuuuuuuu",
"wwwuuy888888889wwwww3==>22<,,-**288-++<88888422wwwuuy888888889ww",
"224uut********;22222&  &22>*****************122224uut********;22",
"224uut********;22222&  &22>*****************122224uut********;22",
"223998>>1888889ww6::$  $::288888>*****388<>>222223998>>1888889ww",
"222222226uuuuuuuu9**@  @**6uuuuu1**=**0uu522222222322226uuuuuuuu",
"222222226uuuuuuuu9**@  @**6uuuuu1*****0uu522222222222226uuuuuuuu",
"##&eeeeeq888888889008773,,388888>**:,,588422%####&eeeeeq88888888",
"  +uuuuut222222228uuuuu022222222;**,22222222O    +uuuuut22222222",
"  +uuuuut222222228uuuuu022222222;**,33332222O    +uiuuut22222222",
";;>111111;;;;;;;;4uuuuu7;;;;;;;;=**-;;;;;;;;;;;;;>111111;;;;;;;;",
"222**************1iuuuu4********==**********122222**************",
"222**************1iuuuu4********************122222**************",
"eee009,,,,,>**%OO%11111:**;,,,,,%OO300,**800422eee009,,,,,>**%OO",
"uuuuuy22222<**%. O********>32222#  7uu1**ruu522uuuuuy22222<=*%  ",
"uuuuuy22222<**%  O********>22222#  7uu1**ruu522uuuuuy22222<**%  ",
"555>>:--:226rrree911111:**=-----*&&;>><11555322555>>:--:226rrree",
"222*****-226uuuuuw22222>**************,22222222222*****-226uuuuu",
"222*****-226uuuuuw22222>**************,22222222222*****-226uuuuu",
"22211<**=--;>><554222222117rrrrr=XX$**=--------22211<**=--;>><55",
"222221********;222222222220uuuuu-  $***********222221********;22",
"222221********;222222222220uuuuu-  $***********222221********;22",
"222***********;228ii<  <iiiii822;***********122222***********;22",
"222***********;228uu<  <uuuuu822;***********122222***********;22",
"221======**=;;>449uu1..1uuuuu944,;;;;;;;;===122221======**=;;>44",
"**=22222>  &iiiuuuuu6**4uuuuuuuuiiiiiiiii522222**=22222>  &iiiuu",
"**=22222>  *uuuuuuuu6**4uuuuuuuuuuuuuuuuu522222**=22222>  *uuuuu",
"==-22244<oo*yyyyyytt6::4ttttttttreerttttt3<<222==-22244<oo*yyyyy",
"222224uut22222222,**4uu4********O  $*****X  ,22222224uut22222222",
"222224uut22222222,**4uu4********O  $*****X  ,22222224uut22222222",
"222<<2ee0<<<<<<<<>;;4tt7<<:;;*%%@@@*;;;;;*&&122222<<2ee0<<<<<<<<",
"222**************:222220uu022$  ;22222222yuu522222**************",
"222**************:222220uu022$  ;22222222yuu522222**************",
">>><<<<<<<<<<<<<<1<<<<<6ww6<<$oo-<<<<<477yuu522>>><<<<<<<<<<<<<<",
"  +uuuuuuuuuuuuuu9********************0uuuuu522  +uuuuuuuuuuuuuu",
"  +uuuuuuuuuuuuuu9********************0uuuuu522  +uuuuuuuuuuuuuu",
"@@%990wwwwwerrrrr5$$*;;=**==****-;;;;;8rrwww2<<@@%990wwwwwerrrrr",
"221  X*****;22222-  &22>*=******,22222222-*****221  X*****;22222",
"221  X*****;22222-  &22>***=****,22222222-*****221  X*****;22222"
};
