/* XPM */
static char *result[] = {
/* columns rows colors chars-per-pixel */
"100 100 86 1 ",
"  c #163C2B",
". c #1D3B2A",
"X c #1C3E2C",
"o c #243B29",
"O c #223F2C",
"+ c #223F2D",
"@ c #2B3A29",
"# c #503625",
"$ c #553A27",
"% c #593D29",
"& c #18412E",
"* c #1A4630",
"= c #1B4630",
"- c #1D4C33",
"; c #1F5135",
": c #2E412E",
"> c #2E422E",
", c #38432F",
"< c #294F34",
"1 c #364531",
"2 c #3A4430",
"3 c #215637",
"4 c #275537",
"5 c #215638",
"6 c #225638",
"7 c #24543A",
"8 c #245B3A",
"9 c #245B3B",
"0 c #245C3A",
"q c #245C3B",
"w c #275B3D",
"e c #255E3C",
"r c #27613D",
"t c #27613E",
"y c #28633F",
"u c #454731",
"i c #414832",
"p c #704F36",
"a c #745338",
"s c #755338",
"d c #7A573C",
"f c #7A583D",
"g c #2B5F41",
"h c #2B6041",
"j c #296640",
"k c #2E6543",
"l c #2E6544",
"z c #2B6942",
"x c #2E6D45",
"c c #336B48",
"v c #326F48",
"b c #336F49",
"n c #307047",
"m c #327349",
"M c #337349",
"N c #35764B",
"B c #35774B",
"V c #36774C",
"C c #37794E",
"Z c #38794E",
"A c #38794F",
"S c #387A4E",
"D c #3A7750",
"F c #397D50",
"G c #3A7D51",
"H c #3C7D52",
"J c #7F5C40",
"K c #987154",
"L c #9D7658",
"P c #3C8053",
"I c #3E8455",
"U c #3F8455",
"Y c #418757",
"T c #418857",
"R c #418758",
"E c #438A5A",
"W c #448B5A",
"Q c #448B5B",
"! c #468D5C",
"~ c #468E5C",
"^ c #498F5F",
"/ c #48915E",
"( c #4B9461",
") c #4E9764",
"_ c #4E9864",
"` c #509B66",
/* pixels */
"````````````````````````````````````````````````````````````````````````````````````````````````````",
"````````````````````````````````````````````````````````````````````````````````````````````````````",
"````````````````````````````````````````````````````````````````````````````````````````````````````",
"````````````````````````````````````````````````````````````````````````````````````````````````````",
"````````````````````````````````````````````````````````````````````````````````````````````````````",
"````````````````````````````````````````````````````````````````````````````````````````````````````",
"````````````````````````````````````````````````````````````````````````````````````````````````````",
"````````````````````````````````````````````````````````````````````````````````````````````````````",
"```````````````````````````````````````````((((((```````````````````````````````````````````````````",
"```````````````````````````````````````````jjjjjj(``````````````````````````````````````````````````",
"```````````````````````````````````````````jjjjjj(``````````````````````````````````````````````````",
"```````````````````````````````````````````jjjjjj(``````````````````````````````````````````````````",
"```````````````````````````````````````````jjjjjj(``````````````````````````````````````````````````",
"```````````````````````````````````````````jjjjjj(``````````````````````````````````````````````````",
"```````````````````````````````````````````jjjjjj(``````````````````````````````````````````````````",
"```````````````````````````````````````````      ^`````````````````Yjjjjjm``````````````````````````",
"```````````````````````````````````````````      ^`````````````````Yjjjjjm``````````````````````````",
"```````````````````````````````````````````      ^`````````````````Yjjjjjm``````````````````````````",
"```````````````````````````````````````````      ^`````````````````Yjjjjjm``````````````````````````",
"```````````````````````````````````````````      ^`````````````````Yjjjjjm``````````````````````````",
"```````````````````````````````````````````      ^`````````````````Yjjjjjm``````````````````````````",
"````````````GMMMMME`````````````````_MMMMMMqqqqqq(```````````D77777k~~~~~/``````````````````````````",
"````````````MjjjjjR`````````````````(jjjjjjjjjjjj(```````````c     g````````````````````````````````",
"````````````MjjjjjR`````````````````(jjjjjjjjjjjj(```````````c     g````````````````````````````````",
"````````````MjjjjjR`````````````````(jjjjjjjjjjjj(```````````c     g````````````````````````````````",
"````````````MjjjjjR`````````````````(jjjjjjjjjjjj(```````````c     g````````````````````````````````",
"````````````MjjjjjR`````````````````(jjjjjjjjjjjj(```````````c     g````````````````````````````````",
"````````````~TTTTTPZZZZZZZZZZZZZZZZZNjjjjjjjjjjjjNZZZZZlhhhhhw55555b````````````````````````````````",
"``````````````````Cjjjjjjjjjjjjjjjjjjjjjjjjjjjjjjjjjjjj*     ;jjjjjA````````````````````````````````",
"``````````````````Cjjjjjjjjjjjjjjjjjjjjjjjjjjjjjjjjjjjj*     ;jjjjjA````````````````````````````````",
"``````````````````Cjjjjjjjjjjjjjjjjjjjjjjjjjjjjjjjjjjjj*     ;jjjjjA````````````````````````````````",
"``````````````````Cjjjjjjjjjjjjjjjjjjjjjjjjjjjjjjjjjjjj*     ;jjjjjA````````````````````````````````",
"``````````````````Cjjjjjjjjjjjjjjjjjjjjjjjjjjjjjjjjjjjj*     ;jjjjjA````````````````````````````````",
"``````````````````WPPPPPv;;;;;6jjjjjjjjjjjj;;;;;;;;;;;;&     ;jjjjjA````````````````````````````````",
"````````````````````````D     =jjjjjjjjjjjj                  ;jjjjjA````````````````````````````````",
"````````````````````````D     =jjjjjjjjjjjj                  ;jjjjjA````````````````````````````````",
"````````````````````````D     =jjjjjjjjjjjj                  ;jjjjjA````````````````````````````````",
"````````````````````````D     =jjjjjjjjjjjj                  ;jjjjjA````````````````````````````````",
"````````````````````````D     =jjjjjjjjjjjj                  ;jjjjjA````````````````````````````````",
"````````````````````````H------333333333333@@@@@@,22222X     ;jjjjjMYYYYY!````````````YYYYYY_```````",
"````````````````````````Yjjjjj0            ######psssss>     ;jjjjjjjjjjjm````````````jjjjjj(```````",
"````````````````````````Yjjjjj0            ######psssss>     ;jjjjjjjjjjjm````````````jjjjjj(```````",
"````````````````````````Yjjjjj0            ######psssss>     ;jjjjjjjjjjjm````````````jjjjjj(```````",
"````````````````````````Yjjjjj0            ######psssss>     ;jjjjjjjjjjjm````````````jjjjjj(```````",
"````````````````````````Yjjjjj0            ######psssss>     ;jjjjjjjjjjjm````````````jjjjjj(```````",
"````````````````````````Yjjjjj0      oooooo%%%%%%fJJJJJi:::::<88888ejjjjjn!!!!!!!!!!!!mmmmmm_```````",
"````````````````````````Yjjjjj0     .######ssssssKLLLLLJsssssu     -jjjjjjjjjjjjjjjjjj``````````````",
"````````````````````````Yjjjjj0     .######ssssssKLLLLLJsssssu     -jjjjjjjjjjjjjjjjjj``````````````",
"````````````````````````Yjjjjj0     .######ssssssKLLLLLJsssssu     -jjjjjjjjjjjjjjjjjj``````````````",
"````````````````````````Yjjjjj0     .######ssssssKLLLLLJsssssu     -jjjjjjjjjjjjjjjjjj``````````````",
"````````````````````````Yjjjjj0     .######ssssssKLLLLLJsssssu     -jjjjjjjjjjjjjjjjjj``````````````",
"````````````((((((((((((Ujjjjj0     .$$$$$$ssssssKLLLLLJsssssu     -jjjjjzxxxxxxxxxxxx``````````````",
"````````````Mjjjjjjjjjjjjjjjjj0     +ssssssssssssKLLLLLJsssssu     -jjjjjm``````````````````````````",
"````````````Mjjjjjjjjjjjjjjjjj0     +ssssssssssssKLLLLLJsssssu     -jjjjjm``````````````````````````",
"````````````Mjjjjjjjjjjjjjjjjj0     +ssssssssssssKLLLLLJsssssu     -jjjjjm``````````````````````````",
"````````````Mjjjjjjjjjjjjjjjjj0     +ssssssssssssKLLLLLJsssssu     -jjjjjm``````````````````````````",
"````````````Mjjjjjjjjjjjjjjjjj0     +ssssssssssssKLLLLLJsssssu     -jjjjjm``````````````````````````",
"````````````Mjjjjjjjjjjjjjjjjj0     +ssssssssssssKLLLLLJssssau     -jjjjjm``````````````````````````",
"``````Mxxxxx~(((((((((((IjjjjjjtttttqOOOOOOssssssdddddd1OOOOOX     -jjjjjm``````````````````````````",
"``````xjjjjj~```````````Yjjjjjjjjjjjr      ssssssssssss>           -jjjjjm``````````````````````````",
"``````xjjjjj~```````````Yjjjjjjjjjjjr      ssssssssssss>           -jjjjjm``````````````````````````",
"``````xjjjjj~```````````Yjjjjjjjjjjjr      ssssssssssss>           -jjjjjm``````````````````````````",
"``````xjjjjj~```````````Yjjjjjjjjjjjr      ssssssssssss>           -jjjjjm``````````````````````````",
"``````xjjjjj~```````````Yjjjjjjjjjjjr      sssssssssssa>           -jjjjjm``````````````````````````",
"``````~~~~~~)```````````(~~~~~Ujjjjjr      >>>>>>>>>>>>4qqqqqqqqqqqrjjjjjzMMMMMV````````````````````",
"``````````````````````````````~jjjjjr                  9jjjjjjjjjjjjjjjjjjjjjjjx````````````````````",
"``````````````````````````````~jjjjjr                  9jjjjjjjjjjjjjjjjjjjjjjjx````````````````````",
"``````````````````````````````~jjjjjr                  9jjjjjjjjjjjjjjjjjjjjjjjx````````````````````",
"``````````````````````````````~jjjjjr                  9jjjjjjjjjjjjjjjjjjjjjjjx````````````````````",
"``````````````````````````````~jjjjjr                  9jjjjjjjjjjjjjjjjjjjjjjjx````````````````````",
"``````````````````````````````~jjjjjy555555555555555555rjjjjjBTTTTTTTTTTTTTTTTTTZZZZZZ``````````````",
"``````````````````````````````~jjjjjjjjjjjjjjjjjjjjjjjjjjjjjjP`````````````````(jjjjjj``````````````",
"``````````````````````````````~jjjjjjjjjjjjjjjjjjjjjjjjjjjjjjP`````````````````(jjjjjj``````````````",
"``````````````````````````````~jjjjjjjjjjjjjjjjjjjjjjjjjjjjjjP`````````````````(jjjjjj``````````````",
"``````````````````````````````~jjjjjjjjjjjjjjjjjjjjjjjjjjjjjjP`````````````````(jjjjjj``````````````",
"``````````````````````````````~jjjjjjjjjjjjjjjjjjjjjjjjjjjjjjP`````````````````(jjjjjj``````````````",
"``````````````````````````````~jjjjjzPPPPPPPPPPPPzjjjjjSPPPPP~`````````````````_PPPPPP``````````````",
"``````````````````````````````~jjjjjx````````````xjjjjj~````````````````````````````````````````````",
"``````````````````````````````~jjjjjx````````````xjjjjj~````````````````````````````````````````````",
"``````````````````````````````~jjjjjx````````````xjjjjj~````````````````````````````````````````````",
"``````````````````````````````~jjjjjx````````````xjjjjj~````````````````````````````````````````````",
"``````````````````````````````~jjjjjx````````````xjjjjj~````````````````````````````````````````````",
"````````````````````````(YYYYYYCCCCCF````````````xjjjjj~````````````````````````````````````````````",
"````````````````````````Yjjjjjm``````````````````xjjjjj~````````````````````````````````````````````",
"````````````````````````Yjjjjjm``````````````````xjjjjj~````````````````````````````````````````````",
"````````````````````````Yjjjjjm``````````````````xjjjjj~````````````````````````````````````````````",
"````````````````````````Yjjjjjm``````````````````xjjjjj~````````````````````````````````````````````",
"````````````````````````Yjjjjjm``````````````````xjjjjj~````````````````````````````````````````````",
"````````````````````````QmmmmmG``````````````````BmmmmmR!!!!!(``````````````````````````````````````",
"```````````````````````````````````````````````````````MjjjjjP``````````````````````````````````````",
"```````````````````````````````````````````````````````MjjjjjP``````````````````````````````````````",
"```````````````````````````````````````````````````````MjjjjjP``````````````````````````````````````",
"```````````````````````````````````````````````````````MjjjjjP``````````````````````````````````````",
"```````````````````````````````````````````````````````MjjjjjP``````````````````````````````````````",
"```````````````````````````````````````````````````````MjjjjjP``````````````````````````````````````",
"````````````````````````````````````````````````````````````````````````````````````````````````````",
"````````````````````````````````````````````````````````````````````````````````````````````````````",
"````````````````````````````````````````````````````````````````````````````````````````````````````",
"````````````````````````````````````````````````````````````````````````````````````````````````````",
"````````````````````````````````````````````````````````````````````````````````````````````````````"
};
