/* XPM */
static char *_25ce0b1a99c4199c29d76b71abcfd013B6cxaFbrNtkQpNl[] = {
/* columns rows colors chars-per-pixel */
"100 100 65 1 ",
"  c None",
". c #271D15",
"X c #2B1F16",
"o c #33200F",
"O c #34200E",
"+ c #35200E",
"@ c #34200F",
"# c #2D2116",
"$ c #2E2017",
"% c #2F2217",
"& c #362210",
"* c #372210",
"= c #302217",
"- c #352517",
"; c #382312",
": c #392412",
"> c #392513",
", c #3A2413",
"< c #3B2614",
"1 c #3C2614",
"2 c #3C2615",
"3 c #3D2615",
"4 c #3D2715",
"5 c #3E2715",
"6 c #3F2816",
"7 c #342418",
"8 c #342518",
"9 c #382719",
"0 c #3A281A",
"q c #3C291A",
"w c #3D291A",
"e c #3C2A1A",
"r c #3D2A1A",
"t c #3F2B1B",
"y c #402917",
"u c #422A17",
"i c #432A17",
"p c #412918",
"a c #412A18",
"s c #422A18",
"d c #422A19",
"f c #412B1B",
"g c #442B19",
"h c #432C18",
"j c #442C19",
"k c #452C1A",
"l c #462E1A",
"z c #472E1A",
"x c #472F1B",
"c c #432D1C",
"v c #462E1C",
"b c #462F1C",
"n c #472F1C",
"m c #482F1C",
"M c #49301C",
"N c #49301D",
"B c #4A301C",
"V c #4A311C",
"C c #4A301D",
"Z c #4A311D",
"A c #4B311D",
"S c #4A321C",
"D c #483B23",
"F c #355E35",
"G c #36834D",
/* pixels */
"                                                                                                    ",
"                                                                                                    ",
"                                                                                                    ",
"                                                                                                    ",
"                                                                                                    ",
"                                                                                                    ",
"                                                                                                    ",
"                                                                                                    ",
"                                                                                                    ",
"                                                                                                    ",
"                                                                                                    ",
"                                                                                                    ",
"                                                                                                    ",
"                                                                                                    ",
"                                                                                                    ",
"                                                                                                    ",
"                                                                                                    ",
"                                                                                                    ",
"                                                                                                    ",
"                                                                                                    ",
"                                                                                                    ",
"                                                                                                    ",
"                                                                                                    ",
"                                                                                                    ",
"                                                                                                    ",
"                                                                                                    ",
"                                                                                                    ",
"                                                                                                    ",
"                                                                                                    ",
"                                                                                                    ",
"                                                                                                    ",
"                                                                                                    ",
"                                                                                                    ",
"                                                                                                    ",
"                                                                                                    ",
"                                                                                                    ",
"                                                                                                    ",
"                          MMMMM           MMMMM,@@@@@                                               ",
"                          MMMMM           MMMMM,@@@@@                                               ",
"                          MMMMM           MMMMM,@@@@@                                               ",
"                          MMMMM           MMMMM,@@@@@                                               ",
"                          MMMMM           MMMMM,@@@@@                                               ",
"                               MMMMMMMMMMMMMMMMllllllMMMMMMMMMM                                     ",
"                               MMMMMMMMMMMMMMMMMMMMMMMMMMMMMMMM                                     ",
"                               MMMMMMMMMMMMMMMMMMMMMMMMMMMMMMMM                                     ",
"                               MMMMMMMMMMMMMMMMMMMMMMMMMMMMMMMM                                     ",
"                               MMMMMMMMMMMMMMMMMMMMMMMMMMMMMMMM                                     ",
"                     MMMMM*@@@@lMMMMc99999MMMMMe999999999eMMMMMMMMMM3@@@@      MMMMM                ",
"                     MMMMM*@@@@fMMMMe.....MMMMM=.........%MMMMMMMMMM3*@@@@     MMMMM                ",
"                     MMMMM*@@@@fMMMMe.....MMMMM=.........%MMMMMMMMMM3*@@@@     MMMMM                ",
"                     MMMMM*@@@@fMMMMe.....MMMMM=.........%MMMMMMMMMM3@@@@@     MMMMM                ",
"                     MMMMM*@@@@fMMMMe.....MMMMM=.........%MMMMMMMMMM3@@@@@     MMMMM                ",
"                     mmmmm,****fbbbb0.....bbbbb=.........%bbbbbMMMMM3*****     MMMMM                ",
"     MMMMM     @@@@@@@@@@@bMMMM7...............................bMMMMMMMMMu@@@@o                     ",
"     MMMMM     @@@@@@@@@@@bMMMM7...............................bMMMMMMMMMu@@@@o                     ",
"     MMMMM     @@@@@@@@@@@bMMMM7...............................bMMMMMMMMMu@@@@o                     ",
"     MMMMM     @@@@@@@@@@@bMMMM7...............................bMMMMMMMMMu@@@@o                     ",
"     MMMMM     @@@@@@@@@@@bMMMM7...............................bMMMMMMMMMu@@@@o                     ",
"          MMMMMMnlMMllllllMMMMM7...............................XXXXXeMMMMMlllllMMMMM;oooo           ",
"          MMMMMMMMMMMMMMMMMMMMM7....................................eMMMMMMMMMMMMMMM,@@@@@          ",
"          MMMMMMMMMMMMMMMMMMMMM7....................................eMMMMMMMMMMMMMMM,@@@@@          ",
"          MMMMMMMMMMMMMMMMMMMMM7....................................eMMMMMMMMMMMMMMM,@@@@@          ",
"          MMMMMMMMMMMMMMMMMMMMM7...................................XeMMMMMMMMMMMMMMM,@@@@@          ",
"     MMMMM33333hMMMMMMMMMMMMMMMfeeeeeeeeee...............%eeeeeeeeeebMMMMMMMMMMMMMMM,@@@@<MMMM      ",
"     MMMMM,@@@@6MMMMMMMMMMMMMMMMMMMMMMMMMMXX.............%MMMMMMMMMMMMMMMMMMMMMMMMMM,@@@@6MMMMM     ",
"     MMMMM,@@@@6MMMMMMMMMMMMMMMMMMMMMMMMMM...............%MMMMMMMMMMMMMMMMMMMMMMMMMM,@@@@6MMMMM     ",
"     MMMMM,@@@@6MMMMMMMMMMMMMMMMMMMMMMMMMM...............%MMMMMMMMMMMMMMMMMMMMMMMMMM,@@@@6MMMMM     ",
"     MMMMM,@@@@6MMMMMMMMMMMMMMMMMMMMMMMMMM...............%MMMMMMMMMMMMMMMMMMMMMMMMMM,@@@@6MMMMM     ",
"     MMMMM,@@@@3ffffffuuffMMMMMMMMMMMMMMMM777777777777777-fffffMMMMMMMMMMMMMMMMMMMMMf3333uMMMMM     ",
"               @@@@@@@@@@*bMMMMMMMMMMMMMMMMMMMMMMMMMMMMMMl@@@@@bMMMMMMMMMMMMMMMMMMMMMMMMMM          ",
"               @@@@@@@@@@@MMMMMMMMMMMMMMMMMMMMMMMMMMMMMMMl@@@@@bMMMMMMMMMMMMMMMMMMMMMMMMMM          ",
"               @@@@@@@@@@@MMMMMMMMMMMMMMMMMMMMMMMMMMMMMMMl@@@@@bMMMMMMMMMMMMMMMMMMMMMMMMMM          ",
"               @@@@@@@@@@@bMMMMMMMMMMMMMMMMMMMMMMMMMMMMMMl@@@@@bMMMMMMMMMMMMMMMMMMMMMMMMMM          ",
"               @@@@@@@@@@@bMMMMMMMMMMMMMMMMMMMMMMMMMMMMMMl@@@@@bMMMMMMMMMMMMMMMMMMMMMMMMMM          ",
"                          DMMMM   GGF@@@@@MMMMM,@@@@@@@@@,MMMMMMMMMM3@@@@@@@@@o                     ",
"                          DMMMM   GGF@@@@@MMMMM,@@@@@@@@@,MMMMMMMMMM3@@@@@@@@@o                     ",
"                          DMMMM   GGF@@@@@MMMMM,@@@@@@@@@,MMMMMMMMMM3@@@@@@@@@o                     ",
"                          DMMMM   GGF@@@@@MMMMM,@@@@@@@@@,MMMMMMMMMM3@@@@@@@@@o                     ",
"                          MMMMM      @@@@@MMMMM,@@@@@@@@@,MMMMMMMMMM3@@@@@@@@@o                     ",
"          MMMMM                           MMMMMlllllf               gllllf     MMMMM                ",
"          MMMMMM                          MMMMMMMMMMM               MMMMMM     MMMMM                ",
"          MMMMMM                          MMMMMMMMMMM               MMMMMM     MMMMM                ",
"          MMMMMM                          MMMMMMMMMMM               MMMMMM     MMMMM                ",
"          MMMMMM                          MMMMMMMMMMM               MMMMMM     MMMMM                ",
"           MMMM                           MMMMMMMMMM                 MMMM      MMMMM                ",
"                                                                                                    ",
"                                                                                                    ",
"                                                                                                    ",
"                                                                                                    ",
"                                                                                                    ",
"                                                                                                    ",
"                                                                                                    ",
"                                                                                                    ",
"                                                                                                    ",
"                                                                                                    ",
"                                                                                                    ",
"                                                                                                    ",
"                                                                                                    ",
"                                                                                                    ",
"                                                                                                    "
};
