/* XPM */
static char *_b5e6221a3ff462fca54ec716cb1c65bxuf7sV4tJ7JJZ9TI[] = {
/* columns rows colors chars-per-pixel */
"100 100 83 1 ",
"  c None",
". c #271D15",
"X c #33200F",
"o c #34200E",
"O c #35200E",
"+ c #34200F",
"@ c #362210",
"# c #372210",
"$ c #382312",
"% c #392412",
"& c #392513",
"* c #3A2413",
"= c #3B2614",
"- c #3C2614",
"; c #3C2615",
": c #3D2615",
"> c #3D2715",
", c #3E2715",
"< c #3F2816",
"1 c #342518",
"2 c #402917",
"3 c #422A17",
"4 c #432A17",
"5 c #412918",
"6 c #422A18",
"7 c #422A19",
"8 c #442B19",
"9 c #432C18",
"0 c #442C19",
"q c #452C1A",
"w c #462E1A",
"e c #472E1A",
"r c #472F1B",
"t c #402C1D",
"y c #472F1C",
"u c #482F1C",
"i c #46301E",
"p c #49301C",
"a c #49301D",
"s c #4A301C",
"d c #4A311C",
"f c #4A301D",
"g c #4A311D",
"h c #4B311D",
"j c #4A321C",
"k c #4C321E",
"l c #5F3415",
"z c #643819",
"x c #6A3D1D",
"c c #4C3321",
"v c #483B23",
"b c #523520",
"n c #523620",
"m c #533722",
"M c #563922",
"N c #5A3B23",
"B c #583A25",
"V c #5E3D24",
"C c #623F26",
"Z c #355E35",
"A c #634025",
"S c #624026",
"D c #6A4327",
"F c #664228",
"G c #6A4429",
"H c #6B452B",
"J c #6F472A",
"K c #744625",
"L c #71492D",
"P c #72492C",
"I c #794A29",
"U c #7B4E2E",
"Y c #7A4E2F",
"T c #7F4F2D",
"R c #7D4E2E",
"E c #7D5131",
"W c #825332",
"Q c #835433",
"! c #855431",
"~ c #875633",
"^ c #885633",
"/ c #8A5835",
"( c #36834D",
/* pixels */
"                                                                                                    ",
"                                                                                                    ",
"                                                                                                    ",
"                                                                                                    ",
"                                                                                                    ",
"                                                                                                    ",
"                                                                                                    ",
"                                                                                                    ",
"                                                                                                    ",
"                                                                                                    ",
"                                                                                                    ",
"                                                                                                    ",
"                                                                                                    ",
"                                                                                                    ",
"                                                                                                    ",
"                                                                                                    ",
"                                                                                                    ",
"                                                                                                    ",
"                                                                                                    ",
"                                                                                                    ",
"                                                                                                    ",
"                                                                                                    ",
"                                                                                                    ",
"                                                                                                    ",
"                                                                                                    ",
"                                                                                                    ",
"                                                                                                    ",
"                                                                                                    ",
"                                                                                                    ",
"                                                                                                    ",
"                                                                                                    ",
"                                                                                                    ",
"                                                                                                    ",
"                                                                                                    ",
"                                                                                                    ",
"                                                                                                    ",
"                                                                                                    ",
"                          ppppp           ppppp*+++++                                               ",
"                          ppppp           ppppp*+++++                                               ",
"                          ppppp           ppppp*+++++                                               ",
"                          ppppp           ppppp*+++++                                               ",
"                          ppppp           ppppp*+++++                                               ",
"                               ppppppppppppppppwwwwwwpppppppppp                                     ",
"                               pppppppppppppppppppppppppppppppp                                     ",
"                               pppppppppppppppppppppppppppppppp                                     ",
"                               pppppppppppppppppppppppppppppppp                                     ",
"                               pppppppppppppppppppppppppppppppp                                     ",
"                     ppppp#++++wppppMGGGGGGGGGGGGGGGGGGGGCpppppppppp:++++      ppppp                ",
"                     ppppp#++++6ppppA////////////////////Ypppppppppp:#++++     ppppp                ",
"                     ppppp#++++6ppppA////////////////////Ypppppppppp:#++++     ppppp                ",
"                     ppppp#++++6ppppA////////////////////Ypppppppppp:+++++     ppppp                ",
"                     ppppp#++++6ppppA////////////////////Ypppppppppp:+++++     ppppp                ",
"                     uuuuu*####wbbbbF/////EEEEE/////^!!!!Ybbbbbppppp:#####     ppppp                ",
"     ppppp     +++++++++++yppppL//////////.....L////Kllllx/////bppppppppp4++++X                     ",
"     ppppp     +++++++++++yppppL//////////.....L////Kllllx/////bppppppppp4++++X                     ",
"     ppppp     +++++++++++yppppL//////////.....L////Kllllx/////bppppppppp4++++X                     ",
"     ppppp     +++++++++++yppppL//////////.....L////Kllllx/////bppppppppp4++++X                     ",
"     ppppp     +++++++++++yppppL//////////.....L////Kllllx/////bppppppppp4++++X                     ",
"          ppppppiwppwwwwwwpppppL//////////EEEEEQ////!!!!!IzzzzzTWWWWVpppppwwwwwppppp$XXXX           ",
"          pppppppppppppppppppppL/////////////////////////Tlllll!////Cppppppppppppppp*+++++          ",
"          pppppppppppppppppppppL/////////////////////////Tlllll!////Appppppppppppppp*+++++          ",
"          pppppppppppppppppppppL/////////////////////////Tlllll!////Cppppppppppppppp*+++++          ",
"          pppppppppppppppppppppL/////////////////////////Tlllll!////Cppppppppppppppp*+++++          ",
"     ppppp:::::9pppppppppppppppNAAAAL//////////BccccG////!IIIIIAAAAAbppppppppppppppp*++++=pppp      ",
"     ppppp*++++<ppppppppppppppppppppA//////////t....B//////////bpppppppppppppppppppp*++++<ppppp     ",
"     ppppp*++++<ppppppppppppppppppppA//////////t....B//////////bpppppppppppppppppppp*++++<ppppp     ",
"     ppppp*++++<ppppppppppppppppppppA//////////t....B//////////bpppppppppppppppppppp*++++<ppppp     ",
"     ppppp*++++<ppppppppppppppppppppA//////////t....B//////////bpppppppppppppppppppp*++++<ppppp     ",
"     ppppp*++++:6666666666ppppppppppNLLLLLLLLLLi1111bLLLLJDDDDDkpppppppppppppppppppp6::::4ppppp     ",
"               ++++++++++#yppppppppppppppppppppppppppppppw+++++ypppppppppppppppppppppppppp          ",
"               +++++++++++pppppppppppppppppppppppppppppppw+++++ypppppppppppppppppppppppppp          ",
"               +++++++++++pppppppppppppppppppppppppppppppw+++++ypppppppppppppppppppppppppp          ",
"               +++++++++++yppppppppppppppppppppppppppppppw+++++ypppppppppppppppppppppppppp          ",
"               +++++++++++yppppppppppppppppppppppppppppppw+++++ypppppppppppppppppppppppppp          ",
"                          vpppp   ((Z+++++ppppp*+++++++++*pppppppppp:+++++++++X                     ",
"                          vpppp   ((Z+++++ppppp*+++++++++*pppppppppp:+++++++++X                     ",
"                          vpppp   ((Z+++++ppppp*+++++++++*pppppppppp:+++++++++X                     ",
"                          vpppp   ((Z+++++ppppp*+++++++++*pppppppppp:+++++++++X                     ",
"                          ppppp      +++++ppppp*+++++++++*pppppppppp:+++++++++X                     ",
"          ppppp                           pppppwwwww6               8wwww6     ppppp                ",
"          pppppp                          ppppppppppp               pppppp     ppppp                ",
"          pppppp                          ppppppppppp               pppppp     ppppp                ",
"          pppppp                          ppppppppppp               pppppp     ppppp                ",
"          pppppp                          ppppppppppp               pppppp     ppppp                ",
"           pppp                           pppppppppp                 pppp      ppppp                ",
"                                                                                                    ",
"                                                                                                    ",
"                                                                                                    ",
"                                                                                                    ",
"                                                                                                    ",
"                                                                                                    ",
"                                                                                                    ",
"                                                                                                    ",
"                                                                                                    ",
"                                                                                                    ",
"                                                                                                    ",
"                                                                                                    ",
"                                                                                                    ",
"                                                                                                    ",
"                                                                                                    "
};
