/* XPM */
static char *_6a12b3d7310443996480e287f88d80f4BWcX3XfQ7IbZ2wj[] = {
/* columns rows colors chars-per-pixel */
"217 84 12 1 ",
"  c None",
". c gray13",
"X c #222222",
"o c gray18",
"O c #3A3A3A",
"+ c gray23",
"@ c #6D6D6D",
"# c #A0A0A0",
"$ c #EAEAEA",
"% c gray92",
"& c #ECECEC",
"* c gray93",
/* pixels */
"                                                                                                                                                                                                                         ",
"                                                                                                                                                                                                                         ",
"                                                                                                                                                                                                                         ",
"                                                                                                                                                                                                                         ",
"                                                                                                                                                                                                                         ",
"                                                                                                                                                                                                                         ",
"                                                                                                                                                                                                                         ",
"                                                                                                                                                                                                                         ",
"                                                                                                                                                                                                                         ",
"                                                                                                                                                                                                                         ",
"                                                                                                                                                                                                                         ",
"                                                                                                                                                                                                                         ",
"                                                                                                                                                                                                                         ",
"                                                                                                                                                                                                                         ",
"                                                                                                                                                                                                                         ",
"                                                                                                                                                                                                                         ",
"                                                                                                                                                                                                                         ",
"                                                                                                                                                                                                                         ",
"                                                                                                                                                                                                                         ",
"                                                                                                                                                                                                                         ",
"                                                                                                                                                                                                                         ",
"                                                                                                                                                                                                                         ",
"                       &&&&&&&&&&&&&&&&&&&&&&&&&&&&&&&&&&&&&&&&&&&&&&&&&&&&&&&&&&&&&&&&&&&&&&&&&&&&&&&&&&&&&&&&&&&&&&&&&&&&&&&&&&&&&&&&&&&&&&&&&&&&&&&&&&&&&&&&&&&&&&&&&&&&&&&&&&&&&&&&&&&&&&&&&&&&&&&&&&&&&&&&&&&&&     ",
"                       &&&&&&&&&&&&&&&&&&&&&&&&&&&&&&&&&&&&&&&&&&&&&&&&&&&&&&&&&&&&&&&&&&&&&&&&&&&&&&&&&&&&&&&&&&&&&&&&&&&&&&&&&&&&&&&&&&&&&&&&&&&&&&&&&&&&&&&&&&&&&&&&&&&&&&&&&&&&&&&&&&&&&&&&&&&&&&&&&&&&&&&&&&&&&     ",
"                       &&&&&&&&&&&&&&&&&&&&&&&&&&&&&&&&&&&&&&&&&&&&&&&&&&&&&&&&&&&&&&&&&&&&&&&&&&&&&&&&&&&&&&&&&&&&&&&&&&&&&&&&&&&&&&&&&&&&&&&&&&&&&&&&&&&&&&&&&&&&&&&&&&&&&&&&&&&&&&&&&&&&&&&&&&&&&&&&&&&&&&&&&&&&&     ",
"                       &&#.......................................................................................................................................................................................&&&     ",
"                       &&#.......................................................................................................................................................................................&&&     ",
"                       &&#.......................................................................................................................................................................................&&&     ",
"                 &&&&&&&&#.......................................................................................................................................................................................&&&&&&&&",
"                 &&&&&&&&#.......................................................................................................................................................................................&&&&&&&&",
"                 &&&&&&&&#.......................................................................................................................................................................................&&&$$&&&",
"                 &&&OOOOOo.......................................................................................................................................................................................OOOOO&&&",
"                 &&&..................................................................................................................................................................................................&&&",
"                 &&&..................................................................................................................................................................................................&&&",
"                 &&&..................................................................................................................................................................................................&&&",
"                 &&&..................................................................................................................................................................................................&&&",
"                 &&&..................................................................................................................................................................................................&&&",
"                 &&&..................................................................................................................................................................................................&&&",
"                 &&&..................................................................................................................................................................................................&&&",
"                 &&&..................................................................................................................................................................................................&&&",
"                 &&&..................................................................................................................................................................................................&&&",
"                 &&&..................................................................................................................................................................................................&&&",
"                 &&&..................................................................................................................................................................................................&&&",
"                 &&&..................................................................................................................................................................................................&&&",
"                 &&&..................................................................................................................................................................................................&&&",
"                 &&&..................................................................................................................................................................................................&&&",
"                 &&&..................................................................................................................................................................................................&&&",
"                 &&&..................................................................................................................................................................................................&&&",
"                 &&&..................................................................................................................................................................................................&&&",
"                 &&&..................................................................................................................................................................................................&&&",
"                 &&&..................................................................................................................................................................................................&&&",
"                 &&&..................................................................................................................................................................................................&&&",
"                 &&&..................................................................................................................................................................................................&&&",
"                 &&&..................................................................................................................................................................................................&&&",
"                 &&&..................................................................................................................................................................................................&&&",
"                 &&&..................................................................................................................................................................................................&&&",
"                 &&&..................................................................................................................................................................................................&&&",
"                 &&&#####@.......................................................................................................................................................................................#####&&&",
"                 &&&&&&&&#.......................................................................................................................................................................................&&&&&&&&",
"                 &&&&&&&&#.......................................................................................................................................................................................&&&&&&&&",
"                      $&&#.......................................................................................................................................................................................&&&     ",
"                       &&#.......................................................................................................................................................................................&&&     ",
"                       &&#.......................................................................................................................................................................................&&&     ",
"                       &&&&&&&&&&&&&&&&&&&&&&&&&&&&&&&&&&&&&&&&&&&&&&&&&&&&&&&&&&&&&&&&&&&&&&&&&&&&&&&&&&&&&&&&&&&&&&&&&&&&&&&&&&&&&&&&&&&&&&&&&&&&&&&&&&&&&&&&&&&&&&&&&&&&&&&&&&&&&&&&&&&&&&&&&&&&&&&&&&&&&&&&&&&&&     ",
"                       &&&&&&&&&&&&&&&&&&&&&&&&&&&&&&&&&&&&&&&&&&&&&&&&&&&&&&&&&&&&&&&&&&&&&&&&&&&&&&&&&&&&&&&&&&&&&&&&&&&&&&&&&&&&&&&&&&&&&&&&&&&&&&&&&&&&&&&&&&&&&&&&&&&&&&&&&&&&&&&&&&&&&&&&&&&&&&&&&&&&&&&&&&&&&     ",
"                       &&&&&&&&&&&&&&&&&&&&&&&&&&&&&&&&&&&&&&&&&&&&&&&&&&&&&&&&&&&&&&&&&&&&&&&&&&&&&&&&&&&&&&&&&&&&&&&&&&&&&&&&&&&&&&&&&&&&&&&&&&&&&&&&&&&&&&&&&&&&&&&&&&&&&&&&&&&&&&&&&&&&&&&&&&&&&&&&&&&&&&&&&&&&&     ",
"                                                                                                                                                                                                                         ",
"                                                                                                                                                                                                                         ",
"                                                                                                                                                                                                                         ",
"                                                                                                                                                                                                                         ",
"                                                                                                                                                                                                                         ",
"                                                                                                                                                                                                                         ",
"                                                                                                                                                                                                                         ",
"                                                                                                                                                                                                                         ",
"                                                                                                                                                                                                                         ",
"                                                                                                                                                                                                                         ",
"                                                                                                                                                                                                                         ",
"                                                                                                                                                                                                                         ",
"                                                                                                                                                                                                                         ",
"                                                                                                                                                                                                                         ",
"                                                                                                                                                                                                                         ",
"                                                                                                                                                                                                                         ",
"                                                                                                                                                                                                                         ",
"                                                                                                                                                                                                                         "
};
