/* XPM */
static char *result[] = {
/* columns rows colors chars-per-pixel */
"100 100 85 1 ",
"  c #1F110E",
". c #1E100F",
"X c #1E110F",
"o c #0F0F18",
"O c #0C0E1A",
"+ c #120E17",
"@ c #160E14",
"# c #151015",
"$ c #191011",
"% c #1B1111",
"& c #1D1111",
"* c #20100B",
"= c #20100C",
"- c #20110C",
"; c #21100D",
": c #21110D",
"> c #22120E",
", c #24130E",
"< c #271510",
"1 c #2A1812",
"2 c #2B1912",
"3 c #2C1A13",
"4 c #2D1A13",
"5 c #2F1C14",
"6 c #2F1C15",
"7 c #321F16",
"8 c #331F16",
"9 c #362117",
"0 c #362118",
"q c #372218",
"w c #372318",
"e c #382319",
"r c #38241B",
"t c #3A241A",
"y c #3C271A",
"u c #3D271C",
"i c #3E281B",
"p c #3E281C",
"a c #412A1D",
"s c #402A1F",
"d c #442C1F",
"f c #493121",
"g c #4A3222",
"h c #4B3225",
"j c #503625",
"k c #523726",
"l c #543A27",
"z c #553A27",
"x c #593D2A",
"c c #5A3E2B",
"v c #583D2E",
"b c #5E412D",
"n c #5F412D",
"m c #5F4332",
"M c #60432D",
"N c #62442E",
"B c #644735",
"V c #674832",
"C c #6B4B33",
"Z c #6C4B33",
"A c #6B4C33",
"S c #714F36",
"D c #715037",
"F c #755338",
"G c #77553A",
"H c #7A573C",
"J c #7C5A41",
"K c #7F5B40",
"L c #7F5C42",
"P c #846044",
"I c #846047",
"U c #896448",
"Y c #8B664A",
"T c #8E684C",
"R c #8E694C",
"E c #8D694E",
"W c #916B4E",
"Q c #936D50",
"! c #956F52",
"~ c #966F52",
"^ c #987254",
"/ c #9A7456",
"( c #9B7456",
") c #9D7658",
"_ c None",
/* pixels */
"____________________________-:::::::::::::::::::::::::::::::::::::::::::____________________________",
"____________________________-:::::::::::::::::::::::::::::::::::::::::::____________________________",
"____________________________-:::::::::::::::::::::::::::::::::::::::::::____________________________",
"____________________________-:::::::::::::::::::::::::::::::::::::::::::____________________________",
"____________________________-:::::::::::::::::::::::::::::::::::::::::::____________________________",
"____________________________-:::::::::::::::::::::::::::::::::::::::::::____________________________",
"______________________::::::nCCCCCJEEEEEEEEEEEEEEEEEEEEEEEEEEEEEEICCCCCC::::::______________________",
"______________________::::::MFFFFFU))))))))))))))))))))))))))))))QFFFFFF::::::______________________",
"______________________::::::MFFFFFU))))))))))))))))))))))))))))))QFFFFFF::::::______________________",
"______________________::::::MFFFFFU))))))))))))))))))))))))))))))QFFFFFF::::::______________________",
"______________________::::::MFFFFFU))))))))))))))))))))))))))))))QFFFFFF::::::______________________",
"______________________::::::MFFFFFU))))))))))))))))))))))))))))))QFFFFFF::::::______________________",
"________________******zzzzzzLTTTTT!)))))!PPPPPPPPPPPPPPPPPPW)))))/TTTTTTzzzzzz5*****________________",
"________________::::::FFFFFFQ)))))))))))QFFFFFFFFFFFFFFFFFFU))))))))))))FFFFFF9:::::=_______________",
"________________::::::FFFFFFQ)))))))))))QFFFFFFFFFFFFFFFFFFU))))))))))))FFFFFF9:::::=_______________",
"________________::::::FFFFFFQ)))))))))))QFFFFFFFFFFFFFFFFFFU))))))))))))FFFFFF9:::::=_______________",
"________________::::::FFFFFFQ)))))))))))QFFFFFFFFFFFFFFFFFFU))))))))))))FFFFFF9:::::=_______________",
"________________::::::FFFFFFQ)))))))))))QFFFFFFFFFFFFFFFFFFU))))))))))))FFFFFF9:::::=_______________",
"________________::::::FFFFFFQ)))))))))))QFFFFFFFFFFFFFFFFFFU))))))))))))FFFFFF9:::::=_______________",
"________________::::::FFFFFFQ)))))))))))QFFFFFFFFFFFFFFFFFFU))))))))))))FFFFFF9:::::=_______________",
"________________::::::FFFFFFQ)))))))))))QFFFFFFFFFFFFFFFFFFU))))))))))))FFFFFF9:::::=_______________",
"________________::::::FFFFFFQ)))))))))))QFFFFFFFFFFFFFFFFFFU))))))))))))FFFFFF9:::::=_______________",
"________________::::::FFFFFFQ)))))))))))QFFFFFFFFFFFFFFFFFFU))))))))))))FFFFFF9:::::=_______________",
"________________::::::FFFFFFQ)))))))))))QFFFFFFFFFFFFFFFFFFU))))))))))))FFFFFF9:::::=_______________",
"________________::::::SSSSSSR^^^^^()))))~HHHHHHHHHHHHHHHHHHY)))))(^^^^^^SSSSSS9:::::=_______________",
"________________::::::jjjjjjAFFFFFU))))))))))))))))))))))))))))))QFFFFFFjjjjjj4:::::=_______________",
"________________::::::jjjjjjAFFFFFU))))))))))))))))))))))))))))))QFFFFFFjjjjjj4:::::=_______________",
"________________::::::jjjjjjAFFFFFU))))))))))))))))))))))))))))))QFFFFFFjjjjjj4:::::=_______________",
"________________::::::jjjjjjAFFFFFU))))))))))))))))))))))))))))))QFFFFFFjjjjjj4:::::=_______________",
"________________::::::jjjjjjAFFFFFU))))))))))))))))))))))))))))))QFFFFFFjjjjjj4:::::=_______________",
"________________::::::jjjjjjAFFFFFU))))))))))))))))))))))))))))))QFFFFFFjjjjjj4:::::=_______________",
"________________::::::<<<<<<flllllVHHHHHHHHHHHHHHHHHHHHHHHHHHHHHHDllllll<<<<<<,:::::=_______________",
"________________::::::::::::djjjjjNFFFFFFFFFFFFFFFFFFFFFFFFFFFFFFZjjjjjj::::::::::::=_______________",
"________________::::::::::::djjjjjNFFFFFFFFFFFFFFFFFFFFFFFFFFFFFFZjjjjjj::::::::::::=_______________",
"________________::::::::::::djjjjjNFFFFFFFFFFFFFFFFFFFFFFFFFFFFFFZjjjjjj::::::::::::=_______________",
"________________::::::::::::djjjjjNFFFFFFFFFFFFFFFFFFFFFFFFFFFFFFZjjjjjj::::::::::::=_______________",
"________________::::::::::::djjjjjNFFFFFFFFFFFFFFFFFFFFFFFFFFFFFFZjjjjjj::::::::::::=_______________",
"______________________::::::488888taaaaaaaaaaaaaaaaaaaaaaaaaaaaaap888888::::::>_____________________",
"______________________::::::::::::::::::::::::::::::::::::::::::::::::::::::::______________________",
"______________________::::::::::::::::::::::::::::::::::::::::::::::::::::::::______________________",
"______________________::::::::::::::::::::::::::::::::::::::::::::::::::::::::______________________",
"______________________::::::::::::::::::::::::::::::::::::::::::::::::::::::::______________________",
"______________________::::::::::::::::::::::::::::::::::::::::::::::::::::::::______________________",
"______________________::::::677777777777waaaaaa777777iaaaaaaaaaaay777777::::::______________________",
"______________________::::::djjjjjjjjjjjxFFFFFFjjjjjjAFFFFFFFFFFFZjjjjjj::::::______________________",
"______________________::::::djjjjjjjjjjjxFFFFFFjjjjjjAFFFFFFFFFFFZjjjjjj::::::______________________",
"______________________::::::djjjjjjjjjjjxFFFFFFjjjjjjAFFFFFFFFFFFZjjjjjj::::::______________________",
"______________________::::::djjjjjjjjjjjxFFFFFFjjjjjjAFFFFFFFFFFFZjjjjjj::::::______________________",
"______________________::::::djjjjjjjjjjjxFFFFFFjjjjjjAFFFFFFFFFFFZjjjjjj::::::______________________",
"______________________::::::djjjjjklllllbHHHHHHccccccDHHHHHGFFFFFZjjjjjj::::::______________________",
"______________________::::::djjjjjNFFFFFK))))))))))))))))))UFFFFFZjjjjjj::::::______________________",
"______________________::::::djjjjjNFFFFFK))))))))))))))))))UFFFFFZjjjjjj::::::______________________",
"______________________::::::djjjjjNFFFFFK))))))))))))))))))UFFFFFZjjjjjj::::::______________________",
"______________________::::::djjjjjNFFFFFK))))))))))))))))))UFFFFFZjjjjjj::::::______________________",
"______________________::::::djjjjjNFFFFFK))))))))))))))))))UFFFFFZjjjjjj::::::______________________",
"______________________::::::djjjjjNFFFFFK))))))))))))))))))UFFFFFZjjjjjj::::::______________________",
"______________________::::::djjjjju22222h))))))))))))))))))B22222qjjjjjj::::::______________________",
"______________________::::::djjjjje:::::s))))))))))))))))))m:::::3jjjjjj::::::______________________",
"______________________::::::djjjjje:::::s))))))))))))))))))m:::::3jjjjjj::::::______________________",
"______________________::::::djjjjje:::::s))))))))))))))))))m:::::3jjjjjj::::::______________________",
"______________________::::::djjjjje:::::s))))))))))))))))))m:::::3jjjjjj::::::______________________",
"______________________::::::djjjjje:::::s))))))))))))))))))m:::::3jjjjjj::::::______________________",
"______________________::::::djjjjje:::::s))))))))))))))))))m:::::3jjjjjj::::::@_____________________",
"________________OOOOOO::::::djjjjje:::::s))))))))))))))))))m:::::3jjjjjj::::::#OOOOO________________",
"________________OOOOOO::::::djjjjje:::::s))))))))))))))))))m:::::3jjjjjj::::::#OOOOO________________",
"________________OOOOOO::::::djjjjje:::::s))))))))))))))))))m:::::3jjjjjj::::::#OOOOO________________",
"________________OOOOOO::::::djjjjje:::::s))))))))))))))))))m:::::3jjjjjj::::::#OOOOO________________",
"________________OOOOOO::::::djjjjje:::::s))))))))))))))))))m:::::3jjjjjj::::::#OOOOO________________",
"________________OOOOOO::::::djjjjje:::::s))))))))))))))))))m:::::3jjjjjj::::::#OOOOO________________",
"________________OOOOOO::::::djjjjje:::::s))))))))))))))))))m:::::3jjjjjj::::::#OOOOO________________",
"________________OOOOOO::::::djjjjje:::::s))))))))))))))))))m:::::3jjjjjj::::::#OOOOO________________",
"________________OOOOOO::::::djjjjje:::::s))))))))))))))))))m:::::3jjjjjj::::::#OOOOO________________",
"________________OOOOOO::::::djjjjje:::::s))))))))))))))))))m:::::3jjjjjj::::::#OOOOO________________",
"________________OOOOOO::::::djjjjje:::::s))))))))))))))))))m:::::3jjjjjj::::::#OOOOO________________",
"________________OOOOOO      pggggg0:::::s))))))))))))))))))m:::::1gggggg      #OOOOO________________",
"__________OOOOOOOOOOOOOOOOOO.:::::::::::s))))))))))))))))))m::::::::::::OOOOOOOOOOOOOOOOOO__________",
"__________OOOOOOOOOOOOOOOOOO.:::::::::::s))))))))))))))))))m::::::::::::OOOOOOOOOOOOOOOOOO__________",
"__________OOOOOOOOOOOOOOOOOO.:::::::::::s))))))))))))))))))m::::::::::::OOOOOOOOOOOOOOOOOO__________",
"__________OOOOOOOOOOOOOOOOOO.:::::::::::s))))))))))))))))))m::::::::::::OOOOOOOOOOOOOOOOOO__________",
"__________OOOOOOOOOOOOOOOOOO.:::::::::::s))))))))))))))))))m::::::::::::OOOOOOOOOOOOOOOOOO__________",
"__________OOOOOOOOOOOOOOOOOO.:::::::::::s))))))))))))))))))m::::::::::::OOOOOOOOOOOOOOOOOO__________",
"______________________OOOOOOo+++++%:::::s))))))))))))))))))m:::::X++++++OOOOOO______________________",
"______________________OOOOOOOOOOOO$:::::s))))))))))))))))))m:::::XOOOOOOOOOOOO______________________",
"______________________OOOOOOOOOOOO$:::::s))))))))))))))))))m:::::XOOOOOOOOOOOO______________________",
"______________________OOOOOOOOOOOO$:::::s))))))))))))))))))m:::::XOOOOOOOOOOOO______________________",
"______________________OOOOOOOOOOOO$:::::s))))))))))))))))))m:::::XOOOOOOOOOOOO______________________",
"______________________OOOOOOOOOOOO$:::::s))))))))))))))))))m:::::XOOOOOOOOOOOO______________________",
"_____________________________OOOOO$:::::s))))))))))))))))))m:::::XOOOOOO____________________________",
"_____________________________OOOOO$:::::s))))))))))))))))))m:::::XOOOOOO____________________________",
"_____________________________OOOOO$:::::s))))))))))))))))))m:::::XOOOOOO____________________________",
"_____________________________OOOOO$:::::s))))))))))))))))))m:::::XOOOOOO____________________________",
"_____________________________OOOOO$:::::s))))))))))))))))))m:::::XOOOOOO____________________________",
"_____________________________OOOOO$:::::s))))))))))))))))))m:::::XOOOOOO____________________________",
"__________________________________&:::::s))))))))))))))))))m::::: __________________________________",
"__________________________________=:::::s))))))))))))))))))m:::::;__________________________________",
"__________________________________=:::::s))))))))))))))))))m:::::;__________________________________",
"__________________________________=:::::s))))))))))))))))))m:::::;__________________________________",
"__________________________________=:::::s))))))))))))))))))m:::::;__________________________________",
"__________________________________=:::::s))))))))))))))))))m:::::;__________________________________",
"__________________________________=:::::rEEEEEEEEEEEEEEEEEEv:::::-__________________________________"
};
