/* XPM */
static char *b8a27b70449f4ff998364528a38fc086OPLilogEOS3uPVPX[] = {
/* columns rows colors chars-per-pixel */
"100 100 91 1 ",
"  c None",
". c #1E100F",
"X c #1F110F",
"o c #1F120E",
"O c #1A0F12",
"+ c #0E101A",
"@ c #121017",
"# c #131017",
"$ c #161015",
"% c #1B1011",
"& c #191013",
"* c #1E1010",
"= c #20100B",
"- c #20100C",
"; c #20110C",
": c #21100D",
"> c #20110D",
", c #21110D",
"< c #20110E",
"1 c #21110E",
"2 c #24130F",
"3 c #2A1811",
"4 c #2A1812",
"5 c #2B1912",
"6 c #2C1A13",
"7 c #2D1A13",
"8 c #2D1B14",
"9 c #311E16",
"0 c #331F16",
"q c #362117",
"w c #382319",
"e c #3E281C",
"r c #412A1D",
"t c #412A1E",
"y c #402A1F",
"u c #442C1F",
"i c #483123",
"p c #4A3122",
"a c #4A3222",
"s c #4B3325",
"d c #4F3628",
"f c #503625",
"g c #513726",
"h c #523826",
"j c #533827",
"k c #553A27",
"l c #573B28",
"z c #593D2A",
"x c #5A3E2A",
"c c #5B3E2B",
"v c #5A3E2C",
"b c #5D402C",
"n c #5E402C",
"m c #5F4332",
"M c #60432D",
"N c #61432D",
"B c #62442E",
"V c #63452F",
"C c #63462F",
"Z c #654731",
"A c #664830",
"S c #674830",
"D c #694A32",
"F c #6B4B33",
"G c #6C4B33",
"H c #6B4C33",
"J c #6C4C33",
"K c #6A4B35",
"L c #715038",
"P c #755338",
"I c #7A573C",
"U c #7B583E",
"Y c #7B583F",
"T c #795840",
"R c #7F5B40",
"E c #815E42",
"W c #805E45",
"Q c #846044",
"! c #856145",
"~ c #896448",
"^ c #896549",
"/ c #8B664A",
"( c #8E684C",
") c #916B4E",
"_ c #936D50",
"` c #956F52",
"' c #966F52",
"] c #987254",
"[ c #9A7456",
"{ c #9B7456",
"} c #9D7658",
/* pixels */
"                             ===========================================                            ",
"                            ,,,,,,,,,,,,,,,,,,,,,,,,,,,,,,,,,,,,,,,,,,,,                            ",
"                            ,,,,,,,,,,,,,,,,,,,,,,,,,,,,,,,,,,,,,,,,,,,,                            ",
"                            ,,,,,,,,,,,,,,,,,,,,,,,,,,,,,,,,,,,,,,,,,,,,                            ",
"                            ,,,,,,,,,,,,,,,,,,,,,,,,,,,,,,,,,,,,,,,,,,,,                            ",
"                            ,,,,,,,,,,,,,,,,,,,,,,,,,,,,,,,,,,,,,,,,,,,,                            ",
"                            ttttttiddddddddddddddddddddddddddddddstttttt                            ",
"                      ,,,,,,MPPPPP~}}}}}}}}}}}}}}}}}}}}}}}}}}}}}}_PPPPPP,,,,,,                      ",
"                      ,,,,,,MPPPPP~}}}}}}}}}}}}}}}}}}}}}}}}}}}}}}_PPPPPP,,,,,,                      ",
"                      ,,,,,,MPPPPP~}}}}}}}}}}}}}}}}}}}}}}}}}}}}}}_PPPPPP,,,,,,                      ",
"                      ,,,,,,MPPPPP~}}}}}}}}}}}}}}}}}}}}}}}}}}}}}}_PPPPPP,,,,,,                      ",
"                      ,,,,,,MPPPPP~}}}}}}}}}}}}}}}}}}}}}}}}}}}}}}_PPPPPP,,,,,,                      ",
"                      555555ZIIIII~}}}}}{]]]]]]]]]]]]]]]]]]{}}}}}`IIIIII555555                      ",
"                ,,,,,,PPPPPP_}}}}}}}}}}}_PPPPPPPPPPPPPPPPPP~}}}}}}}}}}}}PPPPPPq,,,,,,               ",
"                ,,,,,,PPPPPP_}}}}}}}}}}}_PPPPPPPPPPPPPPPPPP~}}}}}}}}}}}}PPPPPPq,,,,,,               ",
"                ,,,,,,PPPPPP_}}}}}}}}}}}_PPPPPPPPPPPPPPPPPP~}}}}}}}}}}}}PPPPPPq,,,,,,               ",
"                ,,,,,,PPPPPP_}}}}}}}}}}}_PPPPPPPPPPPPPPPPPP~}}}}}}}}}}}}PPPPPPq,,,,,,               ",
"                ,,,,,,PPPPPP_}}}}}}}}}}}_PPPPPPPPPPPPPPPPPP~}}}}}}}}}}}}PPPPPPq,,,,,,               ",
"                ,,,,,,PPPPPP_}}}}}}}}}}}_PPPPPPPPPPPPPPPPPP~}}}}}}}}}}}}PPPPPPq,,,,,,               ",
"                ,,,,,,PPPPPP_}}}}}}}}}}}_PPPPPPPPPPPPPPPPPP~}}}}}}}}}}}}PPPPPPq,,,,,,               ",
"                ,,,,,,PPPPPP_}}}}}}}}}}}_PPPPPPPPPPPPPPPPPP~}}}}}}}}}}}}PPPPPPq,,,,,,               ",
"                ,,,,,,PPPPPP_}}}}}}}}}}}_PPPPPPPPPPPPPPPPPP~}}}}}}}}}}}}PPPPPPq,,,,,,               ",
"                ,,,,,,PPPPPP_}}}}}}}}}}}_PPPPPPPPPPPPPPPPPP~}}}}}}}}}}}}PPPPPPq,,,,,,               ",
"                ,,,,,,PPPPPP_}}}}}}}}}}}_PPPPPPPPPPPPPPPPPP~}}}}}}}}}}}}PPPPPPq,,,,,,               ",
"                ,,,,,,PPPPPP_}}}}}}}}}}}_PPPPPPPPPPPPPPPPPP~}}}}}}}}}}}}PPPPPPq,,,,,,               ",
"                ,,,,,,nnnnnnUQQQQQ)}}}}}{((((((((((((((((((`}}}}}`QQQQQQnnnnnn9,,,,,,               ",
"                ,,,,,,ffffffHPPPPP~}}}}}}}}}}}}}}}}}}}}}}}}}}}}}}_PPPPPPffffff6,,,,,,               ",
"                ,,,,,,ffffffHPPPPP~}}}}}}}}}}}}}}}}}}}}}}}}}}}}}}_PPPPPPffffff6,,,,,,               ",
"                ,,,,,,ffffffHPPPPP~}}}}}}}}}}}}}}}}}}}}}}}}}}}}}}_PPPPPPffffff6,,,,,,               ",
"                ,,,,,,ffffffHPPPPP~}}}}}}}}}}}}}}}}}}}}}}}}}}}}}}_PPPPPPffffff6,,,,,,               ",
"                ,,,,,,ffffffHPPPPP~}}}}}}}}}}}}}}}}}}}}}}}}}}}}}}_PPPPPPffffff6,,,,,,               ",
"                ,,,,,,eeeeeenSSSSSU((((((((((((((((((((((((((((((QSSSSSSeeeeee5,,,,,,               ",
",,,,,,,,,,,,,,,,,,,,,,,,,,,,ufffffBPPPPPPPPPPPPPPPPPPPPPPPPPPPPPPGffffff,,,,,,,,,,,,,               ",
",,,,,,,,,,,,,,,,,,,,,,,,,,,,ufffffBPPPPPPPPPPPPPPPPPPPPPPPPPPPPPPGffffff,,,,,,,,,,,,,               ",
",,,,,,,,,,,,,,,,,,,,,,,,,,,,ufffffBPPPPPPPPPPPPPPPPPPPPPPPPPPPPPPGffffff,,,,,,,,,,,,,               ",
",,,,,,,,,,,,,,,,,,,,,,,,,,,,ufffffBPPPPPPPPPPPPPPPPPPPPPPPPPPPPPPGffffff,,,,,,,,,,,,,               ",
",,,,,,,,,,,,,,,,,,,,,,,,,,,,ufffffBPPPPPPPPPPPPPPPPPPPPPPPPPPPPPPGffffff,,,,,,,,,,,,,               ",
"9999999999999999999999,,,,,,eiiiiixFFFFFFFFFFFFFFFFFFFFFFFFFFFFFFBiiiiii,,,,,,,,,,,,                ",
"}}}}}}}}}}}}}}}}}}}}}},,,,,,,,,,,,,,,,,,,,,,,,,,,,,,,,,,,,,,,,,,,,,,,,,,,,,,,,                      ",
"}}}}}}}}}}}}}}}}}}}}}},,,,,,,,,,,,,,,,,,,,,,,,,,,,,,,,,,,,,,,,,,,,,,,,,,,,,,,,                      ",
"}}}}}}}}}}}}}}}}}}}}}},,,,,,,,,,,,,,,,,,,,,,,,,,,,,,,,,,,,,,,,,,,,,,,,,,,,,,,,                      ",
"}}}}}}}}}}}}}}}}}}}}}},,,,,,,,,,,,,,,,,,,,,,,,,,,,,,,,,,,,,,,,,,,,,,,,,,,,,,,,                      ",
"}}}}}}}}}}}}}}}}}}}}}},,,,,,,,,,,,,,,,,,,,,,,,,,,,,,,,,,,,,,,,,,,,,,,,,,,,,,,,                      ",
"}}}}}}}}}}}}}}}}}}}}}},,,,,,,,,,,,,,,,,,,,,,,,,,,,,,,,,,,,,,,,,,,,,,,,,,,,,,,,                      ",
"vvvvvvvvvvvvvvvBIIIIII,,,,,,tiiiiiiiiiiijFFFFFFiiiiiiBFFFFFFFFFFFMiiiiii,,,,,,                      ",
"fffffffffffffffxPPPPPP,,,,,,ufffffffffffxPPPPPPffffffHPPPPPPPPPPPGffffff,,,,,,                      ",
"fffffffffffffffxPPPPPP,,,,,,ufffffffffffxPPPPPPffffffHPPPPPPPPPPPGffffff,,,,,,                      ",
"fffffffffffffffxPPPPPP,,,,,,ufffffffffffxPPPPPPffffffHPPPPPPPPPPPGffffff,,,,,,                      ",
"fffffffffffffffxPPPPPP,,,,,,ufffffffffffxPPPPPPffffffHPPPPPPPPPPPGffffff,,,,,,                      ",
"fffffffffffffffxPPPPPP,,,,,,ufffffffffffxPPPPPPffffffHPPPPPPPPPPPGffffff,,,,,,                      ",
"fffffffffxSSSSSFPPPPPP,,,,,,ufffffxSSSSSL((((((WWWWWW~(((((EPPPPPGffffff,,,,,,                      ",
"fffffffffBPPPPPPPPPPPP,,,,,,ufffffBPPPPPR}}}}}}}}}}}}}}}}}}~PPPPPGffffff,,,,,,                      ",
"fffffffffBPPPPPPPPPPPP,,,,,,ufffffBPPPPPR}}}}}}}}}}}}}}}}}}~PPPPPGffffff,,,,,,                      ",
"fffffffffBPPPPPPPPPPPP,,,,,,ufffffBPPPPPR}}}}}}}}}}}}}}}}}}~PPPPPGffffff,,,,,,                      ",
"fffffffffBPPPPPPPPPPPP,,,,,,ufffffBPPPPPR}}}}}}}}}}}}}}}}}}~PPPPPGffffff,,,,,,                      ",
"fffffffffBPPPPPPPPPPPP,,,,,,ufffffBPPPPPR}}}}}}}}}}}}}}}}}}~PPPPPGffffff,,,,,,                      ",
"nnnnnnnnnBSSSSSJPPPPPP,,,,,,ufffffjkkkkkK}}}}}}}}}}}}}}}}}}Tkkkkklffffff,,,,,,                      ",
"PPPPPPPPPBfffffxPPPPPP,,,,,,ufffffw,,,,,t}}}}}}}}}}}}}}}}}}m,,,,,6ffffff,,,,,,                      ",
"PPPPPPPPPBfffffxPPPPPP,,,,,,ufffffw,,,,,t}}}}}}}}}}}}}}}}}}m,,,,,6ffffff,,,,,,                      ",
"PPPPPPPPPBfffffxPPPPPP,,,,,,ufffffw,,,,,t}}}}}}}}}}}}}}}}}}m,,,,,6ffffff,,,,,,                      ",
"PPPPPPPPPBfffffxPPPPPP,,,,,,ufffffw,,,,,t}}}}}}}}}}}}}}}}}}m,,,,,6ffffff,,,,,,                      ",
"PPPPPPPPPBfffffxPPPPPP,,,,,,ufffffw,,,,,t}}}}}}}}}}}}}}}}}}m,,,,,6ffffff,,,,,,                      ",
"FFFFFFFFFxiiiiifFFFFFF,,,,,,ufffffw,,,,,t}}}}}}}}}}}}}}}}}}m,,,,,6ffffff,,,,,,                      ",
",,,,,,,,,,,,,,,,,,,,,,,,,,,,ufffffw,,,,,t}}}}}}}}}}}}}}}}}}m,,,,,6ffffff,,,,,,$+++++                ",
",,,,,,,,,,,,,,,,,,,,,,,,,,,,ufffffw,,,,,t}}}}}}}}}}}}}}}}}}m,,,,,6ffffff,,,,,,$+++++                ",
",,,,,,,,,,,,,,,,,,,,,,,,,,,,ufffffw,,,,,t}}}}}}}}}}}}}}}}}}m,,,,,6ffffff,,,,,,$+++++                ",
",,,,,,,,,,,,,,,,,,,,,,,,,,,,ufffffw,,,,,t}}}}}}}}}}}}}}}}}}m,,,,,6ffffff,,,,,,$+++++                ",
",,,,,,,,,,,,,,,,,,,,,,,,,,,,ufffffw,,,,,t}}}}}}}}}}}}}}}}}}m,,,,,6ffffff,,,,,,$+++++                ",
",,,,,,,,,,,,,,,,,,,,,,,,,,,,ufffffw,,,,,t}}}}}}}}}}}}}}}}}}m,,,,,6ffffff,,,,,,$+++++                ",
"                ######,,,,,,ufffffw,,,,,t}}}}}}}}}}}}}}}}}}m,,,,,6ffffff,,,,,,$+++++                ",
"                ++++++,,,,,,ufffffw,,,,,t}}}}}}}}}}}}}}}}}}m,,,,,6ffffff,,,,,,$+++++                ",
"                ++++++,,,,,,ufffffw,,,,,t}}}}}}}}}}}}}}}}}}m,,,,,6ffffff,,,,,,$+++++                ",
"                ++++++,,,,,,ufffffw,,,,,t}}}}}}}}}}}}}}}}}}m,,,,,6ffffff,,,,,,$+++++                ",
"                ++++++,,,,,,ufffffw,,,,,t}}}}}}}}}}}}}}}}}}m,,,,,6ffffff,,,,,,$+++++                ",
"                ++++++,,,,,,ufffffw,,,,,t}}}}}}}}}}}}}}}}}}m,,,,,6ffffff,,,,,,$+++++                ",
"                ++++++&&&&&&8999995,,,,,t}}}}}}}}}}}}}}}}}}m,,,,,2999999&&&&&&#+++++                ",
"          ++++++++++++++++++.,,,,,,,,,,,t}}}}}}}}}}}}}}}}}}m,,,,,,,,,,,,++++++++++++++++++          ",
"          ++++++++++++++++++.,,,,,,,,,,,t}}}}}}}}}}}}}}}}}}m,,,,,,,,,,,,++++++++++++++++++          ",
"          ++++++++++++++++++.,,,,,,,,,,,t}}}}}}}}}}}}}}}}}}m,,,,,,,,,,,,++++++++++++++++++          ",
"          ++++++++++++++++++.,,,,,,,,,,,t}}}}}}}}}}}}}}}}}}m,,,,,,,,,,,,++++++++++++++++++          ",
"          ++++++++++++++++++.,,,,,,,,,,,t}}}}}}}}}}}}}}}}}}m,,,,,,,,,,,,++++++++++++++++++          ",
"                      ++++++O*****.,,,,,t}}}}}}}}}}}}}}}}}}m,,,,,,******++++++                      ",
"                      ++++++++++++&,,,,,t}}}}}}}}}}}}}}}}}}m,,,,,.++++++++++++                      ",
"                      ++++++++++++&,,,,,t}}}}}}}}}}}}}}}}}}m,,,,,.++++++++++++                      ",
"                      ++++++++++++&,,,,,t}}}}}}}}}}}}}}}}}}m,,,,,.++++++++++++                      ",
"                      ++++++++++++&,,,,,t}}}}}}}}}}}}}}}}}}m,,,,,.++++++++++++                      ",
"                      ++++++++++++&,,,,,t}}}}}}}}}}}}}}}}}}m,,,,,.++++++++++++                      ",
"                            ++++++&,,,,,t}}}}}}}}}}}}}}}}}}m,,,,,.++++++                            ",
"                             +++++&,,,,,t}}}}}}}}}}}}}}}}}}m,,,,,.++++++                            ",
"                             +++++&,,,,,t}}}}}}}}}}}}}}}}}}m,,,,,.++++++                            ",
"                             +++++&,,,,,t}}}}}}}}}}}}}}}}}}m,,,,,.++++++                            ",
"                             +++++&,,,,,t}}}}}}}}}}}}}}}}}}m,,,,,.++++++                            ",
"                             +++++&,,,,,t}}}}}}}}}}}}}}}}}}m,,,,,.++++++                            ",
"                             +++++&,,,,,t}}}}}}}}}}}}}}}}}}m,,,,,.++++++                            ",
"                                  ,,,,,,t}}}}}}}}}}}}}}}}}}m,,,,,,                                  ",
"                                  ,,,,,,t}}}}}}}}}}}}}}}}}}m,,,,,,                                  ",
"                                  ,,,,,,t}}}}}}}}}}}}}}}}}}m,,,,,,                                  ",
"                                  ,,,,,,t}}}}}}}}}}}}}}}}}}m,,,,,,                                  ",
"                                  ,,,,,,t}}}}}}}}}}}}}}}}}}m,,,,,,                                  ",
"                                  ,,,,,,t}}}}}}}}}}}}}}}}}}m,,,,,,                                  "
};
